<?xml version="1.0" encoding="UTF-8" standalone="no"?>
<!DOCTYPE svg PUBLIC "-//W3C//DTD SVG 1.1//EN" "http://www.w3.org/Graphics/SVG/1.1/DTD/svg11.dtd">
<svg width="100%" height="100%" viewBox="0 0 650 501" version="1.1" xmlns="http://www.w3.org/2000/svg" xmlns:xlink="http://www.w3.org/1999/xlink" xml:space="preserve" xmlns:serif="http://www.serif.com/" style="fill-rule:evenodd;clip-rule:evenodd;stroke-miterlimit:10;">
    <g transform="matrix(1,0,0,1,-2677,-1919)">
        <g transform="matrix(1.3,0,0,1,-7953.1,1919.97)">
            <rect id="DATA-AND-METRICS-ANALYSIS" serif:id="DATA AND METRICS ANALYSIS" x="8177" y="0" width="500" height="500" style="fill:none;"/>
            <g id="DATA-AND-METRICS-ANALYSIS1" serif:id="DATA AND METRICS ANALYSIS">
                <g transform="matrix(2.65413,0,0,3.45037,7697.19,23.4646)">
                    <g id="Layer-1" serif:id="Layer 1">
                        <g transform="matrix(1,0,0,1,184.124,70.7519)">
                            <path d="M0,19.98L29.852,31.955L76.861,23.505L99.427,31.955L155.839,-15.748L181.694,30.557L181.694,35.728L0,35.728L0,19.98Z" style="fill:rgb(6,103,56);fill-rule:nonzero;"/>
                        </g>
                        <g transform="matrix(1,0,0,1,184.124,81.3296)">
                            <path d="M0,15.749L36.61,9.61L77.332,3.291L103.893,-9.401L130.453,1.092L155.604,19.274L181.694,12.693L181.694,25.15L0,25.15L0,15.749Z" style="fill:rgb(14,175,80);fill-rule:nonzero;"/>
                        </g>
                        <g transform="matrix(1,0,0,1,184.124,88.3935)">
                            <path d="M0,14.313L25.855,1.869L51.946,3.513L103.657,-3.773L127.633,9.155L156.074,15.736L181.694,12.916L181.694,18.086L0,18.086L0,14.313Z" style="fill:rgb(64,63,65);fill-rule:nonzero;"/>
                        </g>
                        <g transform="matrix(-1,0,-0,1,418.186,-54.817)">
                            <rect x="192.759" y="104.554" width="32.668" height="2.909" style="fill:rgb(6,103,56);"/>
                        </g>
                        <g transform="matrix(-1,0,-0,1,418.186,-44.281)">
                            <rect x="192.759" y="99.286" width="32.668" height="2.909" style="fill:rgb(14,175,80);"/>
                        </g>
                        <g transform="matrix(-1,0,-0,1,418.186,-112.719)">
                            <rect x="192.759" y="128.432" width="32.668" height="13.055" style="fill:rgb(14,175,80);"/>
                        </g>
                        <g transform="matrix(-1,0,-0,1,494.878,-124.32)">
                            <rect x="236.94" y="140.033" width="20.998" height="1.454" style="fill:rgb(209,211,212);"/>
                        </g>
                        <g transform="matrix(-1,0,-0,1,502.787,-119.943)">
                            <rect x="236.94" y="137.844" width="28.907" height="1.455" style="fill:rgb(209,211,212);"/>
                        </g>
                        <g transform="matrix(-1,0,-0,1,504.743,-115.569)">
                            <rect x="236.94" y="135.657" width="30.863" height="1.455" style="fill:rgb(209,211,212);"/>
                        </g>
                        <g transform="matrix(-1,0,-0,1,499.31,-111.193)">
                            <rect x="236.939" y="133.469" width="25.432" height="1.455" style="fill:rgb(209,211,212);"/>
                        </g>
                        <g transform="matrix(-1,0,-0,1,500.904,-106.819)">
                            <rect x="236.94" y="131.282" width="27.024" height="1.455" style="fill:rgb(209,211,212);"/>
                        </g>
                        <g transform="matrix(-1,0,-0,1,506.549,-102.443)">
                            <rect x="236.94" y="129.094" width="32.669" height="1.455" style="fill:rgb(209,211,212);"/>
                        </g>
                        <g transform="matrix(-1,0,-0,1,418.186,-33.748)">
                            <rect x="192.759" y="94.019" width="32.668" height="2.91" style="fill:rgb(64,63,65);"/>
                        </g>
                        <g transform="matrix(-1,0,-0,1,549.941,71.695)">
                            <rect x="256.775" y="40.198" width="36.391" height="5.109" style="fill:rgb(88,89,91);"/>
                        </g>
                        <g>
                            <clipPath id="_clip1">
                                <path d="M244.388,69.315C244.388,84.631 256.804,97.048 272.12,97.048C287.437,97.048 299.853,84.631 299.853,69.315C299.853,54 287.437,41.583 272.12,41.583C256.804,41.583 244.388,54 244.388,69.315Z" clip-rule="nonzero"/>
                            </clipPath>
                            <g clip-path="url(#_clip1)">
                                <g transform="matrix(1,0,0,1,15.0529,48.8981)">
                                    <path d="M0,49.284L73.638,78.823L189.603,57.982L245.266,78.823L384.424,-38.849L448.205,75.377L448.205,88.133L0,88.133L0,49.284Z" style="fill:rgb(6,103,56);fill-rule:nonzero;"/>
                                </g>
                                <g transform="matrix(1,0,0,1,15.0529,74.9894)">
                                    <path d="M0,38.848L90.311,23.706L190.763,8.118L256.282,-23.193L321.803,2.693L383.844,47.546L448.205,31.311L448.205,62.041L0,62.041L0,38.848Z" style="fill:rgb(14,175,80);fill-rule:nonzero;"/>
                                </g>
                                <g transform="matrix(1,0,0,1,15.0529,92.4172)">
                                    <path d="M0,35.304L63.781,4.606L128.142,8.664L255.703,-9.31L314.845,22.58L385.004,38.816L448.205,31.858L448.205,44.614L0,44.614L0,35.304Z" style="fill:rgb(64,63,65);fill-rule:nonzero;"/>
                                </g>
                            </g>
                        </g>
                        <g transform="matrix(0,-1,-1,0,272.12,41.5829)">
                            <ellipse cx="-27.733" cy="-0" rx="27.731" ry="27.733" style="fill:none;stroke:rgb(88,89,91);stroke-width:1.45px;"/>
                        </g>
                        <g transform="matrix(0.707107,0.707107,0.707107,-0.707107,306.638,81.8706)">
                            <path d="M-5.58,-13.471L32.523,-13.471" style="fill:none;fill-rule:nonzero;stroke:rgb(88,89,91);stroke-width:1.45px;"/>
                        </g>
                        <g transform="matrix(1,0,0,1,311.786,48.0571)">
                            <path d="M0,0.001C0,-1.722 -1.103,-3.017 -2.797,-3.017C-4.492,-3.017 -5.58,-1.722 -5.58,0.001C-5.58,1.709 -4.492,3.019 -2.797,3.019C-1.103,3.019 0,1.709 0,0.001M-7.592,0.001C-7.592,-2.769 -5.566,-4.753 -2.797,-4.753C-0.014,-4.753 2.012,-2.769 2.012,0.001C2.012,2.771 -0.014,4.754 -2.797,4.754C-5.566,4.754 -7.592,2.771 -7.592,0.001" style="fill:rgb(14,175,80);fill-rule:nonzero;"/>
                        </g>
                        <g transform="matrix(1,0,0,1,320.638,43.456)">
                            <path d="M0,9.19L-2.784,5.511L-3.5,6.366L-3.5,9.19L-5.457,9.19L-5.457,0L-3.5,0L-3.5,4.106L-0.248,0L2.163,0L-1.488,4.312L2.411,9.19L0,9.19Z" style="fill:rgb(14,175,80);fill-rule:nonzero;"/>
                        </g>
                        <g transform="matrix(1,0,0,1,335.281,21.4932)">
                            <path d="M0,-5.73L-3.764,0L3.763,0L0,-5.73Z" style="fill:rgb(6,103,56);fill-rule:nonzero;"/>
                        </g>
                        <g transform="matrix(1,0,0,1,344.408,21.4932)">
                            <path d="M0,-5.73L-3.763,0L3.764,0L0,-5.73Z" style="fill:rgb(88,89,91);fill-rule:nonzero;"/>
                        </g>
                        <g transform="matrix(1,0,0,1,353.536,21.4932)">
                            <path d="M0,-5.73L-3.763,0L3.764,0L0,-5.73Z" style="fill:rgb(64,63,65);fill-rule:nonzero;"/>
                        </g>
                        <g transform="matrix(1,0,0,1,357.97,14.3086)">
                            <path d="M0,5.73L3.764,0L-3.763,0L0,5.73Z" style="fill:rgb(12,147,68);fill-rule:nonzero;"/>
                        </g>
                        <g transform="matrix(1,0,0,1,348.842,14.3086)">
                            <path d="M0,5.73L3.764,0L-3.763,0L0,5.73Z" style="fill:rgb(6,103,56);fill-rule:nonzero;"/>
                        </g>
                        <g transform="matrix(1,0,0,1,339.714,14.3086)">
                            <path d="M0,5.73L3.764,0L-3.763,0L0,5.73Z" style="fill:rgb(14,175,80);fill-rule:nonzero;"/>
                        </g>
                    </g>
                </g>
            </g>
        </g>
    </g>
</svg>
