<?xml version="1.0" encoding="UTF-8" standalone="no"?>
<!DOCTYPE svg PUBLIC "-//W3C//DTD SVG 1.1//EN" "http://www.w3.org/Graphics/SVG/1.1/DTD/svg11.dtd">
<svg width="100%" height="100%" viewBox="0 0 650 501" version="1.1" xmlns="http://www.w3.org/2000/svg" xmlns:xlink="http://www.w3.org/1999/xlink" xml:space="preserve" xmlns:serif="http://www.serif.com/" style="fill-rule:evenodd;clip-rule:evenodd;stroke-linejoin:round;stroke-miterlimit:2;">
    <g transform="matrix(1,0,0,1,-4903,-1919)">
        <g transform="matrix(1.3,0,0,1,-7872.1,1919.97)">
            <rect id="DISPUTE-RESOLUTION" serif:id="DISPUTE RESOLUTION" x="9827" y="0" width="500" height="500" style="fill:none;"/>
            <g id="DISPUTE-RESOLUTION1" serif:id="DISPUTE RESOLUTION">
                <g transform="matrix(1.84404,0,0,2.39725,9873.24,32.3921)">
                    <g id="Layer-1" serif:id="Layer 1">
                        <g transform="matrix(1,0,0,1,110.603,85.9531)">
                            <path d="M0,-58.339C-0.039,-58.339 -0.114,-58.348 -0.114,-58.348C-0.159,-58.348 -0.204,-58.354 -0.249,-58.354C-16.362,-58.354 -29.426,-45.287 -29.426,-29.181C-29.426,-13.065 -16.362,-0.004 -0.249,-0.004C-0.21,-0.004 -0.174,-0.007 -0.135,-0.01C-0.135,-0.01 -0.045,0.015 0,0.015C16.116,0.015 29.177,-13.052 29.177,-29.165C29.177,-45.27 16.113,-58.339 0,-58.339" style="fill:rgb(64,63,65);fill-rule:nonzero;"/>
                        </g>
                        <g transform="matrix(1,0,0,1,125.997,43.9748)">
                            <path d="M0,40.611L-0.454,40.861C-4.928,43.233 -10.031,44.59 -15.444,44.59C-15.466,44.59 -15.505,44.57 -15.505,44.57C-15.531,44.57 -15.559,44.573 -15.586,44.573C-21.002,44.573 -26.103,43.215 -30.576,40.84L-31.033,40.59C-40.846,35.171 -47.508,24.774 -47.508,12.849C-47.508,-4.64 -33.187,-18.868 -15.586,-18.868C-15.564,-18.868 -15.525,-18.847 -15.525,-18.847C-15.499,-18.847 -15.472,-18.85 -15.444,-18.85C2.156,-18.85 16.478,-4.618 16.478,12.867C16.472,24.793 9.812,35.188 0,40.611M13.055,36.107C13.452,36.002 13.904,35.971 14.403,36.047C16.56,36.375 17.52,35.053 16.538,33.111C15.562,31.163 16.538,29.468 18.712,29.347C20.892,29.221 21.554,27.728 20.193,26.027C18.829,24.329 19.432,22.465 21.53,21.893C23.635,21.324 23.975,19.716 22.282,18.34C20.594,16.962 20.805,15.017 22.734,14.011C24.676,13.014 24.676,11.389 22.734,10.386C20.798,9.386 20.594,7.442 22.282,6.063C23.975,4.684 23.635,3.089 21.53,2.513C19.432,1.941 18.829,0.078 20.193,-1.623C21.554,-3.319 20.889,-4.815 18.712,-4.938C16.538,-5.065 15.562,-6.756 16.538,-8.699C17.52,-10.646 16.56,-11.971 14.403,-11.637C12.251,-11.312 10.944,-12.76 11.498,-14.868C12.053,-16.975 10.839,-18.068 8.801,-17.3C6.76,-16.53 5.182,-17.676 5.284,-19.853C5.39,-22.033 3.972,-22.849 2.145,-21.665C0.311,-20.489 -1.475,-21.283 -1.824,-23.436C-2.176,-25.591 -3.729,-26.094 -5.274,-24.562C-6.821,-23.027 -8.736,-23.436 -9.525,-25.465C-10.314,-27.494 -11.943,-27.659 -13.132,-25.844C-13.779,-24.857 -14.646,-24.459 -15.502,-24.54C-16.362,-24.448 -17.238,-24.851 -17.892,-25.844C-19.084,-27.662 -20.71,-27.494 -21.499,-25.465C-22.288,-23.436 -24.202,-23.027 -25.75,-24.562C-27.301,-26.097 -28.851,-25.594 -29.203,-23.439C-29.556,-21.286 -31.344,-20.492 -33.174,-21.668C-35.011,-22.846 -36.426,-22.03 -36.32,-19.85C-36.221,-17.679 -37.799,-16.533 -39.837,-17.303C-41.875,-18.068 -43.089,-16.978 -42.534,-14.87C-41.98,-12.763 -43.287,-11.309 -45.439,-11.64C-47.596,-11.974 -48.556,-10.653 -47.574,-8.701C-46.599,-6.756 -47.574,-5.068 -49.748,-4.941C-51.925,-4.818 -52.59,-3.325 -51.229,-1.629C-49.862,0.075 -50.468,1.938 -52.566,2.507C-54.671,3.08 -55.008,4.678 -53.318,6.057C-51.63,7.436 -51.838,9.381 -53.771,10.381C-55.712,11.382 -55.712,13.008 -53.771,14.006C-51.835,15.01 -51.63,16.953 -53.318,18.335C-55.008,19.711 -54.668,21.312 -52.566,21.887C-50.465,22.46 -49.862,24.323 -51.227,26.021C-52.587,27.715 -51.922,29.215 -49.745,29.341C-47.571,29.462 -46.596,31.157 -47.571,33.105C-48.556,35.041 -47.596,36.366 -45.439,36.035C-44.938,35.956 -44.488,35.983 -44.091,36.094L-56.064,58.515L-43.42,58.515L-36.995,68.257L-24.897,48.336C-23.559,47.64 -22.152,48.191 -21.505,49.856C-20.716,51.888 -19.087,52.054 -17.898,50.236C-17.251,49.252 -16.384,48.854 -15.528,48.935L-15.528,48.95C-14.668,48.857 -13.791,49.257 -13.138,50.251C-11.946,52.069 -10.32,51.907 -9.531,49.872C-8.884,48.207 -7.475,47.656 -6.139,48.351L5.962,68.273L12.384,58.53L25.031,58.53L13.055,36.107Z" style="fill:rgb(64,63,65);fill-rule:nonzero;"/>
                        </g>
                        <g transform="matrix(-0.867455,0.497516,0.497516,0.867455,95.0459,138.355)">
                            <path d="M-39.61,25.255L-4.055,25.255L1.098,3.093L-46.697,-8.021L-39.61,25.255Z" style="fill:rgb(251,181,126);fill-rule:nonzero;"/>
                        </g>
                        <g transform="matrix(1,0,0,1,77.4048,156.341)">
                            <path d="M0,-51.9L22.413,-60.042C24.278,-60.718 26.328,-60.678 28.165,-59.926L29.682,-59.306C30.767,-58.863 31.74,-58.185 32.533,-57.324L70.041,-16.971C71.968,-14.899 71.924,-11.678 69.941,-9.659C67.874,-7.552 64.482,-7.545 62.404,-9.64L47.806,-24.367L46.812,-23.448L60.323,-9.951C62.314,-7.962 62.301,-4.731 60.294,-2.758C58.338,-0.836 55.206,-0.821 53.231,-2.724L40.203,-15.288L39.24,-14.103L49.064,-4.443C51.031,-2.508 51.045,0.66 49.095,2.611C47.198,4.508 44.138,4.557 42.182,2.722L32.316,-6.534L31.408,-5.801L36.836,-0.287C38.813,1.722 38.771,4.957 36.743,6.914C34.909,8.685 32.045,8.818 30.055,7.223L7.21,-10.926C5.976,-11.907 4.581,-12.667 3.089,-13.172L-8.677,-17.16L0,-51.9Z" style="fill:rgb(246,154,103);fill-rule:nonzero;"/>
                        </g>
                        <g transform="matrix(-0.970191,-0.24234,-0.24234,0.970191,35.4638,83.7832)">
                            <rect x="-38.861" y="4.78" width="45.775" height="51.422" style="fill:rgb(24,31,75);"/>
                        </g>
                        <g transform="matrix(-0.97022,-0.242226,-0.242226,0.97022,76.6938,101.84)">
                            <rect x="-1.321" y="0.162" width="6.842" height="44.702" style="fill:rgb(241,242,242);"/>
                        </g>
                        <g transform="matrix(0.970191,-0.24234,-0.24234,-0.970191,169.31,150.69)">
                            <rect x="-6.913" y="4.78" width="45.775" height="51.422" style="fill:rgb(20,58,31);"/>
                        </g>
                        <g transform="matrix(0.97022,-0.242226,-0.242226,-0.97022,159.279,144.508)">
                            <rect x="-5.521" y="0.162" width="6.842" height="44.702" style="fill:rgb(241,242,242);"/>
                        </g>
                        <g transform="matrix(1,0,0,1,84.0581,138.532)">
                            <path d="M0,4.046L-2.19,6.237C-3.913,7.959 -6.705,7.959 -8.428,6.237C-10.149,4.515 -10.149,1.723 -8.428,0.001L-6.236,-2.19C-4.514,-3.913 -1.722,-3.913 0,-2.19C1.723,-0.469 1.723,2.323 0,4.046" style="fill:rgb(251,181,126);fill-rule:nonzero;"/>
                        </g>
                        <g transform="matrix(1,0,0,1,106.179,157.149)">
                            <path d="M0,4.046L-2.191,6.236C-3.913,7.959 -6.705,7.959 -8.428,6.236C-10.149,4.515 -10.149,1.723 -8.428,0L-6.236,-2.191C-4.514,-3.913 -1.722,-3.913 0,-2.191C1.723,-0.469 1.723,2.323 0,4.046" style="fill:rgb(251,181,126);fill-rule:nonzero;"/>
                        </g>
                        <g transform="matrix(1,0,0,1,95.1685,145.788)">
                            <path d="M0,-0.867L-7.104,6.237C-8.826,7.959 -11.618,7.959 -13.341,6.237C-15.063,4.515 -15.063,1.723 -13.341,-0L-6.236,-7.103C-4.515,-8.826 -1.723,-8.826 0,-7.103C1.722,-5.382 1.722,-2.589 0,-0.867" style="fill:rgb(251,181,126);fill-rule:nonzero;"/>
                        </g>
                        <g transform="matrix(1,0,0,1,103.13,151.682)">
                            <path d="M0,-0.866L-7.104,6.238C-8.826,7.959 -11.618,7.959 -13.341,6.238C-15.063,4.515 -15.063,1.723 -13.341,0.001L-6.236,-7.103C-4.515,-8.825 -1.723,-8.825 0,-7.103C1.722,-5.381 1.722,-2.589 0,-0.866" style="fill:rgb(251,181,126);fill-rule:nonzero;"/>
                        </g>
                        <g transform="matrix(1,0,0,1,84.0884,138.776)">
                            <path d="M0,1.326L-1.686,3.012C-2.732,4.058 -4.43,4.058 -5.477,3.012C-6.522,1.965 -6.522,0.267 -5.477,-0.778L-3.79,-2.465C-3.523,-2.732 -3.092,-2.732 -2.825,-2.465L0,0.36C0.267,0.627 0.267,1.058 0,1.326" style="fill:rgb(253,211,189);fill-rule:nonzero;"/>
                        </g>
                        <g transform="matrix(1,0,0,1,94.7593,141.559)">
                            <path d="M0,1.325L-1.686,3.011C-2.732,4.057 -4.43,4.057 -5.476,3.011C-6.522,1.965 -6.522,0.267 -5.476,-0.779L-3.79,-2.465C-3.523,-2.732 -3.092,-2.732 -2.824,-2.465L0,0.359C0.267,0.626 0.267,1.058 0,1.325" style="fill:rgb(253,211,189);fill-rule:nonzero;"/>
                        </g>
                        <g transform="matrix(1,0,0,1,102.721,147.453)">
                            <path d="M0,1.326L-1.686,3.012C-2.732,4.058 -4.43,4.058 -5.477,3.012C-6.522,1.965 -6.522,0.267 -5.477,-0.778L-3.79,-2.465C-3.523,-2.732 -3.092,-2.732 -2.825,-2.465L0,0.36C0.267,0.627 0.267,1.059 0,1.326" style="fill:rgb(253,211,189);fill-rule:nonzero;"/>
                        </g>
                        <g transform="matrix(1,0,0,1,106.205,157.399)">
                            <path d="M0,1.325L-1.686,3.011C-2.732,4.057 -4.43,4.057 -5.476,3.011C-6.522,1.964 -6.522,0.267 -5.476,-0.779L-3.79,-2.465C-3.523,-2.732 -3.091,-2.732 -2.824,-2.465L0,0.359C0.267,0.626 0.267,1.058 0,1.325" style="fill:rgb(253,211,189);fill-rule:nonzero;"/>
                        </g>
                        <g transform="matrix(1,0,0,1,85.8355,121.36)">
                            <path d="M0,-3.164C0,-1.888 0.913,-0.793 2.169,-0.564L3.292,-0.36C6.079,0.146 8.954,-0.405 11.355,-1.907L13.965,-3.539C14.585,-3.927 15.145,-4.403 15.626,-4.954L19.405,-9.275L30.622,-12.335C30.757,-12.372 30.901,-12.334 31.001,-12.236L61.61,18.01C62.465,19.041 63.027,20.008 62.987,22.254L67.306,19.941L57.521,-17.246L33.814,-25.128C33.005,-25.396 32.134,-25.418 31.312,-25.188L14.45,-20.473C13.793,-20.289 13.207,-19.911 12.77,-19.388L0.615,-4.859C0.218,-4.384 0,-3.784 0,-3.164" style="fill:rgb(251,181,126);fill-rule:nonzero;"/>
                        </g>
                        <g transform="matrix(1,0,0,1,91.5181,118.529)">
                            <path d="M0,-8.068L1.587,-6.703C2.779,-4.714 1.561,-1.876 -0.397,-0.631L-0.81,-0.371C-1.354,-0.025 -2.042,0 -2.609,-0.305L-5.067,-2.028L0,-8.068Z" style="fill:rgb(253,211,189);fill-rule:nonzero;"/>
                        </g>
                        <g transform="matrix(-0.707107,-0.707107,-0.707107,0.707107,104.47,47.5832)">
                            <rect x="-10.228" y="4.236" width="14.396" height="5.823" style="fill:rgb(14,175,80);"/>
                        </g>
                        <g>
                            <clipPath id="_clip1">
                                <path d="M94.411,51.75L104.589,61.928L108.707,57.812L98.528,47.633L94.411,51.75Z" clip-rule="nonzero"/>
                            </clipPath>
                            <g clip-path="url(#_clip1)">
                                <g transform="matrix(1,0,0,1,0,-106.373)">
                                    <rect x="68.4" y="106.373" width="78.518" height="78.517" style="fill:rgb(14,175,80);"/>
                                </g>
                                <g transform="matrix(1,0,0,1,0,-75.33)">
                                    <rect x="92.448" y="120.999" width="18.223" height="18.222" style="fill:rgb(14,175,80);"/>
                                </g>
                            </g>
                        </g>
                        <g transform="matrix(-0.707278,-0.706935,-0.706935,0.707278,129.041,45.9712)">
                            <rect x="6.005" y="-2.491" width="5.832" height="31.062" style="fill:rgb(14,175,80);"/>
                        </g>
                        <g>
                            <clipPath id="_clip2">
                                <path d="M100.471,57.812L104.589,61.928L126.553,39.967L122.434,35.846L100.471,57.812Z" clip-rule="nonzero"/>
                            </clipPath>
                            <g clip-path="url(#_clip2)">
                                <g transform="matrix(1,0,0,1,0,-106.373)">
                                    <rect x="68.4" y="106.373" width="78.518" height="78.517" style="fill:rgb(14,175,80);"/>
                                </g>
                                <g transform="matrix(1,0,0,1,0,-87.116)">
                                    <rect x="98.507" y="120.999" width="30.008" height="30.008" style="fill:rgb(14,175,80);"/>
                                </g>
                            </g>
                        </g>
                        <g transform="matrix(1,0,0,1,105.232,68.8021)">
                            <path d="M0,9.018L0,2.705L-2.542,9.018L-3.38,9.018L-5.922,2.705L-5.922,9.018L-7.841,9.018L-7.841,0L-5.15,0L-2.961,5.449L-0.771,0L1.934,0L1.934,9.018L0,9.018Z" style="fill:rgb(14,175,80);fill-rule:nonzero;"/>
                        </g>
                        <g transform="matrix(1,0,0,1,114.241,74.9128)">
                            <path d="M0,-3.203C0,-3.961 -0.568,-4.42 -1.325,-4.42L-3.366,-4.42L-3.366,-1.986L-1.325,-1.986C-0.568,-1.986 0,-2.46 0,-3.203M-5.286,2.907L-5.286,-6.11L-1.068,-6.11C0.892,-6.11 1.96,-4.785 1.96,-3.203C1.96,-1.636 0.878,-0.297 -1.068,-0.297L-3.366,-0.297L-3.366,2.907L-5.286,2.907Z" style="fill:rgb(14,175,80);fill-rule:nonzero;"/>
                        </g>
                        <g transform="matrix(1,0,0,1,120.124,75.9005)">
                            <path d="M0,-5.178L-1.406,-1.298L1.405,-1.298L0,-5.178ZM2.487,1.92L1.933,0.392L-1.934,0.392L-2.502,1.92L-4.691,1.92L-1.204,-7.098L1.203,-7.098L4.678,1.92L2.487,1.92Z" style="fill:rgb(14,175,80);fill-rule:nonzero;"/>
                        </g>
                    </g>
                </g>
            </g>
        </g>
    </g>
</svg>
