<?xml version="1.0" encoding="UTF-8" standalone="no"?>
<!DOCTYPE svg PUBLIC "-//W3C//DTD SVG 1.1//EN" "http://www.w3.org/Graphics/SVG/1.1/DTD/svg11.dtd">
<svg width="100%" height="100%" viewBox="0 0 650 500" version="1.1" xmlns="http://www.w3.org/2000/svg" xmlns:xlink="http://www.w3.org/1999/xlink" xml:space="preserve" xmlns:serif="http://www.serif.com/" style="fill-rule:evenodd;clip-rule:evenodd;stroke-miterlimit:10;">
    <g transform="matrix(1,0,0,1,-4327,-1248)">
        <g transform="matrix(1.3,0,0,1,-7733.1,1248)">
            <rect id="AUTHENTICATION-AND-ACCEPTANCE" serif:id="AUTHENTICATION AND ACCEPTANCE" x="9277" y="0" width="500" height="500" style="fill:none;"/>
            <g id="AUTHENTICATION-AND-ACCEPTANCE1" serif:id="AUTHENTICATION AND ACCEPTANCE">
                <g transform="matrix(1.73665,0,0,2.25764,9271.86,54.7496)">
                    <g id="Layer-1" serif:id="Layer 1">
                        <g transform="matrix(-1,0,-0,1,293.832,3.892)">
                            <rect x="50.464" y="107.125" width="192.904" height="5.473" style="fill:rgb(64,63,65);"/>
                        </g>
                        <g transform="matrix(-1,0,-0,1,289.573,-103.074)">
                            <rect x="114.812" y="148.357" width="59.949" height="29.975" style="fill:rgb(149,150,154);"/>
                        </g>
                        <g transform="matrix(-1,0,-0,1,293.088,4.085)">
                            <rect x="88.869" y="105.379" width="115.35" height="8.772" style="fill:rgb(149,150,154);"/>
                        </g>
                        <g transform="matrix(-1,0,-0,1,411.243,4.084)">
                            <rect x="204.219" y="102.803" width="2.805" height="13.925" style="fill:rgb(149,150,154);"/>
                        </g>
                        <g transform="matrix(-1,0,-0,1,174.933,4.084)">
                            <rect x="86.064" y="102.803" width="2.805" height="13.925" style="fill:rgb(149,150,154);"/>
                        </g>
                        <g transform="matrix(-1,0,-0,1,294.818,-68.349)">
                            <rect x="140.121" y="143.607" width="14.576" height="4.75" style="fill:rgb(149,150,154);"/>
                        </g>
                        <g transform="matrix(-1,0,-0,1,294.818,-61.224)">
                            <rect x="140.121" y="141.232" width="14.576" height="2.375" style="fill:rgb(128,130,133);"/>
                        </g>
                        <g transform="matrix(-1,0,-0,1,294.817,-34.142)">
                            <rect x="141.023" y="116.525" width="12.771" height="24.707" style="fill:rgb(128,130,133);"/>
                        </g>
                        <g transform="matrix(-1,0,-0,1,359.319,-103.075)">
                            <rect x="174.761" y="147.441" width="9.797" height="31.808" style="fill:rgb(54,96,168);"/>
                        </g>
                        <g transform="matrix(-1,0,-0,1,370.942,-103.074)">
                            <rect x="184.558" y="148.357" width="1.826" height="29.975" style="fill:rgb(37,84,149);"/>
                        </g>
                        <g transform="matrix(-1,0,-0,1,342.498,-103.075)">
                            <rect x="167.737" y="147.441" width="7.024" height="31.808" style="fill:rgb(149,150,154);"/>
                        </g>
                        <g transform="matrix(1,0,0,1,163.313,60.2694)">
                            <path d="M0,0.001C0,8.784 -7.121,15.904 -15.904,15.904C-24.687,15.904 -31.808,8.784 -31.808,0.001C-31.808,-8.782 -24.687,-15.903 -15.904,-15.903C-7.121,-15.903 0,-8.782 0,0.001" style="fill:rgb(37,84,149);fill-rule:nonzero;"/>
                        </g>
                        <g transform="matrix(1,0,0,1,158.33,60.2704)">
                            <path d="M0,0C0,6.032 -4.89,10.922 -10.921,10.922C-16.953,10.922 -21.843,6.032 -21.843,0C-21.843,-6.032 -16.953,-10.922 -10.921,-10.922C-4.89,-10.922 0,-6.032 0,0" style="fill:rgb(108,110,112);fill-rule:nonzero;"/>
                        </g>
                        <g transform="matrix(-1,0,-0,1,294.818,-106.806)">
                            <rect x="139.459" y="162.05" width="15.9" height="6.321" style="fill:rgb(187,189,192);"/>
                        </g>
                        <g transform="matrix(1,0,0,1,143.173,64.7528)">
                            <path d="M0,0.001C0,1.026 -0.832,1.857 -1.857,1.857C-2.883,1.857 -3.714,1.026 -3.714,0.001C-3.714,-1.025 -2.883,-1.856 -1.857,-1.856C-0.832,-1.856 0,-1.025 0,0.001" style="fill:rgb(187,189,192);fill-rule:nonzero;"/>
                        </g>
                        <g transform="matrix(1,0,0,1,147.235,64.7528)">
                            <path d="M0,0.001C0,1.026 -0.832,1.857 -1.857,1.857C-2.883,1.857 -3.714,1.026 -3.714,0.001C-3.714,-1.025 -2.883,-1.856 -1.857,-1.856C-0.832,-1.856 0,-1.025 0,0.001" style="fill:rgb(187,189,192);fill-rule:nonzero;"/>
                        </g>
                        <g transform="matrix(1,0,0,1,151.297,64.7528)">
                            <path d="M0,0.001C0,1.026 -0.832,1.857 -1.857,1.857C-2.883,1.857 -3.714,1.026 -3.714,0.001C-3.714,-1.025 -2.883,-1.856 -1.857,-1.856C-0.832,-1.856 0,-1.025 0,0.001" style="fill:rgb(187,189,192);fill-rule:nonzero;"/>
                        </g>
                        <g transform="matrix(1,0,0,1,155.359,64.7528)">
                            <path d="M0,0.001C0,1.026 -0.832,1.857 -1.857,1.857C-2.883,1.857 -3.714,1.026 -3.714,0.001C-3.714,-1.025 -2.883,-1.856 -1.857,-1.856C-0.832,-1.856 0,-1.025 0,0.001" style="fill:rgb(187,189,192);fill-rule:nonzero;"/>
                        </g>
                        <g transform="matrix(1,0,0,1,101.268,166.505)">
                            <path d="M0,-59.415L90.894,-59.415L90.893,-45.311L56.325,-6.15C50.976,-0.09 41.554,0 36.09,-5.958L-0.001,-45.311L0,-59.415Z" style="fill:rgb(128,130,133);fill-rule:nonzero;"/>
                        </g>
                        <g transform="matrix(1,0,0,1,127.274,152.093)">
                            <path d="M0,-38.264L40.103,-38.322C46.429,-38.33 49.824,-30.887 45.669,-26.116L25.806,-3.309C22.89,0.039 17.697,0.066 14.746,-3.251L-5.494,-25.999C-9.717,-30.746 -6.354,-38.254 0,-38.264" style="fill:rgb(108,110,112);fill-rule:nonzero;"/>
                        </g>
                        <g transform="matrix(1,0,0,1,148.647,10.5109)">
                            <path d="M0,108.486C-29.912,108.486 -54.248,84.153 -54.248,54.243C-54.248,24.333 -29.912,0 0,0C29.91,0 54.243,24.333 54.243,54.243C54.243,84.153 29.91,108.486 0,108.486" style="fill:rgb(51,129,81);fill-rule:nonzero;"/>
                        </g>
                        <g transform="matrix(1,0,0,1,148.647,121.497)">
                            <path d="M0,-113.486C-31.291,-113.486 -56.748,-88.031 -56.748,-56.743C-56.748,-25.455 -31.291,0 0,0C31.288,0 56.743,-25.455 56.743,-56.743C56.743,-88.031 31.288,-113.486 0,-113.486M0,-108.486C28.575,-108.486 51.743,-85.321 51.743,-56.743C51.743,-28.165 28.575,-5 0,-5C-28.582,-5 -51.748,-28.165 -51.748,-56.743C-51.748,-85.321 -28.582,-108.486 0,-108.486" style="fill:rgb(88,89,91);fill-rule:nonzero;"/>
                        </g>
                        <g>
                            <clipPath id="_clip1">
                                <path d="M96.899,64.754C96.899,93.332 120.065,116.497 148.647,116.497C177.222,116.497 200.389,93.332 200.389,64.754C200.389,36.176 177.222,13.011 148.647,13.011C120.065,13.011 96.899,36.176 96.899,64.754Z" clip-rule="nonzero"/>
                            </clipPath>
                            <g clip-path="url(#_clip1)">
                                <g transform="matrix(-1,0,-0,1,284.46,-92.106)">
                                    <rect x="97.031" y="135.261" width="90.398" height="45.199" style="fill:rgb(149,150,154);"/>
                                </g>
                                <g transform="matrix(-1,0,-0,1,292.369,-39.745)">
                                    <rect x="135.195" y="128.099" width="21.979" height="7.162" style="fill:rgb(149,150,154);"/>
                                </g>
                                <g transform="matrix(-1,0,-0,1,292.369,-29)">
                                    <rect x="135.195" y="124.517" width="21.979" height="3.581" style="fill:rgb(128,130,133);"/>
                                </g>
                                <g transform="matrix(-1,0,-0,1,292.369,11.835)">
                                    <rect x="136.556" y="87.262" width="19.257" height="37.256" style="fill:rgb(128,130,133);"/>
                                </g>
                                <g transform="matrix(-1,0,-0,1,389.633,-92.106)">
                                    <rect x="187.43" y="133.879" width="14.773" height="47.963" style="fill:rgb(54,96,168);"/>
                                </g>
                                <g transform="matrix(-1,0,-0,1,364.267,-92.106)">
                                    <rect x="176.838" y="133.879" width="10.591" height="47.963" style="fill:rgb(149,150,154);"/>
                                </g>
                                <g transform="matrix(1,0,0,1,170.166,65.7548)">
                                    <path d="M0,0C0,13.245 -10.737,23.981 -23.981,23.981C-37.226,23.981 -47.963,13.245 -47.963,0C-47.963,-13.244 -37.226,-23.981 -23.981,-23.981C-10.737,-23.981 0,-13.244 0,0" style="fill:rgb(37,84,149);fill-rule:nonzero;"/>
                                </g>
                                <g transform="matrix(1,0,0,1,162.653,65.7548)">
                                    <path d="M0,0C0,9.096 -7.374,16.469 -16.469,16.469C-25.564,16.469 -32.938,9.096 -32.938,0C-32.938,-9.096 -25.564,-16.469 -16.469,-16.469C-7.374,-16.469 0,-9.096 0,0" style="fill:rgb(108,110,112);fill-rule:nonzero;"/>
                                </g>
                                <g transform="matrix(-1,0,-0,1,292.368,-97.732)">
                                    <rect x="134.196" y="155.907" width="23.976" height="9.533" style="fill:rgb(187,189,192);"/>
                                </g>
                                <g transform="matrix(1,0,0,1,139.797,72.5145)">
                                    <path d="M0,0.001C0,1.547 -1.254,2.801 -2.801,2.801C-4.347,2.801 -5.601,1.547 -5.601,0.001C-5.601,-1.546 -4.347,-2.8 -2.801,-2.8C-1.254,-2.8 0,-1.546 0,0.001" style="fill:rgb(187,189,192);fill-rule:nonzero;"/>
                                </g>
                                <g transform="matrix(1,0,0,1,145.922,72.5145)">
                                    <path d="M0,0.001C0,1.547 -1.254,2.801 -2.8,2.801C-4.347,2.801 -5.601,1.547 -5.601,0.001C-5.601,-1.546 -4.347,-2.8 -2.8,-2.8C-1.254,-2.8 0,-1.546 0,0.001" style="fill:rgb(187,189,192);fill-rule:nonzero;"/>
                                </g>
                                <g transform="matrix(1,0,0,1,152.047,72.5145)">
                                    <path d="M0,0.001C0,1.547 -1.254,2.801 -2.8,2.801C-4.347,2.801 -5.601,1.547 -5.601,0.001C-5.601,-1.546 -4.347,-2.8 -2.8,-2.8C-1.254,-2.8 0,-1.546 0,0.001" style="fill:rgb(187,189,192);fill-rule:nonzero;"/>
                                </g>
                                <g transform="matrix(1,0,0,1,158.172,72.5145)">
                                    <path d="M0,0.001C0,1.547 -1.253,2.801 -2.8,2.801C-4.347,2.801 -5.601,1.547 -5.601,0.001C-5.601,-1.546 -4.347,-2.8 -2.8,-2.8C-1.253,-2.8 0,-1.546 0,0.001" style="fill:rgb(187,189,192);fill-rule:nonzero;"/>
                                </g>
                            </g>
                        </g>
                        <g transform="matrix(0.707107,0.707107,0.707107,-0.707107,198.498,100.07)">
                            <path d="M-5.58,-13.471L32.523,-13.471" style="fill:none;fill-rule:nonzero;stroke:rgb(88,89,91);stroke-width:4.43px;"/>
                        </g>
                        <g transform="matrix(1,0,0,1,0,-101.626)">
                            <path d="M189.326,133.369L174.768,148.054L174.768,191.873L218.647,191.873L218.647,133.369L189.326,133.369Z" style="fill:rgb(230,230,230);fill-rule:nonzero;"/>
                        </g>
                        <g transform="matrix(1,0,0,1,0,-139.653)">
                            <rect x="195.245" y="177.246" width="16.089" height="8.776" style="fill:rgb(14,175,80);"/>
                        </g>
                        <g>
                            <clipPath id="_clip2">
                                <rect x="195.245" y="37.593" width="16.088" height="8.776" clip-rule="nonzero"/>
                            </clipPath>
                            <g clip-path="url(#_clip2)">
                                <g transform="matrix(1,0,0,1,0,-100.976)">
                                    <rect x="167.375" y="132.719" width="59.153" height="59.153" style="fill:rgb(14,175,80);"/>
                                </g>
                                <g transform="matrix(1,0,0,1,0,-139.652)">
                                    <rect x="193.766" y="175.767" width="19.046" height="11.733" style="fill:rgb(14,175,80);"/>
                                </g>
                            </g>
                        </g>
                        <g transform="matrix(1,0,0,1,0,-107.868)">
                            <rect x="195.245" y="164.752" width="16.089" height="1.979" style="fill:rgb(88,89,91);"/>
                        </g>
                        <g>
                            <clipPath id="_clip3">
                                <rect x="195.245" y="56.885" width="16.088" height="1.978" clip-rule="nonzero"/>
                            </clipPath>
                            <g clip-path="url(#_clip3)">
                                <g transform="matrix(1,0,0,1,0,-99.151)">
                                    <rect x="167.375" y="154.717" width="59.153" height="13.332" style="fill:rgb(88,89,91);"/>
                                </g>
                                <g transform="matrix(1,0,0,1,0,-107.868)">
                                    <rect x="193.766" y="164.419" width="19.046" height="2.645" style="fill:rgb(88,89,91);"/>
                                </g>
                            </g>
                        </g>
                        <g transform="matrix(1,0,0,1,0,-113.51)">
                            <rect x="195.245" y="167.573" width="16.089" height="1.979" style="fill:rgb(88,89,91);"/>
                        </g>
                        <g>
                            <clipPath id="_clip4">
                                <rect x="195.245" y="54.063" width="16.088" height="1.979" clip-rule="nonzero"/>
                            </clipPath>
                            <g clip-path="url(#_clip4)">
                                <g transform="matrix(1,0,0,1,0,-104.793)">
                                    <rect x="167.375" y="157.538" width="59.153" height="13.332" style="fill:rgb(88,89,91);"/>
                                </g>
                                <g transform="matrix(1,0,0,1,0,-113.51)">
                                    <rect x="193.766" y="167.24" width="19.046" height="2.645" style="fill:rgb(88,89,91);"/>
                                </g>
                            </g>
                        </g>
                        <g transform="matrix(1,0,0,1,0,-119.152)">
                            <rect x="195.245" y="170.394" width="16.089" height="1.979" style="fill:rgb(88,89,91);"/>
                        </g>
                        <g>
                            <clipPath id="_clip5">
                                <rect x="195.245" y="51.243" width="16.088" height="1.978" clip-rule="nonzero"/>
                            </clipPath>
                            <g clip-path="url(#_clip5)">
                                <g transform="matrix(1,0,0,1,0,-110.435)">
                                    <rect x="167.375" y="160.359" width="59.153" height="13.332" style="fill:rgb(88,89,91);"/>
                                </g>
                                <g transform="matrix(1,0,0,1,0,-119.152)">
                                    <rect x="193.766" y="170.061" width="19.046" height="2.645" style="fill:rgb(88,89,91);"/>
                                </g>
                            </g>
                        </g>
                        <g transform="matrix(1,0,0,1,0,-145.501)">
                            <path d="M174.768,191.87L189.395,191.87L189.395,177.244L174.768,191.87Z" style="fill:rgb(128,129,129);fill-rule:nonzero;"/>
                        </g>
                        <g transform="matrix(-0.707001,-0.707213,-0.707213,0.707001,183.447,54.0471)">
                            <rect x="-3.352" y="1.389" width="4.718" height="1.908" style="fill:rgb(14,175,80);"/>
                        </g>
                        <g>
                            <clipPath id="_clip6">
                                <path d="M180.149,55.413L183.485,58.748L184.834,57.399L181.498,54.063L180.149,55.413Z" clip-rule="nonzero"/>
                            </clipPath>
                            <g clip-path="url(#_clip6)">
                                <g transform="matrix(1,0,0,1,0,-120.976)">
                                    <rect x="171.626" y="159.431" width="25.73" height="25.729" style="fill:rgb(14,175,80);"/>
                                </g>
                                <g transform="matrix(1,0,0,1,0,-110.804)">
                                    <rect x="179.506" y="164.224" width="5.972" height="5.971" style="fill:rgb(14,175,80);"/>
                                </g>
                            </g>
                        </g>
                        <g transform="matrix(-0.707107,-0.707107,-0.707107,0.707107,191.498,53.52)">
                            <rect x="1.969" y="-0.816" width="1.909" height="10.18" style="fill:rgb(14,175,80);"/>
                        </g>
                        <g>
                            <clipPath id="_clip7">
                                <path d="M182.135,57.399L183.485,58.748L190.682,51.551L189.333,50.201L182.135,57.399Z" clip-rule="nonzero"/>
                            </clipPath>
                            <g clip-path="url(#_clip7)">
                                <g transform="matrix(1,0,0,1,0,-120.976)">
                                    <rect x="171.626" y="159.431" width="25.73" height="25.729" style="fill:rgb(14,175,80);"/>
                                </g>
                                <g transform="matrix(1,0,0,1,0,-114.666)">
                                    <rect x="181.492" y="164.224" width="9.833" height="9.833" style="fill:rgb(14,175,80);"/>
                                </g>
                            </g>
                        </g>
                        <g transform="matrix(1,0,0,1,0,-83.851)">
                            <rect x="195.245" y="152.744" width="16.089" height="1.978" style="fill:rgb(88,89,91);"/>
                        </g>
                        <g>
                            <clipPath id="_clip8">
                                <rect x="195.245" y="68.894" width="16.088" height="1.977" clip-rule="nonzero"/>
                            </clipPath>
                            <g clip-path="url(#_clip8)">
                                <g transform="matrix(1,0,0,1,0,-75.134)">
                                    <rect x="167.375" y="142.709" width="59.153" height="13.331" style="fill:rgb(88,89,91);"/>
                                </g>
                                <g transform="matrix(1,0,0,1,0,-83.852)">
                                    <rect x="193.766" y="152.411" width="19.046" height="2.645" style="fill:rgb(88,89,91);"/>
                                </g>
                            </g>
                        </g>
                        <g transform="matrix(1,0,0,1,0,-89.493)">
                            <rect x="195.245" y="155.565" width="16.089" height="1.978" style="fill:rgb(88,89,91);"/>
                        </g>
                        <g>
                            <clipPath id="_clip9">
                                <rect x="195.245" y="66.072" width="16.088" height="1.978" clip-rule="nonzero"/>
                            </clipPath>
                            <g clip-path="url(#_clip9)">
                                <g transform="matrix(1,0,0,1,0,-80.776)">
                                    <rect x="167.375" y="145.53" width="59.153" height="13.331" style="fill:rgb(88,89,91);"/>
                                </g>
                                <g transform="matrix(1,0,0,1,0,-89.494)">
                                    <rect x="193.766" y="155.232" width="19.046" height="2.645" style="fill:rgb(88,89,91);"/>
                                </g>
                            </g>
                        </g>
                        <g transform="matrix(1,0,0,1,0,-95.137)">
                            <rect x="195.245" y="158.387" width="16.089" height="1.978" style="fill:rgb(88,89,91);"/>
                        </g>
                        <g>
                            <clipPath id="_clip10">
                                <rect x="195.245" y="63.252" width="16.088" height="1.977" clip-rule="nonzero"/>
                            </clipPath>
                            <g clip-path="url(#_clip10)">
                                <g transform="matrix(1,0,0,1,0,-86.418)">
                                    <rect x="167.375" y="148.351" width="59.153" height="13.331" style="fill:rgb(88,89,91);"/>
                                </g>
                                <g transform="matrix(1,0,0,1,0,-95.138)">
                                    <rect x="193.766" y="158.054" width="19.046" height="2.645" style="fill:rgb(88,89,91);"/>
                                </g>
                            </g>
                        </g>
                        <g transform="matrix(-0.707001,-0.707213,-0.707213,0.707001,183.447,66.0558)">
                            <rect x="-3.352" y="1.388" width="4.717" height="1.908" style="fill:rgb(14,175,80);"/>
                        </g>
                        <g>
                            <clipPath id="_clip11">
                                <path d="M180.149,67.421L183.485,70.756L184.834,69.407L181.498,66.072L180.149,67.421Z" clip-rule="nonzero"/>
                            </clipPath>
                            <g clip-path="url(#_clip11)">
                                <g transform="matrix(1,0,0,1,0,-96.959)">
                                    <rect x="171.626" y="147.422" width="25.73" height="25.73" style="fill:rgb(14,175,80);"/>
                                </g>
                                <g transform="matrix(1,0,0,1,0,-86.787)">
                                    <rect x="179.506" y="152.215" width="5.972" height="5.972" style="fill:rgb(14,175,80);"/>
                                </g>
                            </g>
                        </g>
                        <g transform="matrix(-0.707107,-0.707107,-0.707107,0.707107,191.498,65.5286)">
                            <rect x="1.969" y="-0.816" width="1.909" height="10.179" style="fill:rgb(14,175,80);"/>
                        </g>
                        <g>
                            <clipPath id="_clip12">
                                <path d="M182.135,69.407L183.485,70.756L190.682,63.559L189.333,62.21L182.135,69.407Z" clip-rule="nonzero"/>
                            </clipPath>
                            <g clip-path="url(#_clip12)">
                                <g transform="matrix(1,0,0,1,0,-96.959)">
                                    <rect x="171.626" y="147.422" width="25.73" height="25.73" style="fill:rgb(14,175,80);"/>
                                </g>
                                <g transform="matrix(1,0,0,1,0,-90.649)">
                                    <rect x="181.492" y="152.215" width="9.833" height="9.834" style="fill:rgb(14,175,80);"/>
                                </g>
                            </g>
                        </g>
                        <g transform="matrix(1,0,0,1,0,-59.835)">
                            <rect x="195.245" y="140.736" width="16.089" height="1.978" style="fill:rgb(88,89,91);"/>
                        </g>
                        <g>
                            <clipPath id="_clip13">
                                <rect x="195.245" y="80.901" width="16.088" height="1.977" clip-rule="nonzero"/>
                            </clipPath>
                            <g clip-path="url(#_clip13)">
                                <g transform="matrix(1,0,0,1,0,-51.117)">
                                    <rect x="167.375" y="130.7" width="59.153" height="13.332" style="fill:rgb(88,89,91);"/>
                                </g>
                                <g transform="matrix(1,0,0,1,0,-59.834)">
                                    <rect x="193.766" y="140.402" width="19.046" height="2.645" style="fill:rgb(88,89,91);"/>
                                </g>
                            </g>
                        </g>
                        <g transform="matrix(1,0,0,1,0,-65.479)">
                            <rect x="195.245" y="143.558" width="16.089" height="1.978" style="fill:rgb(88,89,91);"/>
                        </g>
                        <g>
                            <clipPath id="_clip14">
                                <rect x="195.245" y="78.08" width="16.088" height="1.978" clip-rule="nonzero"/>
                            </clipPath>
                            <g clip-path="url(#_clip14)">
                                <g transform="matrix(1,0,0,1,0,-56.759)">
                                    <rect x="167.375" y="133.521" width="59.153" height="13.332" style="fill:rgb(88,89,91);"/>
                                </g>
                                <g transform="matrix(1,0,0,1,0,-65.478)">
                                    <rect x="193.766" y="143.224" width="19.046" height="2.645" style="fill:rgb(88,89,91);"/>
                                </g>
                            </g>
                        </g>
                        <g transform="matrix(1,0,0,1,0,-71.121)">
                            <rect x="195.245" y="146.379" width="16.089" height="1.978" style="fill:rgb(88,89,91);"/>
                        </g>
                        <g>
                            <clipPath id="_clip15">
                                <rect x="195.245" y="75.259" width="16.088" height="1.977" clip-rule="nonzero"/>
                            </clipPath>
                            <g clip-path="url(#_clip15)">
                                <g transform="matrix(1,0,0,1,0,-62.403)">
                                    <rect x="167.375" y="136.343" width="59.153" height="13.332" style="fill:rgb(88,89,91);"/>
                                </g>
                                <g transform="matrix(1,0,0,1,0,-71.12)">
                                    <rect x="193.766" y="146.045" width="19.046" height="2.645" style="fill:rgb(88,89,91);"/>
                                </g>
                            </g>
                        </g>
                        <g transform="matrix(-0.707107,-0.707107,-0.707107,0.707107,183.446,78.0634)">
                            <rect x="-3.352" y="1.388" width="4.717" height="1.908" style="fill:rgb(14,175,80);"/>
                        </g>
                        <g>
                            <clipPath id="_clip16">
                                <path d="M180.149,79.43L183.485,82.764L184.834,81.416L181.498,78.08L180.149,79.43Z" clip-rule="nonzero"/>
                            </clipPath>
                            <g clip-path="url(#_clip16)">
                                <g transform="matrix(1,0,0,1,0,-72.943)">
                                    <rect x="171.626" y="135.414" width="25.73" height="25.73" style="fill:rgb(14,175,80);"/>
                                </g>
                                <g transform="matrix(1,0,0,1,0,-62.771)">
                                    <rect x="179.506" y="140.207" width="5.972" height="5.972" style="fill:rgb(14,175,80);"/>
                                </g>
                            </g>
                        </g>
                        <g transform="matrix(-0.707369,-0.706845,-0.706845,0.707369,191.497,77.5345)">
                            <rect x="1.966" y="-0.817" width="1.913" height="10.18" style="fill:rgb(14,175,80);"/>
                        </g>
                        <g>
                            <clipPath id="_clip17">
                                <path d="M182.135,81.416L183.485,82.764L190.682,75.569L189.333,74.218L182.135,81.416Z" clip-rule="nonzero"/>
                            </clipPath>
                            <g clip-path="url(#_clip17)">
                                <g transform="matrix(1,0,0,1,0,-72.943)">
                                    <rect x="171.626" y="135.414" width="25.73" height="25.73" style="fill:rgb(14,175,80);"/>
                                </g>
                                <g transform="matrix(1,0,0,1,0,-66.633)">
                                    <rect x="181.492" y="140.207" width="9.833" height="9.834" style="fill:rgb(14,175,80);"/>
                                </g>
                            </g>
                        </g>
                    </g>
                </g>
            </g>
        </g>
    </g>
</svg>
