<?xml version="1.0" encoding="UTF-8" standalone="no"?>
<!DOCTYPE svg PUBLIC "-//W3C//DTD SVG 1.1//EN" "http://www.w3.org/Graphics/SVG/1.1/DTD/svg11.dtd">
<svg width="100%" height="100%" viewBox="0 0 650 501" version="1.1" xmlns="http://www.w3.org/2000/svg" xmlns:xlink="http://www.w3.org/1999/xlink" xml:space="preserve" xmlns:serif="http://www.serif.com/" style="fill-rule:evenodd;clip-rule:evenodd;stroke-linejoin:round;stroke-miterlimit:2;">
    <g transform="matrix(1,0,0,1,-3673,-1919)">
        <g transform="matrix(1.3,0,0,1,-7672.1,1919.97)">
            <rect id="ROUTINE-INSPECTIONS" serif:id="ROUTINE INSPECTIONS" x="8727" y="0" width="500" height="500" style="fill:none;"/>
            <g id="ROUTINE-INSPECTIONS1" serif:id="ROUTINE INSPECTIONS">
                <g transform="matrix(2.1252,0,0,2.76276,8779.91,43.9194)">
                    <g id="Layer-1" serif:id="Layer 1">
                        <g transform="matrix(1,0,0,1,141.034,94.8961)">
                            <path d="M0,-58.504L-14.557,-43.82L-14.557,0L29.32,0L29.32,-58.504L0,-58.504Z" style="fill:rgb(230,230,230);fill-rule:nonzero;"/>
                        </g>
                        <g transform="matrix(1,0,0,1,0,-65.38)">
                            <rect x="146.954" y="107.622" width="16.089" height="8.776" style="fill:rgb(14,175,80);"/>
                        </g>
                        <g transform="matrix(1,0,0,1,0,-65.381)">
                            <rect x="146.954" y="107.622" width="16.088" height="8.777" style="fill:rgb(14,175,80);"/>
                        </g>
                        <g transform="matrix(1,0,0,1,0,-65.381)">
                            <rect x="146.954" y="107.622" width="16.088" height="8.777" style="fill:rgb(14,175,80);"/>
                        </g>
                        <g transform="matrix(1,0,0,1,0,-33.595)">
                            <rect x="146.954" y="95.128" width="16.089" height="1.979" style="fill:rgb(88,89,91);"/>
                        </g>
                        <g transform="matrix(1,0,0,1,0,-33.594)">
                            <rect x="146.954" y="95.128" width="16.088" height="1.978" style="fill:rgb(88,89,91);"/>
                        </g>
                        <g transform="matrix(1,0,0,1,0,-33.594)">
                            <rect x="146.954" y="95.128" width="16.088" height="1.978" style="fill:rgb(88,89,91);"/>
                        </g>
                        <g transform="matrix(1,0,0,1,0,-39.237)">
                            <rect x="146.954" y="97.949" width="16.089" height="1.979" style="fill:rgb(88,89,91);"/>
                        </g>
                        <g transform="matrix(1,0,0,1,0,-39.237)">
                            <rect x="146.954" y="97.949" width="16.088" height="1.979" style="fill:rgb(88,89,91);"/>
                        </g>
                        <g transform="matrix(1,0,0,1,0,-39.237)">
                            <rect x="146.954" y="97.949" width="16.088" height="1.979" style="fill:rgb(88,89,91);"/>
                        </g>
                        <g transform="matrix(1,0,0,1,0,-44.881)">
                            <rect x="146.954" y="100.771" width="16.089" height="1.979" style="fill:rgb(88,89,91);"/>
                        </g>
                        <g transform="matrix(1,0,0,1,0,-44.879)">
                            <rect x="146.954" y="100.77" width="16.088" height="1.979" style="fill:rgb(88,89,91);"/>
                        </g>
                        <g transform="matrix(1,0,0,1,0,-44.879)">
                            <rect x="146.954" y="100.77" width="16.088" height="1.979" style="fill:rgb(88,89,91);"/>
                        </g>
                        <g transform="matrix(1,0,0,1,126.477,36.392)">
                            <path d="M0,14.626L14.626,14.626L14.626,0L0,14.626Z" style="fill:rgb(128,129,129);fill-rule:nonzero;"/>
                        </g>
                        <g transform="matrix(-0.707107,-0.707107,-0.707107,0.707107,135.155,58.6955)">
                            <rect x="-3.353" y="1.388" width="4.718" height="1.909" style="fill:rgb(14,175,80);"/>
                        </g>
                        <g transform="matrix(0.707107,0.707107,0.707107,-0.707107,133.246,58.6964)">
                            <rect x="-0.016" y="-1.947" width="4.718" height="1.908" style="fill:rgb(14,175,80);"/>
                        </g>
                        <g transform="matrix(0.707107,0.707107,0.707107,-0.707107,133.246,58.6964)">
                            <rect x="-0.016" y="-1.947" width="4.718" height="1.908" style="fill:rgb(14,175,80);"/>
                        </g>
                        <g transform="matrix(-0.707369,-0.706845,-0.706845,0.707369,143.205,58.1666)">
                            <rect x="1.966" y="-0.817" width="1.914" height="10.18" style="fill:rgb(14,175,80);"/>
                        </g>
                        <g transform="matrix(0.707369,0.706845,0.706845,-0.707369,133.027,58.1719)">
                            <rect x="3.318" y="-2.165" width="1.912" height="10.18" style="fill:rgb(14,175,80);"/>
                        </g>
                        <g transform="matrix(0.707369,0.706845,0.706845,-0.707369,133.027,58.1719)">
                            <rect x="3.318" y="-2.165" width="1.912" height="10.18" style="fill:rgb(14,175,80);"/>
                        </g>
                        <g transform="matrix(1,0,0,1,0,-9.578)">
                            <rect x="146.954" y="83.12" width="16.089" height="1.978" style="fill:rgb(88,89,91);"/>
                        </g>
                        <g transform="matrix(1,0,0,1,0,-9.577)">
                            <rect x="146.954" y="83.12" width="16.088" height="1.977" style="fill:rgb(88,89,91);"/>
                        </g>
                        <g transform="matrix(1,0,0,1,0,-9.577)">
                            <rect x="146.954" y="83.12" width="16.088" height="1.977" style="fill:rgb(88,89,91);"/>
                        </g>
                        <g transform="matrix(1,0,0,1,0,-15.22)">
                            <rect x="146.954" y="85.941" width="16.089" height="1.978" style="fill:rgb(88,89,91);"/>
                        </g>
                        <g transform="matrix(1,0,0,1,0,-15.22)">
                            <rect x="146.954" y="85.941" width="16.088" height="1.978" style="fill:rgb(88,89,91);"/>
                        </g>
                        <g transform="matrix(1,0,0,1,0,-15.22)">
                            <rect x="146.954" y="85.941" width="16.088" height="1.978" style="fill:rgb(88,89,91);"/>
                        </g>
                        <g transform="matrix(1,0,0,1,0,-20.864)">
                            <rect x="146.954" y="88.763" width="16.089" height="1.978" style="fill:rgb(88,89,91);"/>
                        </g>
                        <g transform="matrix(1,0,0,1,0,-20.861)">
                            <rect x="146.954" y="88.762" width="16.088" height="1.977" style="fill:rgb(88,89,91);"/>
                        </g>
                        <g transform="matrix(1,0,0,1,0,-20.861)">
                            <rect x="146.954" y="88.762" width="16.088" height="1.977" style="fill:rgb(88,89,91);"/>
                        </g>
                        <g transform="matrix(-0.707107,-0.707107,-0.707107,0.707107,135.154,70.7042)">
                            <rect x="-3.352" y="1.388" width="4.718" height="1.908" style="fill:rgb(14,175,80);"/>
                        </g>
                        <g transform="matrix(0.707107,0.707107,0.707107,-0.707107,133.246,70.7043)">
                            <rect x="-0.016" y="-1.947" width="4.717" height="1.908" style="fill:rgb(14,175,80);"/>
                        </g>
                        <g transform="matrix(0.707107,0.707107,0.707107,-0.707107,133.246,70.7043)">
                            <rect x="-0.016" y="-1.947" width="4.717" height="1.908" style="fill:rgb(14,175,80);"/>
                        </g>
                        <g transform="matrix(-0.707369,-0.706845,-0.706845,0.707369,143.205,70.1753)">
                            <rect x="1.966" y="-0.817" width="1.914" height="10.18" style="fill:rgb(14,175,80);"/>
                        </g>
                        <g transform="matrix(0.707369,0.706845,0.706845,-0.707369,133.027,70.1798)">
                            <rect x="3.317" y="-2.165" width="1.912" height="10.179" style="fill:rgb(14,175,80);"/>
                        </g>
                        <g transform="matrix(0.707369,0.706845,0.706845,-0.707369,133.027,70.1798)">
                            <rect x="3.317" y="-2.165" width="1.912" height="10.179" style="fill:rgb(14,175,80);"/>
                        </g>
                        <g transform="matrix(1,0,0,1,0,14.438)">
                            <rect x="146.954" y="71.112" width="16.089" height="1.978" style="fill:rgb(88,89,91);"/>
                        </g>
                        <g transform="matrix(1,0,0,1,0,14.437)">
                            <rect x="146.954" y="71.113" width="16.088" height="1.977" style="fill:rgb(88,89,91);"/>
                        </g>
                        <g transform="matrix(1,0,0,1,0,14.437)">
                            <rect x="146.954" y="71.113" width="16.088" height="1.977" style="fill:rgb(88,89,91);"/>
                        </g>
                        <g transform="matrix(1,0,0,1,0,8.794)">
                            <rect x="146.954" y="73.934" width="16.089" height="1.978" style="fill:rgb(88,89,91);"/>
                        </g>
                        <g transform="matrix(1,0,0,1,0,8.796)">
                            <rect x="146.954" y="73.933" width="16.088" height="1.978" style="fill:rgb(88,89,91);"/>
                        </g>
                        <g transform="matrix(1,0,0,1,0,8.796)">
                            <rect x="146.954" y="73.933" width="16.088" height="1.978" style="fill:rgb(88,89,91);"/>
                        </g>
                        <g transform="matrix(1,0,0,1,0,3.152)">
                            <rect x="146.954" y="76.755" width="16.089" height="1.978" style="fill:rgb(88,89,91);"/>
                        </g>
                        <g transform="matrix(1,0,0,1,0,3.153)">
                            <rect x="146.954" y="76.755" width="16.088" height="1.977" style="fill:rgb(88,89,91);"/>
                        </g>
                        <g transform="matrix(1,0,0,1,0,3.153)">
                            <rect x="146.954" y="76.755" width="16.088" height="1.977" style="fill:rgb(88,89,91);"/>
                        </g>
                        <g transform="matrix(-0.707213,-0.707001,-0.707001,0.707213,135.154,82.7118)">
                            <rect x="-3.353" y="1.388" width="4.717" height="1.909" style="fill:rgb(14,175,80);"/>
                        </g>
                        <g transform="matrix(0.707107,0.707107,0.707107,-0.707107,133.246,82.7129)">
                            <rect x="-0.016" y="-1.947" width="4.718" height="1.908" style="fill:rgb(14,175,80);"/>
                        </g>
                        <g transform="matrix(0.707107,0.707107,0.707107,-0.707107,133.246,82.7129)">
                            <rect x="-0.016" y="-1.947" width="4.718" height="1.908" style="fill:rgb(14,175,80);"/>
                        </g>
                        <g transform="matrix(-0.70763,-0.706583,-0.706583,0.70763,143.205,82.1812)">
                            <rect x="1.964" y="-0.817" width="1.917" height="10.18" style="fill:rgb(14,175,80);"/>
                        </g>
                        <g transform="matrix(0.707631,0.706582,0.706582,-0.707631,133.026,82.1901)">
                            <rect x="3.316" y="-2.164" width="1.915" height="10.18" style="fill:rgb(14,175,80);"/>
                        </g>
                        <g transform="matrix(0.707631,0.706582,0.706582,-0.707631,133.026,82.1901)">
                            <rect x="3.316" y="-2.164" width="1.915" height="10.18" style="fill:rgb(14,175,80);"/>
                        </g>
                        <g transform="matrix(-1,0,-0,1,135.136,-8.807)">
                            <rect x="15.12" y="82.235" width="104.896" height="2.977" style="fill:rgb(64,63,65);"/>
                        </g>
                        <g transform="matrix(-1,0,-0,1,132.818,-66.972)">
                            <rect x="50.109" y="104.656" width="32.6" height="16.3" style="fill:rgb(149,150,154);"/>
                        </g>
                        <g transform="matrix(-1,0,-0,1,134.73,-8.702)">
                            <rect x="36.003" y="81.286" width="62.724" height="4.77" style="fill:rgb(149,150,154);"/>
                        </g>
                        <g transform="matrix(-1,0,-0,1,198.979,-8.702)">
                            <rect x="98.727" y="79.885" width="1.525" height="7.572" style="fill:rgb(149,150,154);"/>
                        </g>
                        <g transform="matrix(-1,0,-0,1,70.481,-8.702)">
                            <rect x="34.478" y="79.885" width="1.525" height="7.572" style="fill:rgb(149,150,154);"/>
                        </g>
                        <g transform="matrix(-1,0,-0,1,135.67,-48.09)">
                            <rect x="63.872" y="102.074" width="7.926" height="2.582" style="fill:rgb(149,150,154);"/>
                        </g>
                        <g transform="matrix(-1,0,-0,1,135.67,-44.216)">
                            <rect x="63.872" y="100.782" width="7.926" height="1.292" style="fill:rgb(128,130,133);"/>
                        </g>
                        <g transform="matrix(-1,0,-0,1,135.671,-29.491)">
                            <rect x="64.364" y="87.348" width="6.943" height="13.435" style="fill:rgb(128,130,133);"/>
                        </g>
                        <g transform="matrix(-1,0,-0,1,170.747,-66.972)">
                            <rect x="82.71" y="104.158" width="5.327" height="17.296" style="fill:rgb(54,96,168);"/>
                        </g>
                        <g transform="matrix(1,0,0,1,0,-66.974)">
                            <rect x="88.036" y="104.657" width="0.994" height="16.3" style="fill:rgb(37,84,149);"/>
                        </g>
                        <g transform="matrix(-1,0,-0,1,161.599,-66.972)">
                            <rect x="78.89" y="104.158" width="3.819" height="17.296" style="fill:rgb(149,150,154);"/>
                        </g>
                        <g transform="matrix(1,0,0,1,76.4838,45.8344)">
                            <path d="M0,-0.001C0,4.775 -3.872,8.647 -8.648,8.647C-13.425,8.647 -17.297,4.775 -17.297,-0.001C-17.297,-4.776 -13.425,-8.648 -8.648,-8.648C-3.872,-8.648 0,-4.776 0,-0.001" style="fill:rgb(37,84,149);fill-rule:nonzero;"/>
                        </g>
                        <g transform="matrix(1,0,0,1,73.7748,45.8344)">
                            <path d="M0,-0.001C0,3.279 -2.659,5.938 -5.939,5.938C-9.22,5.938 -11.878,3.279 -11.878,-0.001C-11.878,-3.28 -9.22,-5.939 -5.939,-5.939C-2.659,-5.939 0,-3.28 0,-0.001" style="fill:rgb(108,110,112);fill-rule:nonzero;"/>
                        </g>
                        <g transform="matrix(-1,0,-0,1,135.672,-69.002)">
                            <rect x="63.513" y="112.102" width="8.646" height="3.438" style="fill:rgb(187,189,192);"/>
                        </g>
                        <g transform="matrix(1,0,0,1,65.5316,48.2718)">
                            <path d="M0,0C0,0.558 -0.452,1.01 -1.01,1.01C-1.567,1.01 -2.02,0.558 -2.02,0C-2.02,-0.558 -1.567,-1.01 -1.01,-1.01C-0.452,-1.01 0,-0.558 0,0" style="fill:rgb(187,189,192);fill-rule:nonzero;"/>
                        </g>
                        <g transform="matrix(1,0,0,1,67.7406,48.2718)">
                            <path d="M0,0C0,0.558 -0.452,1.01 -1.01,1.01C-1.567,1.01 -2.02,0.558 -2.02,0C-2.02,-0.558 -1.567,-1.01 -1.01,-1.01C-0.452,-1.01 0,-0.558 0,0" style="fill:rgb(187,189,192);fill-rule:nonzero;"/>
                        </g>
                        <g transform="matrix(1,0,0,1,69.9496,48.2718)">
                            <path d="M0,0C0,0.558 -0.452,1.01 -1.01,1.01C-1.567,1.01 -2.02,0.558 -2.02,0C-2.02,-0.558 -1.567,-1.01 -1.01,-1.01C-0.452,-1.01 0,-0.558 0,0" style="fill:rgb(187,189,192);fill-rule:nonzero;"/>
                        </g>
                        <g transform="matrix(1,0,0,1,72.1586,48.2718)">
                            <path d="M0,0C0,0.558 -0.452,1.01 -1.01,1.01C-1.567,1.01 -2.02,0.558 -2.02,0C-2.02,-0.558 -1.567,-1.01 -1.01,-1.01C-0.452,-1.01 0,-0.558 0,0" style="fill:rgb(187,189,192);fill-rule:nonzero;"/>
                        </g>
                        <g transform="matrix(1,0,0,1,42.7455,103.601)">
                            <path d="M0,-32.309L49.426,-32.309L49.425,-24.639L30.628,-3.344C27.719,-0.048 22.596,0 19.625,-3.24L-0.001,-24.639L0,-32.309Z" style="fill:rgb(128,130,133);fill-rule:nonzero;"/>
                        </g>
                        <g transform="matrix(1,0,0,1,56.8861,95.7644)">
                            <path d="M0,-20.807L21.808,-20.838C25.247,-20.843 27.094,-16.795 24.834,-14.201L14.033,-1.799C12.447,0.021 9.623,0.036 8.019,-1.768L-2.987,-14.138C-5.283,-16.719 -3.455,-20.802 0,-20.807" style="fill:rgb(108,110,112);fill-rule:nonzero;"/>
                        </g>
                        <g transform="matrix(1,0,0,1,116.734,84.4797)">
                            <path d="M0,-9.535L0,-14.86L-0.245,-14.86L-21.802,-2.422C-20.393,-0.885 -18.718,0.403 -16.849,1.368L-16.849,5.073L-16.827,5.073L-16.827,5.325L-0.812,5.325L-0.812,5.073L0,5.073L0,1.014C2.306,-0.302 4.287,-2.12 5.798,-4.291C3.396,-5.444 1.381,-7.274 0,-9.535" style="fill:rgb(223,196,146);fill-rule:nonzero;"/>
                        </g>
                        <g transform="matrix(1,0,0,1,99.8852,82.0579)">
                            <path d="M0,-15.414L0,-8.456L-0.057,-8.456C-1.1,-6.14 -2.767,-4.167 -4.843,-2.747L-5.56,-0.695C-5.363,-0.459 -5.161,-0.226 -4.953,0L16.577,-10.2L0,-15.414Z" style="fill:rgb(212,189,142);fill-rule:nonzero;"/>
                        </g>
                        <g transform="matrix(1,0,0,1,86.7484,50.4168)">
                            <path d="M0,-5.559C0,9.853 9.683,22.377 21.727,22.721L21.727,-28.28C9.891,-27.896 0,-20.755 0,-5.559" style="fill:rgb(239,214,158);fill-rule:nonzero;"/>
                        </g>
                        <g transform="matrix(1,0,0,1,109.487,73.1545)">
                            <path d="M0,-51.035C-0.339,-51.035 -0.677,-51.028 -1.012,-51.017L-1.012,-0.016C-0.844,-0.012 -0.676,0 -0.505,0C11.774,0 21.728,-12.669 21.728,-28.297C21.728,-43.925 12.279,-51.035 0,-51.035" style="fill:rgb(239,214,158);fill-rule:nonzero;"/>
                        </g>
                        <g transform="matrix(1,0,0,1,122.067,30.9727)">
                            <path d="M0,5.053C0,5.053 2.145,12.275 -12.256,11.011C-12.256,11.011 -17.432,15.159 -17.432,12.633C-17.432,12.633 -16.4,9.584 -19.937,10.343C-19.937,10.343 -21.979,12.633 -22.485,11.116C-22.485,11.116 -30.569,12.885 -30.822,16.675L-32.591,20.97L-38.655,13.896C-38.655,13.896 -40.929,-5.305 -22.99,-10.611C-5.053,-15.917 -1.263,-5.052 -1.263,-5.052C-1.263,-5.052 7.881,-4.628 10.383,12.718C10.383,12.718 6.062,15.664 6.569,19.453C6.569,19.453 0.758,13.643 0,5.053" style="fill:rgb(72,72,75);fill-rule:nonzero;"/>
                        </g>
                        <g transform="matrix(1,0,0,1,128.973,47.4882)">
                            <path d="M0,-0.855C-0.479,2.408 0.44,5.244 2.051,5.479C3.661,5.715 5.354,3.261 5.832,-0.001C6.31,-3.263 5.391,-6.098 3.78,-6.334C2.171,-6.57 0.478,-4.117 0,-0.855" style="fill:rgb(239,214,158);fill-rule:nonzero;"/>
                        </g>
                        <g transform="matrix(1,0,0,1,88.2553,46.8845)">
                            <path d="M0,-0.517C0.312,2.703 -0.634,5.429 -2.11,5.572C-3.588,5.715 -5.038,3.221 -5.351,0.001C-5.662,-3.22 -4.717,-5.946 -3.239,-6.089C-1.762,-6.232 -0.312,-3.738 0,-0.517" style="fill:rgb(239,214,158);fill-rule:nonzero;"/>
                        </g>
                        <g transform="matrix(1,0,0,1,98.6449,25.4494)">
                            <path d="M0,-12.576C-0.796,-12.187 -2.184,-11.372 -2.906,-10.905L0.472,0C0.951,-5.979 0.72,-10.387 0,-12.576" style="fill:rgb(6,103,56);fill-rule:nonzero;"/>
                        </g>
                        <g transform="matrix(1,0,0,1,117.632,25.4498)">
                            <path d="M0,-12.345C0.795,-11.957 2.063,-11.372 2.786,-10.906L-0.592,0C-1.07,-5.98 -0.721,-10.156 0,-12.345" style="fill:rgb(6,103,56);fill-rule:nonzero;"/>
                        </g>
                        <g transform="matrix(1,0,0,1,98.016,39.0936)">
                            <path d="M0,-26.77C0.72,-24.581 1.58,-19.624 1.101,-13.644L-2.277,-24.549C-12.315,-18.067 -15.368,-4.698 -15.368,-4.698L-7.085,2.222L10.06,0.704L10.06,-28.926C6.18,-28.992 2.849,-28.158 0,-26.77" style="fill:rgb(14,175,80);fill-rule:nonzero;"/>
                        </g>
                        <g transform="matrix(1,0,0,1,78.6029,39.2069)">
                            <path d="M0,0.353L10.827,5.798L29.874,5.798L29.874,-0.526L9.625,-0.526L4.011,-5.445C4.011,-5.445 0.603,-5.269 0,0.353" style="fill:rgb(6,103,56);fill-rule:nonzero;"/>
                        </g>
                        <g transform="matrix(1,0,0,1,118.142,39.0936)">
                            <path d="M0,-26.77C-0.721,-24.581 -1.58,-19.624 -1.102,-13.644L2.276,-24.549C12.314,-18.067 15.367,-4.698 15.367,-4.698L7.084,2.222L-10.061,0.704L-10.061,-28.926C-6.181,-28.992 -2.85,-28.158 0,-26.77" style="fill:rgb(14,175,80);fill-rule:nonzero;"/>
                        </g>
                        <g transform="matrix(1,0,0,1,137.554,39.2069)">
                            <path d="M0,0.353L-10.827,5.798L-29.874,5.798L-29.874,-0.526L-9.624,-0.526L-4.011,-5.445C-4.011,-5.445 -0.603,-5.269 0,0.353" style="fill:rgb(6,103,56);fill-rule:nonzero;"/>
                        </g>
                        <g transform="matrix(1,0,0,1,71.8754,96.9316)">
                            <path d="M0,-0.107L-0.035,0C-0.019,-0.029 -0.005,-0.059 0.011,-0.088L0,-0.107Z" style="fill:rgb(102,199,199);fill-rule:nonzero;"/>
                        </g>
                        <g transform="matrix(1,0,0,1,146.115,120.558)">
                            <path d="M0,-24.726L-0.018,-24.72L-2.977,-34.032C-2.977,-34.032 -5.036,-37.728 -8.75,-38.646L-9.756,-38.872C-10.321,-38.953 -10.887,-38.957 -11.439,-38.872L-18.341,-39.036C-19.712,-39.104 -21.025,-39.377 -22.261,-39.82L-24.862,-41.357L-24.602,-41.793L-25.689,-42.584C-37.963,-37.338 -50.434,-42.584 -50.434,-42.584L-51.077,-41.595L-50.901,-41.287L-52.613,-40.275C-52.624,-40.289 -52.635,-40.303 -52.646,-40.318C-54.306,-39.481 -56.159,-38.97 -58.123,-38.873L-58.123,-38.872L-65.894,-38.872L-65.885,-38.842C-69.035,-39.439 -72.63,-37.014 -74.229,-34.013C-74.244,-33.984 -74.258,-33.954 -74.274,-33.924L-75.166,-31.118L-83.061,-6.279L-85.793,7.27C-80.938,11.183 -75.58,14.497 -69.827,17.091L-64.523,-6.32L-64.219,17.761C-56.439,17.762 -47.298,17.595 -38.631,17.595C-28.51,17.595 -20.566,17.752 -10.961,17.858L-10.56,-2.076L-8.255,5.612L-5.064,15.063C0.525,12.108 5.69,8.459 10.314,4.224L0,-24.726Z" style="fill:rgb(14,33,44);fill-rule:nonzero;"/>
                        </g>
                        <g transform="matrix(-0.00648042,-0.999979,-0.999979,0.00648042,98.2017,87.9869)">
                            <path d="M-17.242,6.941L6.83,6.941C6.26,9.324 6.648,12.615 6.337,15.471L-17.175,17.287L-17.242,6.941Z" style="fill:rgb(6,103,56);fill-rule:nonzero;"/>
                        </g>
                        <g transform="matrix(-0.127995,-0.991775,-0.991775,0.127995,141.299,85.7713)">
                            <path d="M-18.629,8.022L5.2,8.022C6.01,10.869 5.53,12.296 7.053,16.379L-17.152,19.463L-18.629,8.022Z" style="fill:rgb(6,103,56);fill-rule:nonzero;"/>
                        </g>
                        <g transform="matrix(1,0,0,1,87.5297,134.119)">
                            <path d="M0,-23.126C0,-22.007 -0.54,-21.101 -1.206,-21.101L-3.216,-21.101C-3.882,-21.101 -4.422,-22.007 -4.422,-23.126L-4.422,-23.463C-4.422,-24.581 -3.882,-25.487 -3.216,-25.487L-1.206,-25.487C-0.54,-25.487 0,-24.581 0,-23.463L0,-23.126ZM19.954,4.034L19.954,-27.327L-6.57,-27.327L-6.57,4.201C1.181,4.201 19.661,4.037 19.954,4.034" style="fill:rgb(6,103,56);fill-rule:nonzero;"/>
                        </g>
                        <g transform="matrix(1,0,0,1,132.55,132.483)">
                            <path d="M0,-19.802L-1.964,-19.802C-2.614,-19.802 -3.142,-20.708 -3.142,-21.826L-3.142,-22.164C-3.142,-23.282 -2.614,-24.189 -1.964,-24.189L0,-24.189C0.651,-24.189 1.178,-23.282 1.178,-22.164L1.178,-21.826C1.178,-20.708 0.651,-19.802 0,-19.802M-25.066,-25.691L-25.066,5.671C-17.949,5.889 -7.099,5.875 3.076,5.731L3.076,-25.691L-25.066,-25.691Z" style="fill:rgb(6,103,56);fill-rule:nonzero;"/>
                        </g>
                    </g>
                </g>
            </g>
        </g>
    </g>
</svg>
