<?xml version="1.0" encoding="UTF-8" standalone="no"?>
<!DOCTYPE svg PUBLIC "-//W3C//DTD SVG 1.1//EN" "http://www.w3.org/Graphics/SVG/1.1/DTD/svg11.dtd">
<svg width="100%" height="100%" viewBox="0 0 250 42" version="1.1" xmlns="http://www.w3.org/2000/svg" xmlns:xlink="http://www.w3.org/1999/xlink" xml:space="preserve" xmlns:serif="http://www.serif.com/" style="fill-rule:evenodd;clip-rule:evenodd;stroke-linejoin:round;stroke-miterlimit:2;">
    <g transform="matrix(1,0,0,1,-2005,-318)">
        <g id="logo" transform="matrix(1.02628,0,0,0.714054,-52.6834,90.4231)">
            <rect x="2005" y="318.711" width="243.599" height="58.761" style="fill:none;"/>
            <clipPath id="_clip1">
                <rect x="2005" y="318.711" width="243.599" height="58.761"/>
            </clipPath>
            <g clip-path="url(#_clip1)">
                <g transform="matrix(0.139391,0,0,0.20034,1365.13,158.709)">
                    <g transform="matrix(0.873798,0,0,0.873798,-123.701,754.985)">
                        <path d="M5692.12,49.976L5692.12,217.488L5792.14,50.788L5792.14,49.976L5891.18,49.976C5891.18,49.976 5891.18,281.64 5891.18,281.64L5891.42,281.64L5891.42,380.924L5759.04,380.924L5792.14,325.767L5792.14,215.037L5692.61,380.924L5593.08,380.924L5593.08,215.037L5493.55,380.924L5395,380.924L5593.08,50.788L5593.08,49.976L5692.12,49.976Z" style="fill:rgb(0,122,51);"/>
                    </g>
                    <g transform="matrix(1.63595,0,0,1.63595,4636.51,403.46)">
                        <path d="M284.863,346.365L284.863,243.334L309.296,243.334L336.379,286.902L363.461,243.334L387.894,243.334L387.894,346.365L365.375,346.365L365.375,279.101L336.379,323.11L335.79,323.11L307.089,279.542L307.089,346.365L284.863,346.365Z" style="fill:rgb(21,71,52);fill-rule:nonzero;"/>
                        <path d="M403.791,346.365L447.947,242.598L468.847,242.598L513.003,346.365L489.306,346.365L479.886,323.257L436.319,323.257L426.899,346.365L403.791,346.365ZM444.414,303.24L471.791,303.24L458.103,269.828L444.414,303.24Z" style="fill:rgb(21,71,52);fill-rule:nonzero;"/>
                        <path d="M552.302,347.837C538.467,347.837 527.232,342.686 518.597,332.383L532.874,316.486C539.154,323.355 545.434,326.789 551.714,326.789C560.937,326.789 565.549,321.098 565.549,309.716L565.549,243.334L588.805,243.334L588.805,310.746C588.805,322.619 585.567,331.794 579.09,338.27C572.712,344.648 563.783,347.837 552.302,347.837Z" style="fill:rgb(21,71,52);fill-rule:nonzero;"/>
                        <path d="M611.913,346.365L611.913,243.334L689.628,243.334L689.628,263.499L634.433,263.499L634.433,284.4L683.005,284.4L683.005,304.564L634.433,304.564L634.433,326.201L690.364,326.201L690.364,346.365L611.913,346.365Z" style="fill:rgb(21,71,52);fill-rule:nonzero;"/>
                        <path d="M747.178,347.837C730.301,347.837 715.729,342.342 703.464,331.352L716.858,315.309C726.964,323.649 737.218,327.82 747.62,327.82C752.232,327.82 755.862,326.961 758.511,325.244C761.161,323.527 762.486,321.147 762.486,318.105L762.486,317.811C762.486,314.867 761.112,312.488 758.364,310.672C755.617,308.857 750.073,306.87 741.732,304.711C735.845,303.24 731.086,301.792 727.455,300.369C723.824,298.947 720.366,297.058 717.078,294.703C713.791,292.348 711.387,289.428 709.866,285.945C708.345,282.462 707.585,278.218 707.585,273.213L707.585,272.919C707.585,263.597 710.946,256.091 717.667,250.399C724.389,244.708 733.048,241.862 743.646,241.862C758.266,241.862 771.022,246.229 781.914,254.962L770.139,272.036C760.425,265.265 751.496,261.88 743.351,261.88C739.132,261.88 735.869,262.714 733.563,264.382C731.257,266.05 730.104,268.209 730.104,270.858L730.104,271.153C730.104,274.489 731.527,276.991 734.373,278.659C737.218,280.327 743.204,282.339 752.33,284.694C763.516,287.638 771.758,291.391 777.057,295.954C782.356,300.517 785.005,307.066 785.005,315.603L785.005,315.898C785.005,325.906 781.546,333.732 774.628,339.374C767.711,345.016 758.561,347.837 747.178,347.837Z" style="fill:rgb(21,71,52);fill-rule:nonzero;"/>
                        <path d="M828.72,346.365L828.72,264.235L797.369,264.235L797.369,243.334L882.737,243.334L882.737,264.235L851.387,264.235L851.387,346.365L828.72,346.365Z" style="fill:rgb(21,71,52);fill-rule:nonzero;"/>
                        <rect x="901.136" y="243.334" width="22.667" height="103.031" style="fill:rgb(21,71,52);fill-rule:nonzero;"/>
                        <path d="M997.838,348.132C982.727,348.132 970.142,343.029 960.084,332.824C950.026,322.619 944.998,310.059 944.998,295.144L944.998,294.85C944.998,279.935 950.051,267.326 960.158,257.023C970.265,246.72 983.119,241.568 998.721,241.568C1007.85,241.568 1015.6,242.917 1021.98,245.616C1028.36,248.314 1034.14,252.264 1039.34,257.464L1024.92,274.096C1016.38,266.345 1007.6,262.469 998.574,262.469C990.037,262.469 982.923,265.584 977.232,271.815C971.54,278.046 968.695,285.626 968.695,294.555L968.695,294.85C968.695,303.877 971.516,311.531 977.158,317.811C982.8,324.091 989.939,327.231 998.574,327.231C1004.07,327.231 1008.83,326.25 1012.85,324.287C1016.87,322.325 1021.14,319.283 1025.66,315.162L1040.08,329.733C1034.39,335.817 1028.28,340.404 1021.76,343.495C1015.23,346.586 1007.26,348.132 997.838,348.132Z" style="fill:rgb(21,71,52);fill-rule:nonzero;"/>
                        <path d="M285.365,417.447L294.316,417.447L294.316,380.46L310.517,404.724L310.813,404.724L327.161,380.312L327.161,417.447L336.26,417.447L336.26,365.665L326.569,365.665L310.813,390.151L295.056,365.665L285.365,365.665L285.365,417.447Z" style="fill:rgb(21,71,52);fill-rule:nonzero;"/>
                        <path d="M345.137,417.447L354.458,417.447L359.784,404.946L384.27,404.946L389.522,417.447L399.139,417.447L376.354,365.295L367.921,365.295L345.137,417.447ZM363.113,396.882L371.99,376.169L380.941,396.882L363.113,396.882Z" style="fill:rgb(21,71,52);fill-rule:nonzero;"/>
                        <path d="M408.016,417.447L417.114,417.447L417.114,399.398L428.507,399.398L441.23,417.447L451.957,417.447L437.975,397.844C445.225,395.773 450.329,390.669 450.329,382.161L450.329,382.013C450.329,377.501 448.776,373.654 446.039,370.843C442.71,367.588 437.605,365.665 431.096,365.665L408.016,365.665L408.016,417.447ZM417.114,391.334L417.114,373.95L430.356,373.95C437.088,373.95 441.082,376.983 441.082,382.531L441.082,382.679C441.082,387.931 436.94,391.334 430.43,391.334L417.114,391.334Z" style="fill:rgb(21,71,52);fill-rule:nonzero;"/>
                        <rect x="462.017" y="365.665" width="9.099" height="51.782" style="fill:rgb(21,71,52);fill-rule:nonzero;"/>
                        <path d="M497.673,417.447L506.846,417.447L506.846,374.098L523.268,374.098L523.268,365.665L481.251,365.665L481.251,374.098L497.673,374.098L497.673,417.447Z" style="fill:rgb(21,71,52);fill-rule:nonzero;"/>
                        <rect x="533.403" y="365.665" width="9.099" height="51.782" style="fill:rgb(21,71,52);fill-rule:nonzero;"/>
                        <path d="M556.335,417.447L565.286,417.447L565.286,380.46L581.487,404.724L581.782,404.724L598.131,380.312L598.131,417.447L607.23,417.447L607.23,365.665L597.539,365.665L581.782,390.151L566.026,365.665L556.335,365.665L556.335,417.447Z" style="fill:rgb(21,71,52);fill-rule:nonzero;"/>
                        <path d="M620.545,417.447L659.308,417.447L659.308,409.31L629.644,409.31L629.644,395.403L655.609,395.403L655.609,387.266L629.644,387.266L629.644,373.802L658.938,373.802L658.938,365.665L620.545,365.665L620.545,417.447Z" style="fill:rgb(21,71,52);fill-rule:nonzero;"/>
                        <path d="M688.676,418.187C698.663,418.187 705.838,412.417 705.838,404.058L705.838,403.91C705.838,396.365 700.808,392.074 688.824,389.633C676.544,387.118 673.733,383.789 673.733,378.315L673.733,378.167C673.733,372.767 678.764,368.402 686.383,368.402C692.079,368.402 696.961,370.03 701.844,374.246L704.285,371.213C699.033,366.997 694.076,364.925 686.531,364.925C676.914,364.925 669.887,370.843 669.887,378.537L669.887,378.685C669.887,386.526 674.917,390.742 687.345,393.258C699.107,395.625 701.992,398.806 701.992,404.28L701.992,404.428C701.992,410.346 696.665,414.71 688.898,414.71C681.279,414.71 676.026,412.269 670.33,407.017L667.815,409.902C674.029,415.45 680.391,418.187 688.676,418.187Z" style="fill:rgb(21,71,52);fill-rule:nonzero;"/>
                        <path d="M718.488,417.447L755.697,417.447L755.697,413.897L722.335,413.897L722.335,393.11L751.999,393.11L751.999,389.559L722.335,389.559L722.335,369.216L755.328,369.216L755.328,365.665L718.488,365.665L718.488,417.447Z" style="fill:rgb(21,71,52);fill-rule:nonzero;"/>
                        <path d="M768.051,417.447L771.898,417.447L771.898,395.995L788.838,395.995L805.335,417.447L810.217,417.447L793.129,395.329C801.858,394.145 808.294,389.189 808.294,380.534L808.294,380.386C808.294,376.687 806.814,373.21 804.373,370.769C801.266,367.662 796.162,365.665 789.8,365.665L768.051,365.665L768.051,417.447ZM771.898,392.518L771.898,369.216L789.578,369.216C798.973,369.216 804.447,373.58 804.447,380.534L804.447,380.682C804.447,388.153 798.011,392.518 789.356,392.518L771.898,392.518Z" style="fill:rgb(21,71,52);fill-rule:nonzero;"/>
                        <path d="M838.401,417.817L841.804,417.817L864.588,365.665L860.52,365.665L840.177,413.305L819.908,365.665L815.617,365.665L838.401,417.817Z" style="fill:rgb(21,71,52);fill-rule:nonzero;"/>
                        <rect x="876.055" y="365.665" width="3.847" height="51.782" style="fill:rgb(21,71,52);fill-rule:nonzero;"/>
                        <path d="M919.256,418.335C928.429,418.335 934.347,414.71 939.821,409.31L937.232,406.795C931.979,411.973 926.875,414.858 919.404,414.858C907.05,414.858 897.507,404.65 897.507,391.556L897.507,391.408C897.507,378.389 906.902,368.254 919.33,368.254C927.097,368.254 932.275,371.509 936.788,375.874L939.525,373.062C934.199,368.18 928.651,364.777 919.404,364.777C904.461,364.777 893.513,376.909 893.513,391.556L893.513,391.704C893.513,406.573 904.461,418.335 919.256,418.335Z" style="fill:rgb(21,71,52);fill-rule:nonzero;"/>
                        <path d="M950.399,417.447L987.609,417.447L987.609,413.897L954.246,413.897L954.246,393.11L983.91,393.11L983.91,389.559L954.246,389.559L954.246,369.216L987.239,369.216L987.239,365.665L950.399,365.665L950.399,417.447Z" style="fill:rgb(21,71,52);fill-rule:nonzero;"/>
                        <path d="M1017.49,418.187C1027.48,418.187 1034.66,412.417 1034.66,404.058L1034.66,403.91C1034.66,396.365 1029.63,392.074 1017.64,389.633C1005.36,387.118 1002.55,383.789 1002.55,378.315L1002.55,378.167C1002.55,372.767 1007.58,368.402 1015.2,368.402C1020.9,368.402 1025.78,370.03 1030.66,374.246L1033.1,371.213C1027.85,366.997 1022.89,364.925 1015.35,364.925C1005.73,364.925 998.705,370.843 998.705,378.537L998.705,378.685C998.705,386.526 1003.74,390.742 1016.16,393.258C1027.92,395.625 1030.81,398.806 1030.81,404.28L1030.81,404.428C1030.81,410.346 1025.48,414.71 1017.72,414.71C1010.1,414.71 1004.85,412.269 999.149,407.017L996.634,409.902C1002.85,415.45 1009.21,418.187 1017.49,418.187Z" style="fill:rgb(21,71,52);fill-rule:nonzero;"/>
                    </g>
                </g>
            </g>
        </g>
    </g>
</svg>
