<?xml version="1.0" encoding="UTF-8" standalone="no"?>
<!DOCTYPE svg PUBLIC "-//W3C//DTD SVG 1.1//EN" "http://www.w3.org/Graphics/SVG/1.1/DTD/svg11.dtd">
<svg width="100%" height="100%" viewBox="0 0 500 500" version="1.1" xmlns="http://www.w3.org/2000/svg" xmlns:xlink="http://www.w3.org/1999/xlink" xml:space="preserve" xmlns:serif="http://www.serif.com/" style="fill-rule:evenodd;clip-rule:evenodd;stroke-linejoin:round;stroke-miterlimit:2;">
    <g transform="matrix(1,0,0,1,-2677,0)">
        <g transform="matrix(1,0,0,1,-0.310256,0)">
            <rect id="services" x="2677.31" y="0" width="500" height="500" style="fill:none;"/>
            <g id="services1" serif:id="services">
                <g transform="matrix(2.95276,0,0,2.95276,2632.03,-45.2765)">
                    <g id="Layer-1" serif:id="Layer 1">
                        <g transform="matrix(1,0,0,1,180,100.001)">
                            <path d="M0,-0.001C0,44.183 -35.819,79.996 -79.997,79.996C-124.185,79.996 -160,44.183 -160,-0.001C-160,-44.184 -124.185,-79.997 -79.997,-79.997C-35.819,-79.997 0,-44.184 0,-0.001" style="fill:rgb(51,129,81);fill-rule:nonzero;"/>
                        </g>
                        <g transform="matrix(1,0,0,1,0,-18.066)">
                            <path d="M87.31,58.744L62.285,83.989L62.285,159.319L137.716,159.319L137.716,58.744L87.31,58.744Z" style="fill:rgb(230,230,230);fill-rule:nonzero;"/>
                        </g>
                        <g>
                            <clipPath id="_clip1">
                                <rect x="97.486" y="50.735" width="27.658" height="15.086" clip-rule="nonzero"/>
                            </clipPath>
                            <g clip-path="url(#_clip1)">
                                <g transform="matrix(1,0,0,1,0,-83.444)">
                                    <rect x="97.486" y="134.179" width="27.658" height="15.086" style="fill:rgb(14,175,80);"/>
                                </g>
                                <g transform="matrix(1,0,0,1,0,-16.951)">
                                    <rect x="49.573" y="57.629" width="101.693" height="101.693" style="fill:rgb(14,175,80);"/>
                                </g>
                                <g transform="matrix(1,0,0,1,0,-83.443)">
                                    <rect x="94.943" y="131.636" width="32.743" height="20.171" style="fill:rgb(14,175,80);"/>
                                </g>
                            </g>
                        </g>
                        <g transform="matrix(1,0,0,1,0,-28.798)">
                            <rect x="97.486" y="112.699" width="27.658" height="3.4" style="fill:rgb(88,89,91);"/>
                        </g>
                        <g>
                            <clipPath id="_clip2">
                                <rect x="97.486" y="83.9" width="27.658" height="3.4" clip-rule="nonzero"/>
                            </clipPath>
                            <g clip-path="url(#_clip2)">
                                <g transform="matrix(1,0,0,1,0,-13.813)">
                                    <rect x="49.573" y="95.447" width="101.693" height="22.919" style="fill:rgb(88,89,91);"/>
                                </g>
                                <g transform="matrix(1,0,0,1,0,-28.798)">
                                    <rect x="94.943" y="112.126" width="32.743" height="4.546" style="fill:rgb(88,89,91);"/>
                                </g>
                            </g>
                        </g>
                        <g>
                            <clipPath id="_clip3">
                                <rect x="97.486" y="79.051" width="27.658" height="3.399" clip-rule="nonzero"/>
                            </clipPath>
                            <g clip-path="url(#_clip3)">
                                <g transform="matrix(1,0,0,1,0,-38.499)">
                                    <rect x="97.486" y="117.55" width="27.658" height="3.399" style="fill:rgb(88,89,91);"/>
                                </g>
                                <g transform="matrix(1,0,0,1,0,-23.514)">
                                    <rect x="49.573" y="100.298" width="101.693" height="22.918" style="fill:rgb(88,89,91);"/>
                                </g>
                                <g transform="matrix(1,0,0,1,0,-38.5)">
                                    <rect x="94.943" y="116.977" width="32.743" height="4.546" style="fill:rgb(88,89,91);"/>
                                </g>
                            </g>
                        </g>
                        <g>
                            <clipPath id="_clip4">
                                <rect x="97.486" y="74.2" width="27.658" height="3.4" clip-rule="nonzero"/>
                            </clipPath>
                            <g clip-path="url(#_clip4)">
                                <g transform="matrix(1,0,0,1,0,-48.2)">
                                    <rect x="97.486" y="122.4" width="27.658" height="3.4" style="fill:rgb(88,89,91);"/>
                                </g>
                                <g transform="matrix(1,0,0,1,0,-33.215)">
                                    <rect x="49.573" y="105.148" width="101.693" height="22.919" style="fill:rgb(88,89,91);"/>
                                </g>
                                <g transform="matrix(1,0,0,1,0,-48.2)">
                                    <rect x="94.943" y="121.827" width="32.743" height="4.546" style="fill:rgb(88,89,91);"/>
                                </g>
                            </g>
                        </g>
                        <g transform="matrix(1,0,0,1,0,-93.499)">
                            <path d="M62.285,159.321L87.428,159.321L87.428,134.177L62.285,159.321Z" style="fill:rgb(128,129,129);fill-rule:nonzero;"/>
                        </g>
                        <g transform="matrix(-0.707107,-0.707107,-0.707107,0.707107,77.2021,79.0227)">
                            <rect x="-5.762" y="2.387" width="8.111" height="3.28" style="fill:rgb(14,175,80);"/>
                        </g>
                        <g>
                            <clipPath id="_clip5">
                                <path d="M71.534,81.37L77.269,87.104L79.589,84.785L73.854,79.051L71.534,81.37Z" clip-rule="nonzero"/>
                            </clipPath>
                            <g clip-path="url(#_clip5)">
                                <g transform="matrix(1,0,0,1,0,-51.333)">
                                    <rect x="56.881" y="103.55" width="44.233" height="44.233" style="fill:rgb(14,175,80);"/>
                                </g>
                                <g transform="matrix(1,0,0,1,0,-33.846)">
                                    <rect x="70.429" y="111.79" width="10.266" height="10.266" style="fill:rgb(14,175,80);"/>
                                </g>
                            </g>
                        </g>
                        <g transform="matrix(-0.707412,-0.706802,-0.706802,0.707412,91.0426,78.1132)">
                            <rect x="3.381" y="-1.404" width="3.289" height="17.499" style="fill:rgb(14,175,80);"/>
                        </g>
                        <g>
                            <clipPath id="_clip6">
                                <path d="M74.947,84.785L77.269,87.104L89.642,74.732L87.322,72.411L74.947,84.785Z" clip-rule="nonzero"/>
                            </clipPath>
                            <g clip-path="url(#_clip6)">
                                <g transform="matrix(1,0,0,1,0,-51.333)">
                                    <rect x="56.881" y="103.55" width="44.233" height="44.233" style="fill:rgb(14,175,80);"/>
                                </g>
                                <g transform="matrix(1,0,0,1,0,-40.485)">
                                    <rect x="73.842" y="111.79" width="16.906" height="16.905" style="fill:rgb(14,175,80);"/>
                                </g>
                            </g>
                        </g>
                        <g>
                            <clipPath id="_clip7">
                                <rect x="97.486" y="104.544" width="27.658" height="3.4" clip-rule="nonzero"/>
                            </clipPath>
                            <g clip-path="url(#_clip7)">
                                <g transform="matrix(1,0,0,1,0,12.488)">
                                    <rect x="97.486" y="92.056" width="27.658" height="3.4" style="fill:rgb(88,89,91);"/>
                                </g>
                                <g transform="matrix(1,0,0,1,0,27.473)">
                                    <rect x="49.573" y="74.804" width="101.693" height="22.919" style="fill:rgb(88,89,91);"/>
                                </g>
                                <g transform="matrix(1,0,0,1,0,12.488)">
                                    <rect x="94.943" y="91.483" width="32.743" height="4.546" style="fill:rgb(88,89,91);"/>
                                </g>
                            </g>
                        </g>
                        <g transform="matrix(1,0,0,1,0,2.789)">
                            <rect x="97.486" y="96.906" width="27.658" height="3.399" style="fill:rgb(88,89,91);"/>
                        </g>
                        <g>
                            <clipPath id="_clip8">
                                <rect x="97.486" y="99.694" width="27.658" height="3.399" clip-rule="nonzero"/>
                            </clipPath>
                            <g clip-path="url(#_clip8)">
                                <g transform="matrix(1,0,0,1,0,17.774)">
                                    <rect x="49.573" y="79.654" width="101.693" height="22.918" style="fill:rgb(88,89,91);"/>
                                </g>
                                <g transform="matrix(1,0,0,1,0,2.788)">
                                    <rect x="94.943" y="96.333" width="32.743" height="4.546" style="fill:rgb(88,89,91);"/>
                                </g>
                            </g>
                        </g>
                        <g>
                            <clipPath id="_clip9">
                                <rect x="97.486" y="94.844" width="27.658" height="3.4" clip-rule="nonzero"/>
                            </clipPath>
                            <g clip-path="url(#_clip9)">
                                <g transform="matrix(1,0,0,1,0,-6.912)">
                                    <rect x="97.486" y="101.756" width="27.658" height="3.4" style="fill:rgb(88,89,91);"/>
                                </g>
                                <g transform="matrix(1,0,0,1,0,8.073)">
                                    <rect x="49.573" y="84.504" width="101.693" height="22.919" style="fill:rgb(88,89,91);"/>
                                </g>
                                <g transform="matrix(1,0,0,1,0,-6.913)">
                                    <rect x="94.943" y="101.183" width="32.743" height="4.547" style="fill:rgb(88,89,91);"/>
                                </g>
                            </g>
                        </g>
                        <g transform="matrix(-0.707107,-0.707107,-0.707107,0.707107,77.2021,99.6663)">
                            <rect x="-5.762" y="2.387" width="8.111" height="3.28" style="fill:rgb(14,175,80);"/>
                        </g>
                        <g>
                            <clipPath id="_clip10">
                                <path d="M71.534,102.013L77.269,107.748L79.589,105.429L73.854,99.694L71.534,102.013Z" clip-rule="nonzero"/>
                            </clipPath>
                            <g clip-path="url(#_clip10)">
                                <g transform="matrix(1,0,0,1,0,-10.045)">
                                    <rect x="56.881" y="82.906" width="44.233" height="44.233" style="fill:rgb(14,175,80);"/>
                                </g>
                                <g transform="matrix(1,0,0,1,0,7.44)">
                                    <rect x="70.429" y="91.147" width="10.266" height="10.266" style="fill:rgb(14,175,80);"/>
                                </g>
                            </g>
                        </g>
                        <g transform="matrix(-0.707412,-0.706802,-0.706802,0.707412,91.0426,98.7568)">
                            <rect x="3.381" y="-1.404" width="3.289" height="17.499" style="fill:rgb(14,175,80);"/>
                        </g>
                        <g>
                            <clipPath id="_clip11">
                                <path d="M74.947,105.429L77.269,107.748L89.642,95.375L87.322,93.055L74.947,105.429Z" clip-rule="nonzero"/>
                            </clipPath>
                            <g clip-path="url(#_clip11)">
                                <g transform="matrix(1,0,0,1,0,-10.045)">
                                    <rect x="56.881" y="82.906" width="44.233" height="44.233" style="fill:rgb(14,175,80);"/>
                                </g>
                                <g transform="matrix(1,0,0,1,0,0.801)">
                                    <rect x="73.842" y="91.147" width="16.906" height="16.905" style="fill:rgb(14,175,80);"/>
                                </g>
                            </g>
                        </g>
                        <g>
                            <clipPath id="_clip12">
                                <rect x="97.486" y="125.188" width="27.658" height="3.4" clip-rule="nonzero"/>
                            </clipPath>
                            <g clip-path="url(#_clip12)">
                                <g transform="matrix(1,0,0,1,0,53.776)">
                                    <rect x="97.486" y="71.412" width="27.658" height="3.4" style="fill:rgb(88,89,91);"/>
                                </g>
                                <g transform="matrix(1,0,0,1,0,68.761)">
                                    <rect x="49.573" y="54.16" width="101.693" height="22.919" style="fill:rgb(88,89,91);"/>
                                </g>
                                <g transform="matrix(1,0,0,1,0,53.776)">
                                    <rect x="94.943" y="70.839" width="32.743" height="4.546" style="fill:rgb(88,89,91);"/>
                                </g>
                            </g>
                        </g>
                        <g>
                            <clipPath id="_clip13">
                                <rect x="97.486" y="120.338" width="27.658" height="3.399" clip-rule="nonzero"/>
                            </clipPath>
                            <g clip-path="url(#_clip13)">
                                <g transform="matrix(1,0,0,1,0,44.075)">
                                    <rect x="97.486" y="76.263" width="27.658" height="3.399" style="fill:rgb(88,89,91);"/>
                                </g>
                                <g transform="matrix(1,0,0,1,0,59.06)">
                                    <rect x="49.573" y="59.011" width="101.693" height="22.918" style="fill:rgb(88,89,91);"/>
                                </g>
                                <g transform="matrix(1,0,0,1,0,44.074)">
                                    <rect x="94.943" y="75.69" width="32.743" height="4.546" style="fill:rgb(88,89,91);"/>
                                </g>
                            </g>
                        </g>
                        <g transform="matrix(1,0,0,1,0,34.376)">
                            <rect x="97.486" y="81.112" width="27.658" height="3.4" style="fill:rgb(88,89,91);"/>
                        </g>
                        <g>
                            <clipPath id="_clip14">
                                <rect x="97.486" y="115.487" width="27.658" height="3.4" clip-rule="nonzero"/>
                            </clipPath>
                            <g clip-path="url(#_clip14)">
                                <g transform="matrix(1,0,0,1,0,49.359)">
                                    <rect x="49.573" y="63.861" width="101.693" height="22.919" style="fill:rgb(88,89,91);"/>
                                </g>
                                <g transform="matrix(1,0,0,1,0,34.375)">
                                    <rect x="94.943" y="80.539" width="32.743" height="4.547" style="fill:rgb(88,89,91);"/>
                                </g>
                            </g>
                        </g>
                        <g transform="matrix(-0.707107,-0.707107,-0.707107,0.707107,77.2021,120.31)">
                            <rect x="-5.762" y="2.387" width="8.111" height="3.28" style="fill:rgb(14,175,80);"/>
                        </g>
                        <g>
                            <clipPath id="_clip15">
                                <path d="M71.534,122.657L77.269,128.391L79.589,126.072L73.854,120.337L71.534,122.657Z" clip-rule="nonzero"/>
                            </clipPath>
                            <g clip-path="url(#_clip15)">
                                <g transform="matrix(1,0,0,1,0,31.241)">
                                    <rect x="56.881" y="62.263" width="44.233" height="44.233" style="fill:rgb(14,175,80);"/>
                                </g>
                                <g transform="matrix(1,0,0,1,0,48.728)">
                                    <rect x="70.429" y="70.503" width="10.266" height="10.266" style="fill:rgb(14,175,80);"/>
                                </g>
                            </g>
                        </g>
                        <g transform="matrix(-0.707412,-0.706802,-0.706802,0.707412,91.0426,119.4)">
                            <rect x="3.381" y="-1.404" width="3.289" height="17.499" style="fill:rgb(14,175,80);"/>
                        </g>
                        <g>
                            <clipPath id="_clip16">
                                <path d="M74.947,126.072L77.269,128.391L89.642,116.018L87.322,113.698L74.947,126.072Z" clip-rule="nonzero"/>
                            </clipPath>
                            <g clip-path="url(#_clip16)">
                                <g transform="matrix(1,0,0,1,0,31.241)">
                                    <rect x="56.881" y="62.263" width="44.233" height="44.233" style="fill:rgb(14,175,80);"/>
                                </g>
                                <g transform="matrix(1,0,0,1,0,42.089)">
                                    <rect x="73.842" y="70.503" width="16.906" height="16.905" style="fill:rgb(14,175,80);"/>
                                </g>
                            </g>
                        </g>
                        <g transform="matrix(1,0,0,1,106.812,118.877)">
                            <rect x="-17.34" y="-4.452" width="17.34" height="4.452" style="fill:rgb(242,124,69);fill-rule:nonzero;"/>
                        </g>
                        <g transform="matrix(1,0,0,1,98.4541,126.822)">
                            <path d="M0,-2.203L17.675,3.798L17.675,-6.001L-18.3,-6.001L-18.3,3.798L-0.625,-2.203C-0.422,-2.272 -0.203,-2.272 0,-2.203" style="fill:rgb(221,221,221);fill-rule:nonzero;"/>
                        </g>
                        <g transform="matrix(1,0,0,1,102.063,131.943)">
                            <circle cx="0" cy="-0.714" r="0.714" style="fill:white;"/>
                        </g>
                        <g transform="matrix(1,0,0,1,94.2344,131.943)">
                            <ellipse cx="0.001" cy="-0.714" rx="0.714" ry="0.714" style="fill:white;"/>
                        </g>
                        <g transform="matrix(1,0,0,1,101.102,112.376)">
                            <path d="M0,-3.324C-0.375,-3.504 -1.419,-3.753 -2.961,-3.753C-4.503,-3.753 -5.547,-3.504 -5.922,-3.324L-5.922,0.429L0,0.429L0,-3.324Z" style="fill:rgb(106,105,106);fill-rule:nonzero;"/>
                        </g>
                        <g transform="matrix(1,0,0,1,102.063,151.573)">
                            <path d="M0,-18.335C-1.108,-18.335 -2.01,-19.236 -2.01,-20.344C-2.01,-21.452 -1.108,-22.354 0,-22.354C1.108,-22.354 2.01,-21.452 2.01,-20.344C2.01,-19.236 1.108,-18.335 0,-18.335M-7.829,-18.335C-8.937,-18.335 -9.838,-19.236 -9.838,-20.344C-9.838,-21.452 -8.937,-22.354 -7.829,-22.354C-6.72,-22.354 -5.818,-21.452 -5.818,-20.344C-5.818,-19.236 -6.72,-18.335 -7.829,-18.335M16.709,-11.818L16.709,-18.004L-3.273,-24.787L-3.273,-4.281C-3.273,-3.924 -3.563,-3.634 -3.921,-3.634C-4.279,-3.634 -4.569,-3.924 -4.569,-4.281L-4.569,-24.787L-24.552,-18.004L-24.552,-11.818C-24.552,-10.697 -24.28,-9.578 -23.767,-8.582L-16.176,6.131C-15.767,6.343 -15.392,6.452 -15.06,6.452C-14.186,6.452 -13.043,5.681 -11.845,4.28C-11.294,3.638 -10.489,3.26 -9.636,3.246C-8.768,3.255 -7.896,3.602 -7.293,4.261C-6.002,5.674 -4.805,6.452 -3.921,6.452C-3.047,6.452 -1.905,5.681 -0.707,4.28C-0.156,3.638 0.649,3.26 1.502,3.246C2.408,3.239 3.243,3.602 3.845,4.261C5.136,5.674 6.333,6.452 7.217,6.452C7.556,6.452 7.937,6.333 8.344,6.109L15.924,-8.582C16.437,-9.578 16.709,-10.697 16.709,-11.818" style="fill:rgb(106,105,106);fill-rule:nonzero;"/>
                        </g>
                        <g transform="matrix(1,0,0,1,94.2344,130.514)">
                            <path d="M0,1.429C-0.394,1.429 -0.713,1.109 -0.713,0.715C-0.713,0.322 -0.394,0.001 0,0.001C0.394,0.001 0.714,0.322 0.714,0.715C0.714,1.109 0.394,1.429 0,1.429M0,-1.295C-1.108,-1.295 -2.009,-0.393 -2.009,0.715C-2.009,1.823 -1.108,2.724 0,2.724C1.108,2.724 2.01,1.823 2.01,0.715C2.01,-0.393 1.108,-1.295 0,-1.295" style="fill:rgb(51,51,51);fill-rule:nonzero;"/>
                        </g>
                        <g transform="matrix(1,0,0,1,102.063,130.514)">
                            <path d="M0,1.429C-0.394,1.429 -0.714,1.109 -0.714,0.715C-0.714,0.322 -0.394,0.001 0,0.001C0.394,0.001 0.714,0.322 0.714,0.715C0.714,1.109 0.394,1.429 0,1.429M0,-1.295C-1.108,-1.295 -2.01,-0.393 -2.01,0.715C-2.01,1.823 -1.108,2.724 0,2.724C1.108,2.724 2.01,1.823 2.01,0.715C2.01,-0.393 1.108,-1.295 0,-1.295" style="fill:rgb(51,51,51);fill-rule:nonzero;"/>
                        </g>
                        <g transform="matrix(1,0,0,1,110.407,108.641)">
                            <path d="M0,49.041C-0.407,49.265 -0.788,49.384 -1.127,49.384C-2.01,49.384 -3.208,48.605 -4.499,47.192C-5.101,46.534 -5.936,46.171 -6.842,46.178C-7.694,46.191 -8.5,46.569 -9.05,47.212C-10.249,48.612 -11.391,49.384 -12.265,49.384C-13.148,49.384 -14.346,48.605 -15.637,47.192C-16.24,46.534 -17.111,46.187 -17.98,46.178C-18.833,46.191 -19.638,46.569 -20.188,47.212C-21.387,48.612 -22.529,49.384 -23.403,49.384C-23.735,49.384 -24.111,49.274 -24.52,49.062L-32.11,34.35C-32.624,33.353 -32.896,32.234 -32.896,31.113L-32.896,24.928L-12.913,18.145L-12.913,38.65C-12.913,39.008 -12.623,39.298 -12.265,39.298C-11.907,39.298 -11.617,39.008 -11.617,38.65L-11.617,18.145L8.365,24.928L8.365,31.113C8.365,32.234 8.094,33.353 7.58,34.35L0,49.041ZM-30.253,12.18L5.723,12.18L5.723,21.979L-11.953,15.978C-12.156,15.908 -12.375,15.908 -12.578,15.978L-30.253,21.979L-30.253,12.18ZM-20.935,5.783L-3.595,5.783L-3.595,10.235L-20.935,10.235L-20.935,5.783ZM-15.227,0.41C-14.852,0.23 -13.807,-0.019 -12.265,-0.019C-10.724,-0.019 -9.679,0.23 -9.304,0.41L-9.304,4.163L-15.227,4.163L-15.227,0.41ZM17.611,47.677C17.064,46.972 16.239,46.547 15.348,46.512C14.447,46.469 13.571,46.842 12.957,47.518C11.846,48.738 10.828,49.384 10.012,49.384C9.128,49.384 7.931,48.605 6.64,47.192C6.038,46.534 5.193,46.171 4.297,46.178C4.064,46.182 3.836,46.218 3.615,46.273L9.307,35.24C9.963,33.97 10.309,32.543 10.309,31.113L10.309,24.231C10.309,23.815 10.044,23.445 9.65,23.312L7.667,22.638L7.667,11.207C7.667,10.671 7.231,10.235 6.695,10.235L-1.976,10.235L-1.976,4.973C-1.976,4.525 -2.338,4.163 -2.785,4.163L-7.685,4.163L-7.685,0.154C-7.685,-1.464 -10.888,-1.639 -12.265,-1.639C-13.643,-1.639 -16.846,-1.464 -16.846,0.154L-16.846,4.163L-21.745,4.163C-22.192,4.163 -22.555,4.525 -22.555,4.973L-22.555,10.235L-31.225,10.235C-31.762,10.235 -32.197,10.671 -32.197,11.207L-32.197,22.638L-34.18,23.312C-34.575,23.445 -34.84,23.815 -34.84,24.231L-34.84,31.113C-34.84,32.543 -34.493,33.971 -33.838,35.24L-28.106,46.35C-28.428,46.244 -28.765,46.175 -29.119,46.178C-29.972,46.191 -30.776,46.569 -31.327,47.212C-32.526,48.612 -33.668,49.384 -34.542,49.384C-35.363,49.384 -36.424,48.737 -37.611,47.515C-38.232,46.875 -39.064,46.548 -39.938,46.592C-40.833,46.638 -41.671,47.075 -42.24,47.795C-42.283,47.849 -42.326,47.897 -42.369,47.942C-43.277,48.872 -44.453,49.384 -45.681,49.384L-45.681,50.68C-45.579,50.68 -45.478,50.67 -45.377,50.664C-43.909,50.586 -42.521,49.953 -41.442,48.848C-41.369,48.773 -41.296,48.689 -41.224,48.598C-40.887,48.172 -40.394,47.913 -39.873,47.887C-39.371,47.866 -38.898,48.049 -38.542,48.416C-37.084,49.919 -35.739,50.68 -34.542,50.68C-33.247,50.68 -31.834,49.797 -30.342,48.055C-30.029,47.688 -29.586,47.481 -29.098,47.474C-28.582,47.489 -28.084,47.682 -27.732,48.067C-26.148,49.801 -24.691,50.68 -23.403,50.68C-22.108,50.68 -20.695,49.797 -19.204,48.055C-18.89,47.687 -18.448,47.481 -17.959,47.474C-17.448,47.468 -16.946,47.682 -16.594,48.067C-15.009,49.801 -13.553,50.68 -12.265,50.68C-10.97,50.68 -9.557,49.797 -8.065,48.055C-7.752,47.688 -7.31,47.481 -6.82,47.474C-6.307,47.489 -5.807,47.682 -5.455,48.067C-3.872,49.801 -2.415,50.68 -1.127,50.68C0.169,50.68 1.582,49.797 3.073,48.055C3.387,47.688 3.829,47.481 4.318,47.474C4.839,47.489 5.331,47.682 5.683,48.067C7.268,49.801 8.724,50.68 10.012,50.68C11.219,50.68 12.533,49.909 13.916,48.39C14.271,47.999 14.769,47.797 15.296,47.807C15.813,47.827 16.271,48.062 16.587,48.471C16.697,48.612 16.805,48.739 16.908,48.845C17.988,49.952 19.378,50.587 20.849,50.664C20.949,50.67 21.049,50.68 21.15,50.68L21.15,49.384C19.921,49.384 18.744,48.871 17.835,47.938C17.763,47.865 17.688,47.776 17.611,47.677" style="fill:rgb(51,51,51);fill-rule:nonzero;"/>
                        </g>
                    </g>
                </g>
            </g>
        </g>
    </g>
</svg>
