<?xml version="1.0" encoding="UTF-8" standalone="no"?>
<!DOCTYPE svg PUBLIC "-//W3C//DTD SVG 1.1//EN" "http://www.w3.org/Graphics/SVG/1.1/DTD/svg11.dtd">
<svg width="100%" height="100%" viewBox="0 0 500 500" version="1.1" xmlns="http://www.w3.org/2000/svg" xmlns:xlink="http://www.w3.org/1999/xlink" xml:space="preserve" xmlns:serif="http://www.serif.com/" style="fill-rule:evenodd;clip-rule:evenodd;stroke-linejoin:round;stroke-miterlimit:2;">
    <g transform="matrix(1,0,0,1,-2677,-1248)">
        <g transform="matrix(1,0,0,1,-4950,1248)">
            <rect id="contact" x="7627" y="0" width="500" height="500" style="fill:none;"/>
            <g id="contact1" serif:id="contact">
                <g transform="matrix(2.79423,0,0,2.79423,7585.01,3.5403)">
                    <g id="Layer-1" serif:id="Layer 1">
                        <g transform="matrix(1,0,0,1,175.021,88.2061)">
                            <path d="M0,-0.006C0,44.178 -35.813,79.997 -79.999,79.997C-124.182,79.997 -159.995,44.178 -159.995,-0.006C-159.995,-44.19 -124.182,-80.003 -79.999,-80.003C-35.813,-80.003 0,-44.19 0,-0.006" style="fill:rgb(51,129,81);fill-rule:nonzero;"/>
                        </g>
                        <g transform="matrix(1,0,0,1,106.874,101.066)">
                            <path d="M0,-11.118L0,-17.327L-0.287,-17.327L-25.421,-2.824C-23.777,-1.032 -21.825,0.47 -19.646,1.595L-19.646,5.915L-19.62,5.915L-19.62,6.209L-0.947,6.209L-0.947,5.915L0,5.915L0,1.181C2.688,-0.352 4.999,-2.472 6.761,-5.004C3.959,-6.348 1.61,-8.481 0,-11.118" style="fill:rgb(180,140,97);fill-rule:nonzero;"/>
                        </g>
                        <g transform="matrix(1,0,0,1,87.2282,98.2424)">
                            <path d="M0,-17.973L0,-9.86L-0.065,-9.86C-1.282,-7.16 -3.227,-4.859 -5.647,-3.203L-6.482,-0.811C-6.253,-0.535 -6.018,-0.265 -5.775,0L19.328,-11.893L0,-17.973Z" style="fill:rgb(159,124,88);fill-rule:nonzero;"/>
                        </g>
                        <g transform="matrix(1,0,0,1,71.9108,61.3511)">
                            <path d="M0,-6.485C0,11.486 11.29,26.089 25.333,26.491L25.333,-32.976C11.532,-32.529 0,-24.203 0,-6.485" style="fill:rgb(196,154,108);fill-rule:nonzero;"/>
                        </g>
                        <g transform="matrix(1.01026,0,0,1,98.1625,87.8604)">
                            <path d="M0,-59.506C-0.394,-59.506 -0.787,-59.497 -1.179,-59.485L-1.179,-0.019C-0.982,-0.014 -0.787,0 -0.588,0C13.729,0 25.335,-14.772 25.335,-32.994C25.335,-51.215 14.318,-59.506 0,-59.506" style="fill:rgb(196,154,108);fill-rule:nonzero;"/>
                        </g>
                        <g transform="matrix(1,0,0,1,125.441,33.0658)">
                            <path d="M0,17.48C-0.628,9.176 -4.015,3.17 -4.015,3.17C-1.748,-6.931 -11.191,-9.746 -21.148,-9.988C-30.353,-10.212 -39.996,-8.239 -41.24,-7.786C-42.593,-7.293 -44.487,-7.124 -45.994,-7.072C-47.372,-7.026 -48.428,-7.079 -48.428,-7.079C-48.371,-6.851 -48.147,-6.319 -47.933,-5.831C-47.704,-5.312 -47.485,-4.841 -47.485,-4.841C-47.748,-4.815 -48.23,-4.947 -48.812,-5.161C-50.824,-5.9 -54.082,-7.667 -54.082,-7.667C-54.435,-4.957 -53.787,-2.541 -53.05,-0.803C-52.314,0.933 -51.489,1.993 -51.489,1.993C-52.079,2.111 -53.729,1.404 -53.729,1.404C-53.257,3.642 -52.786,4.703 -52.786,4.703C-56.327,7.29 -57.151,14.756 -57.217,20.599L-51.138,27.692L-49.04,22.6C-48.995,22.606 -48.952,22.608 -48.907,22.614C-47.423,17.254 -46.189,9.179 -46.189,9.179C-30.339,19.354 -15.757,11.224 -13.236,9.663C-12.757,9.139 -12.505,8.824 -12.505,8.824C-11.606,19.006 -4.72,25.894 -4.72,25.894C-5.297,21.569 -0.336,18.178 0.033,17.932C0.048,17.922 0.069,17.909 0.069,17.909C0.048,17.761 0.023,17.625 0,17.48" style="fill:rgb(21,27,31);fill-rule:nonzero;"/>
                        </g>
                        <g transform="matrix(1,0,0,1,73.6676,57.2308)">
                            <path d="M0,-0.603C0.363,3.15 -0.739,6.33 -2.46,6.496C-4.183,6.664 -5.874,3.755 -6.239,0.001C-6.602,-3.754 -5.499,-6.933 -3.777,-7.1C-2.055,-7.267 -0.362,-4.359 0,-0.603" style="fill:rgb(196,154,108);fill-rule:nonzero;"/>
                        </g>
                        <g transform="matrix(1,0,0,1,121.144,57.9334)">
                            <path d="M0,-0.996C-0.558,2.809 0.514,6.114 2.392,6.389C4.269,6.664 6.244,3.805 6.8,-0C7.357,-3.805 6.285,-7.11 4.408,-7.385C2.531,-7.66 0.557,-4.8 0,-0.996" style="fill:rgb(196,154,108);fill-rule:nonzero;"/>
                        </g>
                        <g transform="matrix(1,0,0,1,54.569,115.585)">
                            <path d="M0,-0.125L-0.04,0C-0.021,-0.034 -0.006,-0.068 0.013,-0.104L0,-0.125Z" style="fill:rgb(102,199,199);fill-rule:nonzero;"/>
                        </g>
                        <g transform="matrix(-0.0300586,-0.999548,-0.999548,0.0300586,65.5467,117.396)">
                            <path d="M16.784,-45.568C13.429,-41.744 11.451,-36.7 11.616,-31.215C11.768,-26.18 13.7,-21.629 16.784,-18.122L-44.634,-30.097L16.784,-45.568Z" style="fill:rgb(4,59,90);fill-rule:nonzero;"/>
                        </g>
                        <g transform="matrix(1,0,0,1,38.236,103.465)">
                            <path d="M0,-0.127L-0.041,0C-0.021,-0.035 -0.005,-0.07 0.014,-0.105L0,-0.127Z" style="fill:rgb(102,199,199);fill-rule:nonzero;"/>
                        </g>
                        <g transform="matrix(0.863711,0.503987,0.503987,-0.863711,58.6467,143.789)">
                            <path d="M4.792,-0.88L8.009,-0.88L3.234,17.758L-0.633,17.331L4.792,-0.88Z" style="fill:rgb(102,199,199);fill-rule:nonzero;"/>
                        </g>
                        <g transform="matrix(1,0,0,1,96.9879,107.916)">
                            <path d="M0,51.656L7.396,42.644L2.933,0.822L0,-0.033L0,-0.071L-0.064,-0.052L-0.128,-0.071L-0.128,-0.033L-3.061,0.822L-7.523,42.644L-0.128,51.656L-0.128,51.727L-0.064,51.692L0,51.727L0,51.656Z" style="fill:rgb(51,135,67);fill-rule:nonzero;"/>
                        </g>
                        <g transform="matrix(1,0,0,1,91.3385,105.98)">
                            <path d="M0,-0.391L2.168,3.051L5.483,3.179L5.483,-3.57L0.893,-2.941L0,-0.391Z" style="fill:rgb(51,135,67);fill-rule:nonzero;"/>
                        </g>
                        <g transform="matrix(1,0,0,1,101.412,108.53)">
                            <path d="M0,-5.491L-4.59,-6.12L-4.59,0.629L-1.274,0.501L0.893,-2.941L0,-5.491Z" style="fill:rgb(51,135,67);fill-rule:nonzero;"/>
                        </g>
                        <g transform="matrix(0.880763,0.473557,0.473557,-0.880763,86.91,92.9286)">
                            <path d="M-3.678,-3.756L13.036,-3.756L8.782,-17.904L-5.77,-7.217L-3.678,-3.756Z" style="fill:rgb(8,49,69);fill-rule:nonzero;"/>
                        </g>
                        <g transform="matrix(-0.880763,0.473557,0.473557,0.880763,105.147,114.424)">
                            <path d="M-14.918,-14.606L1.796,-14.606L-2.458,-0.457L-17.009,-11.145L-14.918,-14.606Z" style="fill:rgb(8,49,69);fill-rule:nonzero;"/>
                        </g>
                        <g transform="matrix(1,0,0,1,96.9713,94.4954)">
                            <path d="M0,66.61L-13.815,5.58L-15.079,0L-17.611,1.497L-18.562,2.057L-22.41,17.842L-17.129,19.163L-20.649,25.763L0,66.61Z" style="fill:rgb(3,4,5);fill-rule:nonzero;"/>
                        </g>
                        <g transform="matrix(1,0,0,1,118.966,143.263)">
                            <path d="M0,-30.925L-3.848,-46.71L-3.891,-46.735L-7.33,-48.768L-8.377,-44.013L-21.995,17.843L-1.76,-23.004L-5.28,-29.605L0,-30.925Z" style="fill:rgb(3,4,5);fill-rule:nonzero;"/>
                        </g>
                        <g transform="matrix(1,0,0,1,96.7311,95.9635)">
                            <path d="M0,72.217L0,64.667L-20.409,24.295L-16.889,17.695L-22.17,16.374L-18.321,0.589L-17.371,0.029C-17.383,0.011 -17.396,-0.006 -17.408,-0.022C-19.362,0.963 -21.544,1.564 -23.854,1.677L-23.854,1.68L-32.998,1.68L-32.987,1.713C-36.694,1.012 -40.924,3.864 -42.805,7.397C-42.822,7.431 -42.84,7.466 -42.859,7.501L-43.908,10.803L-53.197,40.03L-55.505,51.475C-49.953,56.518 -43.688,60.786 -36.881,64.121L-33.645,49.792L-33.902,65.503C-24.06,69.831 -13.181,72.239 -1.738,72.239C-1.157,72.239 -0.578,72.23 0,72.217" style="fill:rgb(45,46,45);fill-rule:nonzero;"/>
                        </g>
                        <g transform="matrix(1,0,0,1,151.679,120.059)">
                            <path d="M0,24.59L-10.411,-5.772L-10.431,-5.765L-13.913,-16.722C-13.913,-16.722 -16.336,-21.071 -20.706,-22.15L-21.891,-22.416C-22.555,-22.513 -23.22,-22.517 -23.87,-22.416L-31.991,-22.609C-33.604,-22.689 -35.15,-23.011 -36.604,-23.531L-36.561,-23.507L-32.713,-7.722L-37.993,-6.401L-34.473,0.199L-54.708,41.046L-54.948,40.571L-54.948,48.121C-43.123,47.869 -31.931,45.054 -21.904,40.205L-21.894,24.364L-20.124,29.926L-17.51,37.904C-11.068,34.278 -5.178,29.79 0,24.59" style="fill:rgb(45,46,45);fill-rule:nonzero;"/>
                        </g>
                        <g transform="matrix(0.862528,0.506009,0.506009,-0.862528,122.097,145.918)">
                            <path d="M16.682,-3.976C22.23,5.633 25.731,16.282 26.958,27.253L16.682,57.914L-1.965,51.664L16.682,-3.976Z" style="fill:rgb(45,46,45);fill-rule:nonzero;"/>
                        </g>
                        <g transform="matrix(1,0,0,1,174.976,105.06)">
                            <path d="M0,-50.842C1.571,-49.965 1.255,-48.192 0.513,-46.55C-1.704,-41.645 -3.774,-36.673 -5.906,-31.716C-5.232,-30.852 -4.771,-31.247 -4.244,-31.86C-0.553,-36.148 3.155,-40.421 6.868,-44.691C7.21,-45.084 7.578,-45.485 8.009,-45.767C9.033,-46.437 10.425,-46.213 11.251,-45.316C12.137,-44.355 12.198,-42.948 11.294,-41.827C9.365,-39.439 7.393,-37.087 5.434,-34.723C3.671,-32.597 1.882,-30.49 0.154,-28.335C-0.146,-27.962 -0.2,-27.393 -0.368,-26.913C-0.196,-26.782 -0.025,-26.652 0.146,-26.521C0.797,-27.032 1.42,-27.582 2.103,-28.047C5.879,-30.618 9.67,-33.169 13.454,-35.728C14.562,-36.476 15.682,-36.542 16.733,-35.676C17.743,-34.845 17.951,-33.726 17.398,-32.589C17.129,-32.034 16.59,-31.564 16.078,-31.184C11.772,-27.992 7.436,-24.844 3.143,-21.637C2.784,-21.369 2.671,-20.774 2.444,-20.329C2.89,-20.123 3.342,-19.722 3.778,-19.739C7.848,-19.901 11.914,-20.141 15.981,-20.342C17.715,-20.428 18.852,-19.495 18.98,-17.931C19.101,-16.464 18.128,-15.328 16.463,-15.12C12.029,-14.568 7.588,-14.087 3.16,-13.495C2.339,-13.385 1.473,-13.029 0.792,-12.552C-1.688,-10.813 -4.018,-8.845 -6.563,-7.213C-8.511,-5.966 -9.571,-4.301 -10.237,-2.179C-10.95,0.094 -11.86,0.536 -14.201,0.045C-17.254,-0.597 -20.307,-1.237 -23.357,-1.884C-25.346,-2.306 -26.061,-3.181 -25.936,-5.194C-25.652,-9.745 -25.3,-14.292 -25.041,-18.845C-24.987,-19.788 -25.194,-20.751 -25.326,-21.699C-25.795,-25.077 -26.192,-28.469 -26.794,-31.824C-27.247,-34.356 -27.943,-36.845 -28.584,-39.339C-28.873,-40.467 -28.715,-41.431 -27.842,-42.215C-27.047,-42.93 -26.044,-43.145 -25.158,-42.617C-24.501,-42.226 -23.827,-41.538 -23.581,-40.835C-22.365,-37.365 -21.148,-33.884 -20.207,-30.334C-19.449,-27.478 -17.384,-27.548 -15.672,-28.886C-13.828,-30.326 -12.208,-31.98 -11.197,-34.269C-8.971,-39.316 -6.521,-44.266 -4.035,-49.193C-3.612,-50.03 -2.784,-50.964 -1.806,-51.222C-1.211,-51.378 -0.537,-51.142 0,-50.842" style="fill:rgb(196,154,108);fill-rule:nonzero;"/>
                        </g>
                        <g transform="matrix(-0.978609,-0.205729,-0.205729,0.978609,145.234,103.333)">
                            <path d="M-20.339,-3.177L-0.672,-3.177L-0.303,1.983L-20.631,1.981L-20.339,-3.177Z" style="fill:white;fill-rule:nonzero;"/>
                        </g>
                    </g>
                </g>
            </g>
        </g>
    </g>
</svg>
