<?xml version="1.0" encoding="UTF-8" standalone="no"?>
<!DOCTYPE svg PUBLIC "-//W3C//DTD SVG 1.1//EN" "http://www.w3.org/Graphics/SVG/1.1/DTD/svg11.dtd">
<svg width="100%" height="100%" viewBox="0 0 28 28" version="1.1" xmlns="http://www.w3.org/2000/svg" xmlns:xlink="http://www.w3.org/1999/xlink" xml:space="preserve" xmlns:serif="http://www.serif.com/" style="fill-rule:evenodd;clip-rule:evenodd;stroke-linejoin:round;stroke-miterlimit:2;">
    <g transform="matrix(1,0,0,1,-5424,-169)">
        <g transform="matrix(0.683793,0,0,0.752527,1715.05,41.3754)">
            <rect id="Checkbox" x="5424.08" y="169.595" width="40.948" height="37.208" style="fill:none;"/>
            <g id="Checkbox1" serif:id="Checkbox">
                <g transform="matrix(1.46243,0,0,1.32886,5424.08,169.595)">
                    <path d="M14,2.625C11.75,2.625 9.551,3.292 7.68,4.542C5.81,5.792 4.352,7.568 3.491,9.647C2.63,11.726 2.405,14.013 2.844,16.219C3.282,18.426 4.366,20.453 5.957,22.043C7.547,23.634 9.574,24.718 11.781,25.156C13.987,25.595 16.275,25.37 18.353,24.509C20.432,23.648 22.208,22.19 23.458,20.32C24.708,18.449 25.375,16.25 25.375,14C25.369,10.985 24.169,8.095 22.037,5.963C19.905,3.831 17.015,2.631 14,2.625ZM19.414,12.009L13.005,18.134C12.839,18.29 12.62,18.376 12.392,18.375C12.281,18.377 12.171,18.356 12.067,18.315C11.964,18.274 11.87,18.212 11.791,18.134L8.586,15.072C8.497,14.994 8.425,14.9 8.373,14.793C8.322,14.687 8.293,14.572 8.287,14.454C8.282,14.336 8.3,14.218 8.341,14.108C8.382,13.997 8.445,13.896 8.526,13.81C8.607,13.725 8.705,13.657 8.813,13.61C8.922,13.563 9.038,13.538 9.156,13.538C9.274,13.537 9.391,13.56 9.5,13.606C9.608,13.651 9.707,13.719 9.789,13.803L12.392,16.286L18.211,10.741C18.381,10.592 18.602,10.515 18.828,10.526C19.053,10.537 19.266,10.634 19.421,10.798C19.577,10.962 19.663,11.179 19.661,11.405C19.66,11.631 19.571,11.847 19.414,12.009Z" style="fill:rgb(10,123,62);fill-rule:nonzero;"/>
                </g>
            </g>
        </g>
    </g>
</svg>
