<?xml version="1.0" encoding="UTF-8" standalone="no"?>
<!DOCTYPE svg PUBLIC "-//W3C//DTD SVG 1.1//EN" "http://www.w3.org/Graphics/SVG/1.1/DTD/svg11.dtd">
<svg width="100%" height="100%" viewBox="0 0 500 500" version="1.1" xmlns="http://www.w3.org/2000/svg" xmlns:xlink="http://www.w3.org/1999/xlink" xml:space="preserve" xmlns:serif="http://www.serif.com/" style="fill-rule:evenodd;clip-rule:evenodd;stroke-linejoin:round;stroke-miterlimit:2;">
    <g transform="matrix(1,0,0,1,-600,-2500)">
        <g transform="matrix(0.975452,0,0,0.965475,600,86.245)">
            <rect id="ensure" x="0" y="2500.07" width="512.583" height="517.88" style="fill:none;"/>
            <g id="ensure1" serif:id="ensure">
                <g transform="matrix(2.71914,0,0,2.74724,-16.0986,2484.74)">
                    <g id="Layer-1" serif:id="Layer 1">
                        <g transform="matrix(1,0,0,1,144.343,99.9993)">
                            <path d="M0,0.001C0,24.49 -19.853,44.344 -44.343,44.344C-68.833,44.344 -88.686,24.49 -88.686,0.001C-88.686,-24.489 -68.833,-44.343 -44.343,-44.343C-19.853,-44.343 0,-24.489 0,0.001" style="fill:white;fill-rule:nonzero;"/>
                        </g>
                        <g transform="matrix(1,0,0,1,43.665,99.8025)">
                            <path d="M0,0.064C0.453,3.775 0.644,7.542 1.402,11.189C6.589,36.134 28.522,54.616 53.917,55.523C67.031,55.992 78.973,52.474 89.691,44.843C110.998,29.674 118.688,0.974 107.772,-22.745C96.939,-46.286 71.274,-59.42 45.768,-54.478C19.286,-49.345 0.385,-26.702 0,0.064M133.261,8.145C132.656,11.219 132.052,14.294 131.445,17.369C131.351,17.846 131.245,18.322 131.12,18.915C128.127,18.402 125.244,17.907 122.376,17.416C121.006,21.111 119.661,24.742 118.255,28.533C120.709,29.94 123.25,31.398 125.989,32.969C124.027,36.332 122.107,39.621 120.13,43.007C117.463,41.498 114.914,40.055 112.351,38.604C109.788,41.627 107.282,44.581 104.665,47.666C106.496,49.837 108.381,52.076 110.39,54.459C107.397,56.937 104.46,59.371 101.411,61.898C99.447,59.606 97.541,57.382 95.627,55.15C92.165,57.126 88.763,59.067 85.26,61.066C86.246,63.767 87.246,66.51 88.29,69.376C84.589,70.704 80.997,71.993 77.269,73.332C76.211,70.5 75.203,67.801 74.177,65.054C70.276,65.73 66.419,66.397 62.42,67.089L62.42,75.792L50.639,75.792L50.639,67.097C46.636,66.407 42.817,65.748 38.799,65.054C37.815,67.674 36.789,70.408 35.696,73.321C32.011,72.003 28.419,70.72 24.687,69.385C25.709,66.567 26.705,63.821 27.705,61.062C24.282,59.105 20.917,57.181 17.343,55.137C15.498,57.294 13.57,59.548 11.564,61.894C8.567,59.416 5.65,57.004 2.573,54.46C4.525,52.151 6.438,49.888 8.269,47.722C5.833,44.756 3.512,41.889 1.115,39.086C0.919,38.857 0.122,38.901 -0.244,39.098C-2.523,40.327 -4.758,41.635 -7.153,43.001C-9.101,39.676 -11.007,36.424 -13.024,32.983C-10.377,31.456 -7.812,29.974 -5.301,28.525C-6.69,24.764 -8.031,21.134 -9.405,17.417C-12.252,17.903 -15.136,18.395 -18.198,18.918C-18.88,15.118 -19.544,11.412 -20.241,7.532C-17.266,6.999 -14.387,6.482 -11.412,5.948L-11.412,-5.847C-14.233,-6.358 -17.153,-6.886 -20.231,-7.444C-19.555,-11.253 -18.896,-14.959 -18.209,-18.832C-15.22,-18.321 -12.338,-17.83 -9.411,-17.33C-8.063,-20.969 -6.72,-24.593 -5.298,-28.432C-7.743,-29.843 -10.309,-31.325 -13.013,-32.885C-11.055,-36.25 -9.154,-39.515 -7.176,-42.914C-4.516,-41.415 -1.93,-39.957 0.617,-38.523C3.213,-41.582 5.723,-44.54 8.301,-47.578C6.437,-49.789 4.544,-52.034 2.576,-54.369C5.564,-56.844 8.478,-59.258 11.561,-61.812C13.512,-59.53 15.437,-57.279 17.329,-55.064C20.818,-57.05 24.19,-58.969 27.704,-60.968C26.735,-63.629 25.736,-66.373 24.676,-69.282C28.34,-70.6 31.931,-71.891 35.686,-73.243C36.744,-70.424 37.771,-67.692 38.792,-64.969C42.713,-65.646 46.534,-66.306 50.548,-66.999L50.548,-75.728L62.375,-75.728L62.375,-67.003C66.383,-66.312 70.202,-65.654 74.172,-64.969C75.173,-67.648 76.195,-70.383 77.265,-73.247C80.999,-71.906 84.589,-70.616 88.28,-69.29C87.247,-66.451 86.261,-63.743 85.257,-60.984C88.664,-59.034 92.063,-57.089 95.62,-55.053C97.476,-57.226 99.38,-59.455 101.396,-61.814C104.394,-59.334 107.339,-56.898 110.391,-54.374C108.439,-52.067 106.545,-49.828 104.655,-47.592C107.219,-44.569 109.726,-41.612 112.352,-38.514C114.82,-39.915 117.368,-41.362 120.11,-42.919C122.053,-39.608 123.979,-36.325 125.988,-32.901C123.333,-31.37 120.801,-29.91 118.256,-28.442C119.625,-24.744 120.968,-21.118 122.368,-17.337C125.14,-17.809 128.026,-18.3 131.143,-18.831C131.538,-16.674 131.912,-14.538 132.325,-12.409C132.608,-10.95 132.947,-9.502 133.261,-8.05L133.261,-7.45C130.282,-6.917 127.304,-6.384 124.25,-5.837C124.25,-2.062 124.229,1.573 124.29,5.206C124.295,5.505 124.819,5.99 125.168,6.06C127.856,6.601 130.561,7.06 133.261,7.545L133.261,8.145Z" style="fill:rgb(64,63,65);fill-rule:nonzero;"/>
                        </g>
                        <g transform="matrix(1,0,0,1,100.297,140.078)">
                            <path d="M0,-83.98C-24.265,-84.085 -44.395,-64.56 -44.487,-40.831C-44.583,-16.175 -25.015,3.402 -0.149,3.53C24.141,3.654 44.037,-15.912 44.198,-40.082C44.358,-64.15 24.5,-83.875 0,-83.98M-56.632,-40.211C-56.247,-66.977 -37.346,-89.621 -10.864,-94.753C14.642,-99.696 40.307,-86.561 51.141,-63.02C62.056,-39.301 54.366,-10.601 33.06,4.568C22.341,12.199 10.399,15.716 -2.714,15.248C-28.109,14.34 -50.043,-4.141 -55.23,-29.086C-55.988,-32.734 -56.179,-36.501 -56.632,-40.211" style="fill:rgb(14,175,80);fill-rule:nonzero;"/>
                        </g>
                        <g transform="matrix(1,0,0,1,-0.749239,3.6129)">
                            <path d="M121.066,107.331C121.066,97.323 112.354,94.803 104.362,92.859L104.362,78.315C108.178,78.747 112.21,79.971 116.026,82.203L118.978,74.931C115.09,72.411 109.69,70.827 104.362,70.539L104.362,62.547L98.458,62.547L98.458,70.683C87.226,71.763 81.898,78.171 81.898,85.515C81.898,95.523 90.466,98.115 98.458,100.059L98.458,114.459C92.986,113.955 87.586,111.867 84.058,108.987L80.818,116.259C84.562,119.499 91.402,121.803 98.458,122.235L98.458,130.227L104.362,130.227L104.362,122.163C115.666,121.011 121.066,114.675 121.066,107.331ZM91.186,85.083C91.186,81.915 93.346,79.323 98.458,78.531L98.458,91.347C94.282,90.123 91.186,88.539 91.186,85.083ZM104.362,114.315L104.362,101.571C108.682,102.795 111.85,104.451 111.85,107.979C111.85,111.075 109.618,113.523 104.362,114.315Z" style="fill:rgb(54,70,87);fill-rule:nonzero;"/>
                        </g>
                    </g>
                </g>
            </g>
        </g>
    </g>
</svg>
