<?xml version="1.0" encoding="UTF-8" standalone="no"?>
<!DOCTYPE svg PUBLIC "-//W3C//DTD SVG 1.1//EN" "http://www.w3.org/Graphics/SVG/1.1/DTD/svg11.dtd">
<svg width="100%" height="100%" viewBox="0 0 500 500" version="1.1" xmlns="http://www.w3.org/2000/svg" xmlns:xlink="http://www.w3.org/1999/xlink" xml:space="preserve" xmlns:serif="http://www.serif.com/" style="fill-rule:evenodd;clip-rule:evenodd;stroke-linejoin:round;stroke-miterlimit:2;">
    <g transform="matrix(1,0,0,1,-1200,-2500)">
        <g transform="matrix(0.975452,0,0,0.965475,1200,86.245)">
            <rect id="entrust" x="0" y="2500.07" width="512.583" height="517.88" style="fill:none;"/>
            <g id="entrust1" serif:id="entrust">
                <g transform="matrix(2.94901,0,0,2.97949,-38.6106,2461.06)">
                    <g id="Layer-1" serif:id="Layer 1">
                        <g transform="matrix(1,0,0,1,156.12,43.705)">
                            <path d="M0,86.433L-109.125,86.433C-116.279,86.433 -122.08,80.632 -122.08,73.477L-122.08,12.955C-122.08,5.8 -116.279,0 -109.125,0L0,0C7.155,0 12.956,5.8 12.956,12.955L12.956,73.477C12.956,80.632 7.155,86.433 0,86.433" style="fill:rgb(6,103,56);fill-rule:nonzero;"/>
                        </g>
                        <g transform="matrix(1,0,0,1,114.658,83.2877)">
                            <path d="M0,-8.931C0.13,-9.1 0.262,-9.267 0.39,-9.438C0.793,-9.978 1.275,-10.439 1.795,-10.865C1.93,-10.974 2.058,-11.094 2.175,-11.222C2.528,-11.608 2.874,-11.999 3.224,-12.387C3.717,-12.935 4.21,-13.483 4.704,-14.031C5.058,-14.423 5.411,-14.818 5.765,-15.211C6.258,-15.759 6.752,-16.306 7.245,-16.854C7.581,-17.228 7.914,-17.603 8.25,-17.977C8.814,-18.604 9.373,-19.237 9.818,-19.957C10.227,-20.618 10.6,-21.296 10.846,-22.037C10.953,-22.36 11.077,-22.677 11.167,-23.003C11.337,-23.624 11.49,-24.251 11.647,-24.876C11.789,-25.444 11.923,-26.013 12.066,-26.58C12.149,-26.91 12.221,-27.243 12.335,-27.562C12.532,-28.112 12.946,-28.445 13.501,-28.597C13.653,-28.638 13.818,-28.647 13.976,-28.645C14.39,-28.64 14.807,-28.645 15.218,-28.603C15.677,-28.556 16.115,-28.412 16.508,-28.16C17.677,-27.407 18.369,-26.322 18.699,-24.991C18.752,-24.774 18.779,-24.544 18.781,-24.32C18.789,-23.4 18.787,-22.48 18.78,-21.559C18.778,-21.205 18.76,-20.852 18.74,-20.498C18.72,-20.154 18.697,-19.809 18.66,-19.465C18.616,-19.065 18.548,-18.666 18.503,-18.266C18.374,-17.134 18.13,-16.028 17.794,-14.941C17.688,-14.597 17.573,-14.256 17.446,-13.919C17.274,-13.459 17.087,-13.004 16.898,-12.527L17.135,-12.527C21.185,-12.527 25.235,-12.528 29.286,-12.523C29.563,-12.523 29.839,-12.468 30.117,-12.45C30.738,-12.409 31.277,-12.149 31.778,-11.808C32.4,-11.384 32.869,-10.821 33.17,-10.132C33.383,-9.648 33.511,-9.142 33.498,-8.602C33.487,-8.173 33.476,-7.751 33.345,-7.335C33.205,-6.891 33.008,-6.48 32.731,-6.108C32.295,-5.521 31.744,-5.073 31.068,-4.79C30.7,-4.637 30.322,-4.502 29.912,-4.505C29.814,-4.493 29.716,-4.467 29.618,-4.467C28.249,-4.464 26.879,-4.466 25.51,-4.465C25.05,-4.465 24.668,-4.297 24.388,-3.924C24.12,-3.566 24.059,-3.164 24.18,-2.741C24.316,-2.267 24.64,-1.965 25.11,-1.832C25.249,-1.793 25.398,-1.746 25.55,-1.823C27.229,-2.665 28.909,-3.505 30.589,-4.345C30.64,-4.319 30.687,-4.283 30.741,-4.265C31.346,-4.075 31.87,-3.744 32.319,-3.306C32.684,-2.95 32.979,-2.533 33.178,-2.059C33.388,-1.558 33.513,-1.04 33.499,-0.489C33.488,-0.066 33.467,0.348 33.337,0.756C33.161,1.302 32.891,1.793 32.511,2.223C32.12,2.666 31.659,3.012 31.118,3.249C30.764,3.403 30.397,3.519 30.009,3.556C29.812,3.575 29.616,3.604 29.419,3.629C29.356,3.618 29.294,3.596 29.232,3.596C27.534,3.594 25.836,3.594 24.139,3.596C24.033,3.596 23.927,3.613 23.823,3.635C23.021,3.807 22.63,4.626 22.818,5.282C22.963,5.791 23.308,6.11 23.813,6.245C23.982,6.291 24.148,6.278 24.325,6.188C25.892,5.393 27.466,4.613 29.039,3.829C29.098,3.799 29.161,3.78 29.222,3.756C29.536,3.81 29.82,3.944 30.094,4.096C30.475,4.31 30.815,4.581 31.114,4.902C31.437,5.249 31.688,5.644 31.868,6.079C32.117,6.678 32.214,7.311 32.158,7.957C32.091,8.734 31.832,9.449 31.347,10.071C30.731,10.859 29.934,11.364 28.954,11.573C28.674,11.633 28.391,11.666 28.103,11.657C26.345,11.657 24.587,11.656 22.829,11.655C22.399,11.655 22.034,11.803 21.753,12.132C21.445,12.495 21.366,12.915 21.485,13.369C21.572,13.697 21.77,13.959 22.058,14.133C22.373,14.325 22.692,14.386 23.057,14.201C24.592,13.418 26.138,12.654 27.681,11.884C27.744,11.853 27.817,11.839 27.885,11.817C28.037,11.865 28.194,11.9 28.34,11.964C29.426,12.435 30.185,13.219 30.595,14.337C30.717,14.672 30.785,15.013 30.794,15.369C30.797,15.481 30.834,15.593 30.831,15.705C30.796,16.827 30.41,17.804 29.595,18.588C29.024,19.136 28.343,19.489 27.559,19.641C27.289,19.694 27.021,19.716 26.747,19.716C19.917,19.715 13.086,19.715 6.255,19.714C5.929,19.714 5.61,19.652 5.289,19.603C4.799,19.53 4.335,19.367 3.864,19.226C3.731,19.186 3.607,19.117 3.479,19.059C2.792,18.751 2.151,18.364 1.578,17.877C1.092,17.464 0.649,17.006 0.28,16.483C0.192,16.358 0.093,16.241 0,16.12C-0.004,16.112 -0.007,16.104 -0.008,16.094L-0.003,16.048C-0.002,15.974 0.001,15.9 0.001,15.827L0.001,-8.637C0.001,-8.711 -0.002,-8.785 -0.003,-8.859L-0.008,-8.906C-0.007,-8.914 -0.004,-8.923 0,-8.931" style="fill:rgb(254,204,130);fill-rule:nonzero;"/>
                        </g>
                        <g transform="matrix(1,0,0,1,110.589,78.8104)">
                            <path d="M0,16.145C0.047,15.291 -0.396,14.555 -0.847,14.149C-1.435,13.62 -2.132,13.421 -2.914,13.471C-4.222,13.554 -5.336,14.711 -5.356,16.08C-5.379,17.631 -4.116,18.812 -2.71,18.828C-1.248,18.844 0.037,17.678 0,16.145M4.062,20.572C4.062,20.582 4.065,20.589 4.069,20.597C4.067,21.269 4.065,21.94 4.063,22.612L4.063,22.843L-9.37,22.843L-9.37,-6.698L4.059,-6.698C4.062,-5.952 4.066,-5.203 4.069,-4.454C4.065,-4.446 4.062,-4.437 4.062,-4.428C4.052,-4.414 4.042,-4.398 4.032,-4.383C4.032,-4.323 4.03,-4.262 4.03,-4.202L4.03,20.346C4.03,20.407 4.032,20.467 4.032,20.528L4.062,20.572Z" style="fill:rgb(4,59,90);fill-rule:nonzero;"/>
                        </g>
                        <g transform="matrix(1,0,0,1,143.88,89.4173)">
                            <path d="M0,-2.374C-0.061,-2.35 -0.125,-2.33 -0.184,-2.301C-1.756,-1.517 -3.33,-0.736 -4.897,0.059C-5.074,0.148 -5.24,0.161 -5.409,0.115C-5.914,-0.02 -6.259,-0.339 -6.404,-0.848C-6.592,-1.504 -6.201,-2.322 -5.399,-2.494C-5.295,-2.517 -5.189,-2.533 -5.083,-2.533C-3.386,-2.535 -1.688,-2.535 0.01,-2.533C0.072,-2.533 0.134,-2.512 0.197,-2.501C0.131,-2.459 0.065,-2.416 0,-2.374" style="fill:rgb(243,163,90);fill-rule:nonzero;"/>
                        </g>
                        <g transform="matrix(1,0,0,1,145.247,81.3817)">
                            <path d="M0,-2.439C-1.68,-1.599 -3.36,-0.759 -5.039,0.083C-5.191,0.16 -5.34,0.113 -5.479,0.074C-5.949,-0.059 -6.272,-0.361 -6.409,-0.835C-6.53,-1.258 -6.469,-1.66 -6.201,-2.018C-5.921,-2.391 -5.539,-2.559 -5.079,-2.559C-3.709,-2.56 -2.34,-2.558 -0.971,-2.561C-0.873,-2.561 -0.775,-2.586 -0.677,-2.599C-0.617,-2.586 -0.557,-2.563 -0.497,-2.562C-0.272,-2.557 -0.047,-2.56 0.185,-2.537C0.124,-2.504 0.062,-2.472 0,-2.439" style="fill:rgb(243,163,90);fill-rule:nonzero;"/>
                        </g>
                        <g transform="matrix(1,0,0,1,142.543,97.5118)">
                            <path d="M0,-2.407C-0.068,-2.386 -0.141,-2.371 -0.205,-2.34C-1.748,-1.57 -3.293,-0.806 -4.829,-0.023C-5.193,0.162 -5.512,0.101 -5.827,-0.091C-6.116,-0.265 -6.313,-0.527 -6.4,-0.855C-6.519,-1.309 -6.44,-1.729 -6.132,-2.092C-5.852,-2.421 -5.486,-2.569 -5.057,-2.569C-3.298,-2.568 -1.54,-2.567 0.218,-2.567C0.146,-2.513 0.073,-2.461 0,-2.407" style="fill:rgb(243,163,90);fill-rule:nonzero;"/>
                        </g>
                        <g transform="matrix(1,0,0,1,114.621,74.4272)">
                            <path d="M0,24.911C0,24.85 -0.002,24.79 -0.002,24.729L-0.002,0.182C-0.002,0.121 0,0.06 0,0C0.011,0.001 0.022,0.002 0.034,0.002C0.035,0.076 0.038,0.149 0.038,0.224C0.039,8.378 0.039,16.532 0.038,24.687C0.038,24.761 0.035,24.835 0.034,24.908L0,24.911Z" style="fill:rgb(87,169,134);fill-rule:nonzero;"/>
                        </g>
                        <g transform="matrix(1,0,0,1,114.655,74.382)">
                            <path d="M0,0.047C-0.011,0.047 -0.022,0.046 -0.034,0.045C-0.024,0.03 -0.014,0.015 -0.004,0L0,0.047Z" style="fill:rgb(119,179,170);fill-rule:nonzero;"/>
                        </g>
                        <g transform="matrix(1,0,0,1,114.621,99.3792)">
                            <path d="M0,-0.041L0.034,-0.044L0.029,0.003L0,-0.041Z" style="fill:rgb(119,179,170);fill-rule:nonzero;"/>
                        </g>
                        <g transform="matrix(1,0,0,1,110.589,94.9304)">
                            <path d="M0,0.025C0.037,1.558 -1.248,2.724 -2.71,2.708C-4.116,2.692 -5.379,1.511 -5.356,-0.04C-5.336,-1.409 -4.222,-2.566 -2.914,-2.649C-2.132,-2.699 -1.435,-2.5 -0.847,-1.971C-0.396,-1.565 0.047,-0.829 0,0.025" style="fill:rgb(179,224,220);fill-rule:nonzero;"/>
                        </g>
                        <g transform="matrix(1,0,0,1,75.8911,117.289)">
                            <path d="M0,-6.812L-15.05,-6.812L-15.05,-3.254L-15.101,-3.254C-15.642,-2.054 -16.372,-0.958 -17.251,0C-14.714,-0.73 -2.337,-4.346 0,-6.114L0,-6.812Z" style="fill:rgb(212,189,142);fill-rule:nonzero;"/>
                        </g>
                        <g transform="matrix(1,0,0,1,75.8911,124.449)">
                            <path d="M0,-9.216L0,-13.274C-2.337,-11.506 -14.714,-7.89 -17.251,-7.159C-18.252,-6.069 -19.446,-5.157 -20.781,-4.485C-19.309,-2.385 -17.342,-0.659 -15.05,0.524L-15.05,3.833L-15.031,3.833L-15.031,4.058L-0.726,4.058L-0.726,3.833L0,3.833L0,0.207C2.059,-0.968 3.829,-2.592 5.179,-4.531C3.033,-5.562 1.233,-7.196 0,-9.216" style="fill:rgb(223,196,146);fill-rule:nonzero;"/>
                        </g>
                        <g transform="matrix(-0.0300465,-0.999549,-0.999549,0.0300465,44.6529,136.251)">
                            <path d="M12.741,-34.59C10.194,-31.688 8.693,-27.859 8.819,-23.695C8.933,-19.874 10.4,-16.419 12.741,-13.756L-33.881,-22.846L12.741,-34.59Z" style="fill:rgb(82,170,166);fill-rule:nonzero;"/>
                        </g>
                        <g transform="matrix(1,0,0,1,35.1992,126.603)">
                            <path d="M0,0.65L-0.206,1.578L0.591,-0.928C0.326,-0.414 0.119,0.115 0,0.65" style="fill:rgb(102,199,199);fill-rule:nonzero;"/>
                        </g>
                        <g transform="matrix(1,0,0,1,35.8213,125.675)">
                            <path d="M0,-0.097L-0.031,0C-0.017,-0.027 -0.003,-0.054 0.01,-0.08L0,-0.097Z" style="fill:rgb(102,199,199);fill-rule:nonzero;"/>
                        </g>
                        <g transform="matrix(0.863823,0.503795,0.503795,-0.863823,39.4153,156.287)">
                            <path d="M3.637,-0.668L6.078,-0.668L2.456,13.48L-0.479,13.157L3.637,-0.668Z" style="fill:rgb(102,199,199);fill-rule:nonzero;"/>
                        </g>
                        <g transform="matrix(1,0,0,1,68.5195,129.055)">
                            <path d="M0,39.212L5.614,32.371L2.226,0.623L0,-0.026L0,-0.055L-0.049,-0.04L-0.097,-0.055L-0.097,-0.026L-2.323,0.623L-5.711,32.371L-0.097,39.212L-0.097,39.267L-0.049,39.239L0,39.267L0,39.212Z" style="fill:rgb(4,59,90);fill-rule:nonzero;"/>
                        </g>
                        <g transform="matrix(1,0,0,1,64.2314,127.584)">
                            <path d="M0,-0.297L1.645,2.316L4.162,2.413L4.162,-2.71L0.677,-2.234L0,-0.297Z" style="fill:rgb(4,59,90);fill-rule:nonzero;"/>
                        </g>
                        <g transform="matrix(1,0,0,1,71.8779,129.52)">
                            <path d="M0,-4.169L-3.484,-4.646L-3.484,0.477L-0.968,0.381L0.678,-2.232L0,-4.169Z" style="fill:rgb(4,59,90);fill-rule:nonzero;"/>
                        </g>
                        <g transform="matrix(0.880744,0.473592,0.473592,-0.880744,60.8699,117.677)">
                            <path d="M-2.792,-2.851L9.896,-2.851L6.667,-13.591L-4.381,-5.479L-2.792,-2.851Z" style="fill:white;fill-rule:nonzero;"/>
                        </g>
                        <g transform="matrix(-0.880727,0.473625,0.473625,0.880727,74.7156,133.993)">
                            <path d="M-11.322,-11.088L1.365,-11.088L-1.863,-0.348L-12.911,-8.46L-11.322,-11.088Z" style="fill:white;fill-rule:nonzero;"/>
                        </g>
                        <g transform="matrix(1,0,0,1,68.5068,118.866)">
                            <path d="M0,50.564L-10.487,4.236L-11.446,0L-13.369,1.136L-14.09,1.562L-17.011,13.544L-13.002,14.547L-15.675,19.558L0,50.564Z" style="fill:rgb(14,33,44);fill-rule:nonzero;"/>
                        </g>
                        <g transform="matrix(1,0,0,1,85.2041,155.885)">
                            <path d="M0,-23.475L-2.921,-35.457L-2.954,-35.476L-5.564,-37.02L-6.359,-33.41L-16.697,13.545L-1.336,-17.461L-4.008,-22.472L0,-23.475Z" style="fill:rgb(14,33,44);fill-rule:nonzero;"/>
                        </g>
                        <g transform="matrix(1,0,0,1,68.3252,119.981)">
                            <path d="M0,54.821L0,49.09L-15.493,18.443L-12.821,13.432L-16.83,12.429L-13.908,0.447L-13.187,0.021C-13.196,0.008 -13.206,-0.004 -13.215,-0.017C-14.698,0.731 -16.354,1.186 -18.108,1.273L-18.108,1.275L-25.049,1.275L-25.042,1.3C-27.855,0.768 -31.066,2.933 -32.494,5.614C-32.507,5.64 -32.521,5.668 -32.535,5.694L-33.332,8.2L-40.383,30.387L-42.135,39.075C-37.921,42.903 -33.165,46.143 -27.998,48.675L-25.54,37.798L-25.736,49.724C-18.264,53.009 -10.006,54.838 -1.32,54.838C-0.879,54.838 -0.439,54.83 0,54.821" style="fill:rgb(4,59,90);fill-rule:nonzero;"/>
                        </g>
                        <g transform="matrix(1,0,0,1,115.833,120.415)">
                            <path d="M0,54.399L-13.699,13.476L-13.714,13.481L-16.358,5.164C-16.358,5.164 -18.197,1.862 -21.514,1.043L-22.413,0.841C-22.918,0.768 -23.423,0.764 -23.917,0.841L-30.081,0.694C-31.306,0.633 -32.479,0.389 -33.583,-0.005L-33.55,0.013L-30.629,11.996L-34.637,12.999L-31.965,18.009L-47.326,49.015L-47.508,48.656L-47.508,54.387C-40.663,54.404 -29.545,54.404 -22.312,54.387L-22.416,36.353L-21.072,40.575L-16.773,54.399C-10.601,54.399 -4.616,54.404 0,54.399" style="fill:rgb(4,59,90);fill-rule:nonzero;"/>
                        </g>
                        <g transform="matrix(1,0,0,1,67.7979,113.155)">
                            <path d="M0,-44.267C-10.213,-43.934 -18.749,-37.737 -18.749,-24.549C-18.749,-11.173 -10.393,-0.304 0,-0.006C0.147,-0.001 0.292,0.008 0.438,0.008L2.086,-44.117C1.94,-44.114 0.146,-44.272 0,-44.267" style="fill:rgb(239,214,158);fill-rule:nonzero;"/>
                        </g>
                        <g transform="matrix(1,0,0,1,87.4243,93.4308)">
                            <path d="M0,-4.825C0,-18.388 -8.154,-24.558 -18.753,-24.558C-18.898,-24.558 -19.043,-24.554 -19.188,-24.551L-19.188,19.733C-8.59,19.733 0,8.738 0,-4.825" style="fill:rgb(239,214,158);fill-rule:nonzero;"/>
                        </g>
                        <g transform="matrix(1,0,0,1,88.9312,72.2225)">
                            <path d="M0,12.768C-0.458,6.703 -2.931,2.315 -2.931,2.315C-1.277,-5.065 -8.176,-7.121 -15.45,-7.298C-22.174,-7.461 -29.217,-6.02 -30.127,-5.689C-31.113,-5.33 -32.5,-5.205 -33.598,-5.168C-34.606,-5.134 -35.375,-5.172 -35.375,-5.172C-35.334,-5.005 -35.172,-4.617 -35.014,-4.26C-34.849,-3.881 -34.688,-3.539 -34.688,-3.539C-34.881,-3.518 -35.233,-3.615 -35.656,-3.771C-37.128,-4.311 -39.507,-5.602 -39.507,-5.602C-39.764,-3.623 -39.291,-1.858 -38.753,-0.588C-38.215,0.68 -37.614,1.455 -37.614,1.455C-38.045,1.54 -39.25,1.025 -39.25,1.025C-38.904,2.66 -38.559,3.435 -38.559,3.435C-41.148,5.324 -41.748,10.78 -41.796,15.046L-37.358,20.229L-35.823,16.509C-35.791,16.514 -35.759,16.514 -35.727,16.519C-34.644,12.603 -33.741,6.705 -33.741,6.705C-22.163,14.138 -11.509,8.199 -9.668,7.058C-9.319,6.675 -9.134,6.445 -9.134,6.445C-8.478,13.883 -3.448,18.914 -3.448,18.914C-3.868,15.755 -0.244,13.279 0.026,13.099C0.037,13.091 0.051,13.081 0.051,13.081C0.037,12.973 0.018,12.874 0,12.768" style="fill:rgb(61,38,23);fill-rule:nonzero;"/>
                        </g>
                        <g transform="matrix(1,0,0,1,85.7183,90.8888)">
                            <path d="M0,-0.742C-0.412,2.089 0.382,4.55 1.77,4.754C3.162,4.96 4.621,2.83 5.034,-0.002C5.446,-2.831 4.652,-5.293 3.264,-5.498C1.875,-5.702 0.413,-3.573 0,-0.742" style="fill:rgb(239,214,158);fill-rule:nonzero;"/>
                        </g>
                        <g transform="matrix(1,0,0,1,50.5786,90.3653)">
                            <path d="M0,-0.449C0.272,2.345 -0.548,4.711 -1.821,4.834C-3.096,4.959 -4.348,2.795 -4.618,0C-4.886,-2.795 -4.07,-5.16 -2.796,-5.285C-1.521,-5.408 -0.267,-3.244 0,-0.449" style="fill:rgb(239,214,158);fill-rule:nonzero;"/>
                        </g>
                        <g transform="matrix(1,0,0,1,91.9644,57.4736)">
                            <path d="M0,-28.236C-1.957,-27.679 -3.729,-26.792 -5.312,-25.582C-6.898,-24.369 -8.248,-22.996 -9.366,-21.458C-10.484,-19.921 -11.323,-18.263 -11.882,-16.494C-12.441,-14.723 -12.629,-13 -12.441,-11.322L-4.333,-11.322C-3.588,-10.296 -2.983,-9.132 -2.516,-7.827C-2.051,-6.521 -1.817,-5.356 -1.817,-4.333C-1.817,-2.748 -2.051,-1.232 -2.516,0.21C-2.983,1.657 -3.588,2.937 -4.333,4.056L-19.99,4.056C-21.481,0.609 -22.32,-2.7 -22.506,-5.871C-22.506,-11.183 -21.506,-15.632 -19.501,-19.22C-17.498,-22.808 -15.027,-25.698 -12.092,-27.887C-9.156,-30.076 -5.965,-31.545 -2.516,-32.292L0,-28.236ZM-28.797,-28.236C-30.754,-27.679 -32.525,-26.792 -34.109,-25.582C-35.695,-24.369 -37.044,-22.996 -38.163,-21.458C-39.282,-19.921 -40.12,-18.263 -40.679,-16.494C-41.238,-14.723 -41.426,-13 -41.238,-11.322L-33.131,-11.322C-32.386,-10.296 -31.781,-9.132 -31.313,-7.827C-30.848,-6.521 -30.614,-5.356 -30.614,-4.333C-30.614,-2.748 -30.848,-1.232 -31.313,0.21C-31.781,1.657 -32.386,2.937 -33.131,4.056L-48.788,4.056C-50.279,0.609 -51.118,-2.7 -51.304,-5.871C-51.304,-11.183 -50.304,-15.632 -48.298,-19.22C-46.295,-22.808 -43.825,-25.698 -40.889,-27.887C-37.954,-30.076 -34.763,-31.545 -31.313,-32.292L-28.797,-28.236Z" style="fill:rgb(64,63,65);fill-rule:nonzero;"/>
                        </g>
                        <g transform="matrix(1,0,0,1,122.506,114.971)">
                            <path d="M0,28.236C1.957,27.678 3.729,26.791 5.312,25.581C6.898,24.368 8.248,22.995 9.366,21.457C10.484,19.92 11.323,18.262 11.882,16.493C12.441,14.722 12.628,12.999 12.441,11.321L4.333,11.321C3.588,10.295 2.983,9.131 2.516,7.826C2.05,6.52 1.817,5.356 1.817,4.332C1.817,2.747 2.05,1.232 2.516,-0.211C2.983,-1.658 3.588,-2.938 4.333,-4.056L19.99,-4.056C21.481,-0.61 22.32,2.699 22.506,5.87C22.506,11.182 21.506,15.631 19.501,19.219C17.498,22.807 15.027,25.697 12.092,27.886C9.156,30.075 5.965,31.545 2.516,32.292L0,28.236ZM28.797,28.236C30.754,27.678 32.525,26.791 34.109,25.581C35.695,24.368 37.044,22.995 38.163,21.457C39.282,19.92 40.12,18.262 40.679,16.493C41.238,14.722 41.426,12.999 41.238,11.321L33.131,11.321C32.386,10.295 31.781,9.131 31.313,7.826C30.848,6.52 30.614,5.356 30.614,4.332C30.614,2.747 30.848,1.232 31.313,-0.211C31.781,-1.658 32.386,-2.938 33.131,-4.056L48.788,-4.056C50.279,-0.61 51.118,2.699 51.304,5.87C51.304,11.182 50.303,15.631 48.298,19.219C46.295,22.807 43.825,25.697 40.889,27.886C37.954,30.075 34.762,31.545 31.313,32.292L28.797,28.236Z" style="fill:rgb(64,63,65);fill-rule:nonzero;"/>
                        </g>
                    </g>
                </g>
            </g>
        </g>
    </g>
</svg>
