<?xml version="1.0" encoding="UTF-8" standalone="no"?>
<!DOCTYPE svg PUBLIC "-//W3C//DTD SVG 1.1//EN" "http://www.w3.org/Graphics/SVG/1.1/DTD/svg11.dtd">
<svg width="100%" height="100%" viewBox="0 0 500 500" version="1.1" xmlns="http://www.w3.org/2000/svg" xmlns:xlink="http://www.w3.org/1999/xlink" xml:space="preserve" xmlns:serif="http://www.serif.com/" style="fill-rule:evenodd;clip-rule:evenodd;stroke-linejoin:round;stroke-miterlimit:2;">
    <g transform="matrix(1,0,0,1,0,-2500)">
        <g transform="matrix(0.975452,0,0,0.965475,0,86.245)">
            <rect id="engage" x="0" y="2500.07" width="512.583" height="517.88" style="fill:none;"/>
            <g id="engage1" serif:id="engage">
                <g transform="matrix(2.88079,0,0,2.91056,-31.7879,2474.78)">
                    <g id="Layer-1" serif:id="Layer 1">
                        <g transform="matrix(1,0,0,1,164.555,33.7559)">
                            <path d="M0,66.846L-52.886,66.846C-56.741,66.846 -59.866,63.721 -59.866,59.866L-59.866,5.48C-59.866,2.453 -57.413,0 -54.386,0L1.5,0C4.526,0 6.98,2.453 6.98,5.48L6.98,59.866C6.98,63.721 3.855,66.846 0,66.846" style="fill:rgb(242,242,242);fill-rule:nonzero;"/>
                        </g>
                        <g transform="matrix(1,0,0,1,171.535,33.5102)">
                            <path d="M0,18.204L-66.846,18.204L-66.846,5.985C-66.846,2.68 -64.166,0 -60.86,0L-5.986,0C-2.68,0 0,2.68 0,5.985L0,18.204Z" style="fill:rgb(4,59,90);fill-rule:nonzero;"/>
                        </g>
                        <g transform="matrix(-1,0,-0,1,276.224,-93.793)">
                            <rect x="104.689" y="145.508" width="66.846" height="2.777" style="fill:rgb(6,38,55);"/>
                        </g>
                        <g transform="matrix(1,0,0,1,119.851,26.1458)">
                            <path d="M0,14.211L-2.904,14.211C-4.842,14.211 -6.413,12.64 -6.413,10.702L-6.413,3.509C-6.413,1.57 -4.842,0 -2.904,0L0,0C1.937,0 3.508,1.57 3.508,3.509L3.508,10.702C3.508,12.64 1.937,14.211 0,14.211" style="fill:rgb(252,206,85);fill-rule:nonzero;"/>
                        </g>
                        <g transform="matrix(1,0,0,1,158.883,26.1458)">
                            <path d="M0,14.211L-2.904,14.211C-4.842,14.211 -6.413,12.64 -6.413,10.702L-6.413,3.509C-6.413,1.57 -4.842,0 -2.904,0L0,0C1.938,0 3.509,1.57 3.509,3.509L3.509,10.702C3.509,12.64 1.938,14.211 0,14.211" style="fill:rgb(252,206,85);fill-rule:nonzero;"/>
                        </g>
                        <g transform="matrix(1,0,0,1,142.558,83.1625)">
                            <path d="M0,-11.63C0,-13.535 -1.865,-14.648 -4.446,-14.648C-7.065,-14.648 -8.931,-13.535 -8.931,-11.63C-8.931,-9.646 -6.073,-8.733 -4.446,-8.494C-2.818,-8.733 0,-9.646 0,-11.63M0.476,-0.198C0.476,-2.421 -2.818,-3.493 -4.446,-3.732C-6.113,-3.493 -9.368,-2.421 -9.368,-0.198C-9.368,1.747 -7.224,3.016 -4.446,3.016C-1.747,3.016 0.476,1.747 0.476,-0.198M-15.083,0.515C-15.083,-2.699 -12.583,-5.16 -9.407,-6.272C-12.345,-7.304 -14.647,-9.209 -14.647,-12.504C-14.647,-17.465 -9.368,-19.489 -4.446,-19.489C0.437,-19.489 5.756,-17.465 5.756,-12.504C5.756,-9.209 3.414,-7.304 0.476,-6.272C3.652,-5.16 6.192,-2.699 6.192,0.515C6.192,5.438 1.111,7.859 -4.446,7.859C-10.003,7.859 -15.083,5.477 -15.083,0.515" style="fill:rgb(54,70,87);fill-rule:nonzero;"/>
                        </g>
                        <g transform="matrix(1,0,0,1,55.8804,63.3472)">
                            <path d="M0,6.2C3.815,7.503 5.546,6.943 8.423,3.426C12.597,3.426 16.831,3.428 21.064,3.424C21.729,3.423 22.404,3.465 23.055,3.364C24.083,3.206 24.854,2.293 24.903,1.316C24.957,0.232 24.18,-0.868 23.122,-1.072C22.559,-1.182 21.964,-1.14 21.383,-1.14C18.309,-1.141 15.234,-1.133 12.16,-1.129C10.928,-1.128 9.697,-1.129 8.482,-1.129C7.554,-3.226 6.175,-4.69 4.074,-5.028C2.876,-5.22 2.406,-5.853 1.907,-6.755C0.627,-9.071 -0.687,-11.371 -2.053,-13.638C-2.471,-14.332 -3.013,-15.021 -3.656,-15.499C-5.449,-16.833 -7.928,-15.663 -7.965,-13.415C-7.981,-12.489 -7.585,-11.482 -7.138,-10.639C-5.858,-8.229 -4.47,-5.876 -3.094,-3.519C-2.709,-2.859 -2.288,-2.235 -2.637,-1.44C-3.427,0.365 -3.123,2.114 -2.398,3.847C-5.406,6.915 -8.417,9.98 -11.422,13.051C-11.884,13.522 -12.378,13.976 -12.761,14.509C-13.186,15.099 -13.16,15.757 -12.65,16.322C-12.065,16.971 -11.351,17.063 -10.657,16.572C-10.123,16.194 -9.675,15.69 -9.203,15.227C-6.133,12.22 -3.067,9.21 0,6.2M-23.491,-8.079L-23.377,-8.583C-22.436,-8.492 -22.359,-9.366 -22.118,-9.873C-20.329,-13.633 -17.42,-16.406 -14.117,-18.738C-10.914,-20.999 -7.406,-22.593 -3.413,-23.176C0.169,-23.698 4.357,-23.624 7.717,-22.713C9.951,-22.108 11.956,-21.074 13.993,-20.073C17.482,-18.358 20.157,-15.617 22.369,-12.556C24.75,-9.261 26.357,-5.569 27.076,-1.438C27.539,1.224 27.583,3.867 27.293,6.43C26.941,9.545 25.804,12.548 24.223,15.335C23.798,16.084 23.68,17.008 23.421,17.85C19.241,23.15 13.76,26.171 7.156,27.408C-6.132,29.898 -19.39,21.752 -23.559,9.165C-25.407,3.583 -25.621,-2.003 -23.715,-7.615C-23.64,-7.77 -23.566,-7.924 -23.491,-8.079" style="fill:rgb(253,253,253);fill-rule:nonzero;"/>
                        </g>
                        <g transform="matrix(1,0,0,1,79.3018,35.4016)">
                            <path d="M0,45.796C0.259,44.953 0.376,44.029 0.802,43.28C2.383,40.493 3.52,37.49 3.872,34.376C4.161,31.813 4.118,29.17 3.655,26.508C2.936,22.377 1.329,18.685 -1.052,15.39C-3.264,12.328 -5.939,9.588 -9.429,7.872C-11.465,6.871 -13.47,5.838 -15.704,5.233C-19.064,4.321 -23.252,4.247 -26.834,4.77C-30.828,5.353 -34.335,6.946 -37.538,9.207C-40.841,11.539 -43.75,14.313 -45.54,18.072C-45.781,18.579 -45.857,19.453 -46.798,19.362C-46.036,16.259 -44.398,13.594 -42.415,11.17C-37.654,5.355 -31.519,1.73 -24.037,0.995C-13.909,0 -5.498,3.641 0.828,11.624C5.273,17.234 7.092,23.799 6.398,30.901C5.854,36.483 3.994,41.632 0,45.796" style="fill:rgb(213,213,214);fill-rule:nonzero;"/>
                        </g>
                        <g transform="matrix(0.243785,0,0,0.243785,-1.79409,-485.217)">
                            <path d="M246.143,2102.04C328.366,2102.04 395.12,2168.8 395.12,2251.02C395.12,2333.24 328.366,2400 246.143,2400C163.921,2400 97.166,2333.24 97.166,2251.02C97.166,2168.8 163.921,2102.04 246.143,2102.04ZM246.143,2138.82C308.067,2138.82 358.342,2189.1 358.342,2251.02C358.342,2312.94 308.067,2363.22 246.143,2363.22C184.219,2363.22 133.945,2312.94 133.945,2251.02C133.945,2189.1 184.219,2138.82 246.143,2138.82Z" style="fill:rgb(45,64,81);"/>
                        </g>
                        <g transform="matrix(1,0,0,1,32.3892,55.7319)">
                            <path d="M0,-0.464C-0.075,-0.309 -0.149,-0.154 -0.224,0C-0.222,-0.129 -0.238,-0.262 -0.209,-0.385C-0.2,-0.425 -0.073,-0.438 0,-0.464" style="fill:rgb(213,213,214);fill-rule:nonzero;"/>
                        </g>
                        <g transform="matrix(1,0,0,1,53.4824,50.1686)">
                            <path d="M0,17.026C-0.725,15.293 -1.029,13.544 -0.239,11.739C0.11,10.944 -0.311,10.32 -0.696,9.66C-2.072,7.302 -3.46,4.95 -4.74,2.54C-5.187,1.697 -5.583,0.689 -5.567,-0.237C-5.53,-2.485 -3.051,-3.655 -1.258,-2.321C-0.615,-1.842 -0.073,-1.154 0.345,-0.459C1.711,1.807 3.025,4.107 4.305,6.423C4.804,7.326 5.274,7.959 6.472,8.151C8.573,8.489 9.952,9.953 10.88,12.049C12.095,12.049 13.326,12.05 14.558,12.049C17.632,12.046 20.707,12.038 23.781,12.039C24.362,12.039 24.957,11.997 25.52,12.106C26.578,12.31 27.355,13.411 27.301,14.495C27.252,15.471 26.481,16.384 25.453,16.543C24.802,16.643 24.127,16.601 23.462,16.602C19.229,16.606 14.995,16.604 10.821,16.604C7.944,20.122 6.213,20.681 2.398,19.379C2.955,18.77 3.503,18.154 4.071,17.556C4.7,16.895 5.378,16.28 5.977,15.593C6.535,14.954 6.523,14.227 5.995,13.563C5.468,12.901 4.577,12.853 3.786,13.453C3.393,13.752 3.069,14.141 2.707,14.482C1.807,15.333 0.903,16.178 0,17.026" style="fill:rgb(47,65,82);fill-rule:nonzero;"/>
                        </g>
                        <g transform="matrix(1,0,0,1,53.4824,76.2376)">
                            <path d="M0,-9.043C0.903,-9.891 1.807,-10.736 2.707,-11.587C3.069,-11.928 3.393,-12.317 3.786,-12.616C4.577,-13.216 5.468,-13.168 5.995,-12.506C6.523,-11.842 6.535,-11.115 5.977,-10.476C5.378,-9.789 4.7,-9.174 4.071,-8.513C3.503,-7.915 2.955,-7.299 2.398,-6.69C-0.669,-3.681 -3.735,-0.67 -6.805,2.337C-7.277,2.8 -7.725,3.304 -8.259,3.682C-8.953,4.173 -9.667,4.081 -10.252,3.432C-10.762,2.866 -10.788,2.209 -10.363,1.618C-9.98,1.086 -9.486,0.632 -9.024,0.16C-6.019,-2.91 -3.008,-5.976 0,-9.043" style="fill:rgb(14,175,80);fill-rule:nonzero;"/>
                        </g>
                        <g transform="matrix(1,0,0,1,50.9448,134.622)">
                            <path d="M0,-21.138C-10.295,-16.625 -13.383,-14.219 -14.604,-13.139C-16.486,-11.474 -17.526,-5.269 -18.636,0L27.948,0C26.838,-5.269 25.797,-11.474 23.917,-13.139C22.696,-14.219 19.721,-16.563 9.425,-21.076L0,-21.138Z" style="fill:rgb(253,221,204);"/>
                        </g>
                        <g transform="matrix(1,0,0,1,50.9443,134.622)">
                            <path d="M0,-21.138C-10.295,-16.625 -13.383,-14.219 -14.604,-13.139C-16.485,-11.474 -17.525,-5.269 -18.635,0L27.948,0C26.839,-5.269 25.798,-11.474 23.917,-13.139C22.697,-14.219 19.722,-16.563 9.426,-21.076L0,-21.138Z" style="fill:rgb(237,238,239);"/>
                        </g>
                        <g transform="matrix(1,0,0,1,50.6025,113.104)">
                            <path d="M0,-8.617L0,2.795C2.749,6.045 7.248,6.162 9.997,2.795L9.997,-8.617C9.997,-14.779 0,-14.779 0,-8.617" style="fill:rgb(248,201,173);"/>
                        </g>
                        <g transform="matrix(1,0,0,1,45.1772,102.825)">
                            <path d="M0,-5.512C0.88,-5.803 2,-4.803 2.501,-3.281C3.003,-1.758 2.696,-0.288 1.815,0.002C0.935,0.291 -0.186,-0.707 -0.687,-2.231C-1.188,-3.753 -0.881,-5.222 0,-5.512" style="fill:rgb(248,201,173);"/>
                        </g>
                        <g transform="matrix(1,0,0,1,65.9814,102.825)">
                            <path d="M0,-5.512C-0.881,-5.803 -2.001,-4.803 -2.503,-3.281C-3.004,-1.758 -2.696,-0.288 -1.816,0.002C-0.936,0.291 0.185,-0.707 0.686,-2.231C1.187,-3.753 0.879,-5.222 0,-5.512" style="fill:rgb(248,201,173);"/>
                        </g>
                        <g transform="matrix(1,0,0,1,55.6274,134.621)">
                            <path d="M0,-16.241C0,-16.241 -6.976,-14.576 -6.976,-14.154C-6.976,-13.731 -4.322,0 -4.322,0L5.149,0L6.235,-14.094L0,-16.241Z" style="fill:rgb(52,52,52);"/>
                        </g>
                        <g transform="matrix(1,0,0,1,50.6025,134.621)">
                            <path d="M0,-20.987L0,-18.722L2.172,0L-1.562,0L-5.67,-8.339L-1.749,-10.953L-6.541,-13.193L-2.134,-20.031L0,-20.987Z" style="fill:rgb(26,26,26);"/>
                        </g>
                        <g transform="matrix(1,0,0,1,60.5996,134.622)">
                            <path d="M0,-20.977L0,-18.723L-2.192,0L1.541,0L5.648,-8.339L1.728,-10.954L6.52,-13.194L2.604,-19.821L0,-20.977Z" style="fill:rgb(26,27,27);"/>
                        </g>
                        <g transform="matrix(1,0,0,1,53.4517,120.256)">
                            <path d="M0,0.44L1.21,2.315L3.088,2.315L4.299,0.44L2.176,-1.875L0,0.44Z" style="fill:rgb(14,175,80);"/>
                        </g>
                        <g transform="matrix(-0.141617,0.989922,0.989922,0.141617,61.6989,128.52)">
                            <path d="M-4.893,-7.808L7.281,-7.808L6.527,-2.536L-5.159,-5.95L-4.893,-7.808Z" style="fill:rgb(14,175,80);"/>
                        </g>
                        <g transform="matrix(-0.248965,0.968513,0.968513,0.248965,58.578,116.495)">
                            <path d="M-2.245,-8.812L-0.49,-8.812L7.78,-5.423L2.561,-2.388L-2.245,-8.812Z" style="fill:rgb(52,52,52);"/>
                        </g>
                        <g opacity="0.2">
                            <g transform="matrix(1,0,0,1,50.6025,113.623)">
                                <clipPath id="_clip1">
                                    <rect x="0" y="-3.61" width="9.997" height="3.504" clip-rule="nonzero"/>
                                </clipPath>
                                <g clip-path="url(#_clip1)">
                                    <path d="M0,-3.61L0,-3.25C0,-3.25 2.554,-0.218 4.99,-0.109C7.425,0 9.997,-3.044 9.997,-3.044L9.997,-3.598" style="fill:rgb(3,4,5);fill-rule:nonzero;"/>
                                </g>
                            </g>
                        </g>
                        <g transform="matrix(1,0,0,1,55.6094,112.38)">
                            <path d="M0,-28.382C-15.378,-28.382 -9.484,-7.317 -8.479,-5.702C-7.372,-3.923 -2.484,0 0,0C2.485,0 7.372,-3.923 8.48,-5.702C9.485,-7.317 15.379,-28.382 0,-28.382" style="fill:rgb(248,201,173);"/>
                        </g>
                        <g transform="matrix(0.201967,0.979392,0.979392,-0.201967,63.9642,118.638)">
                            <path d="M-7.057,-1.98L-5.349,-1.98L3.202,-4.917L-1.936,-8.113L-7.057,-1.98Z" style="fill:rgb(52,52,52);"/>
                        </g>
                        <g opacity="0.05">
                            <g transform="matrix(1,0,0,1,50.6025,118.232)">
                                <path d="M0,-6.106L5.025,0.148L9.997,-6.106L9.997,-6.254L5.025,-0.029L0,-6.254L0,-6.106Z" style="fill:rgb(3,4,5);fill-rule:nonzero;"/>
                            </g>
                        </g>
                        <g opacity="0.1">
                            <g transform="matrix(1,0,0,1,54.6621,122.633)">
                                <rect x="-0.009" y="-0.062" width="1.895" height="0.062" style="fill:rgb(3,4,5);"/>
                            </g>
                        </g>
                        <g transform="matrix(1,0,0,1,51.0483,102.715)">
                            <path d="M0,-6.649C-1.587,-6.734 -3.689,-6.534 -4.077,-6.4C-4.576,-6.228 -4.592,-6.183 -4.627,-5.778C-4.661,-5.373 -4.608,-5.023 -4.321,-4.919C-3.928,-4.777 -3.941,-4.234 -3.725,-2.675C-3.531,-1.257 -2.984,-0.137 -0.494,0.061C-0.367,0.073 -0.243,0.077 -0.123,0.078L-0.116,-0.318C-1.26,-0.309 -2.533,-0.742 -2.961,-1.627C-3.563,-2.868 -3.647,-5.377 -2.809,-5.902C-2.447,-6.128 -1.248,-6.285 -0.007,-6.228L0,-6.649ZM4.771,-5.846C4.219,-5.834 1.959,-6.485 0.352,-6.624C0.238,-6.634 0.121,-6.643 0,-6.649L-0.007,-6.228C1.3,-6.169 2.652,-5.873 3.115,-5.175C3.875,-4.031 2.51,-1.233 1.274,-0.61C0.899,-0.421 0.404,-0.324 -0.116,-0.318L-0.123,0.078C2.04,0.08 2.84,-1.479 3.106,-2C3.609,-2.979 3.505,-4.33 4.744,-4.332C5.98,-4.335 5.818,-3.009 6.26,-2.031C6.499,-1.503 7.201,0.118 9.446,0.054L9.452,-0.34C8.898,-0.333 8.371,-0.427 7.985,-0.626C6.789,-1.244 5.591,-4.034 6.422,-5.181C6.923,-5.875 8.265,-6.177 9.56,-6.247L9.567,-6.667C9.468,-6.662 9.37,-6.655 9.275,-6.645C7.827,-6.513 6.072,-5.88 4.771,-5.846M9.446,0.054C9.531,0.051 9.621,0.046 9.713,0.038C12.215,-0.17 12.831,-1.295 13.112,-2.714C13.421,-4.274 13.441,-4.817 13.844,-4.96C14.139,-5.066 14.211,-5.415 14.203,-5.822C14.192,-6.226 14.179,-6.27 13.691,-6.439C13.305,-6.574 11.169,-6.767 9.567,-6.667L9.56,-6.247C10.822,-6.316 12.04,-6.164 12.393,-5.935C13.196,-5.416 12.961,-2.906 12.284,-1.662C11.815,-0.798 10.572,-0.359 9.452,-0.34L9.446,0.054Z" style="fill:rgb(64,63,65);"/>
                        </g>
                        <g transform="matrix(1,0,0,1,36.2251,138.72)">
                            <path d="M0,-29.3C0.946,-31.042 8.488,-32.579 11.565,-26.384C14.642,-20.19 13.092,-18.02 14.789,-15.833C16.487,-13.647 12.483,3.279 3.004,3.223C-7.128,3.165 -9.338,-13.024 -7.322,-16.303C-5.306,-19.582 -7.067,-29.305 0,-29.3" style="fill:rgb(35,31,32);"/>
                        </g>
                        <g transform="matrix(1,0,0,1,43.6602,154.735)">
                            <path d="M0,-16.505C-0.086,-16.37 -8.526,-16.235 -8.62,-16.103C-11.271,-12.321 -16.999,-11.623 -21.553,-10.605C-26.085,-9.592 -26.26,-3.834 -26.267,0L17.917,0C17.91,-3.834 17.825,-9.57 13.201,-10.605C8.578,-11.639 2.515,-12.552 0,-16.505" style="fill:rgb(6,103,56);"/>
                        </g>
                        <g transform="matrix(1,0,0,1,43.917,154.361)">
                            <path d="M0,-15.756L0,-13.675L-2.156,0.374L-6.751,0.374L-8.888,-13.524L-8.888,-15.71C-8.883,-15.715 -8.881,-15.723 -8.876,-15.728C-8.782,-15.861 -0.343,-15.996 -0.257,-16.13C-0.175,-16.003 -0.091,-15.878 0,-15.756" style="fill:rgb(14,175,80);"/>
                        </g>
                        <g transform="matrix(1,0,0,1,35.0581,138.84)">
                            <path d="M0,-9.646L0,1.2C2.218,5.738 6.2,5.855 8.854,1.2L8.854,-9.646C8.854,-15.501 0,-15.501 0,-9.646" style="fill:rgb(247,220,194);"/>
                        </g>
                        <g transform="matrix(1,0,0,1,51.1621,129.936)">
                            <path d="M0,-5.806C-0.885,-6.204 -2.133,-5.227 -2.79,-3.624C-3.447,-2.021 -3.263,-0.398 -2.378,0C-1.494,0.398 -0.244,-0.578 0.412,-2.182C1.069,-3.785 0.884,-5.408 0,-5.806" style="fill:rgb(247,220,194);"/>
                        </g>
                        <g transform="matrix(1,0,0,1,27.8159,129.936)">
                            <path d="M0,-5.806C0.884,-6.204 2.133,-5.228 2.791,-3.624C3.447,-2.021 3.263,-0.398 2.378,0C1.494,0.398 0.245,-0.578 -0.412,-2.182C-1.069,-3.785 -0.884,-5.408 0,-5.806" style="fill:rgb(247,220,194);"/>
                        </g>
                        <g opacity="0.2">
                            <g transform="matrix(1,0,0,1,35.0581,137.664)">
                                <path d="M0,-3.076L0,-2.773C0,-2.773 2.778,0 4.386,0C5.993,0 8.854,-2.805 8.854,-2.805L8.854,-3.076L0,-3.076Z" style="fill:rgb(3,4,5);"/>
                            </g>
                        </g>
                        <g transform="matrix(1,0,0,1,39.4937,109.723)">
                            <path d="M0,26.973C-2.749,26.973 -8.557,22.442 -10.352,15.952C-12.165,9.399 -8.75,0 0,0C8.75,0 12.165,9.399 10.351,15.952C8.555,22.442 2.749,26.973 0,26.973" style="fill:rgb(247,220,194);"/>
                        </g>
                        <g transform="matrix(1,0,0,1,41.2725,118.665)">
                            <path d="M0,-0.816C2.147,3.686 3.019,5.015 5.873,3.827C8.728,2.638 8.186,5.969 7.667,8.345C10.195,5.136 9.898,2.087 9.112,-1.011C8.25,-4.407 3.904,-9.574 -0.173,-9.479C-2.389,-9.712 -5.741,-9.437 -9.308,-6.866C-15.536,-2.378 -13.456,7.706 -11.778,8.896C-13.403,-0.444 -9.424,1.457 -6.679,-3.428C-5.777,-5.577 -2.333,-5.71 0,-0.816" style="fill:rgb(35,31,32);"/>
                        </g>
                        <g transform="matrix(1,0,0,1,37.2017,138.576)">
                            <path d="M0,16.155L-3.734,16.155L-3.99,16.159L-7.842,12.646L-3.921,10.032L-8.712,7.79L-5.54,2.864L-4.307,0.952L-2.172,-0.004L-2.172,2.261L-0.036,16.159L0,16.155Z" style="fill:rgb(237,238,239);"/>
                        </g>
                        <g transform="matrix(1,0,0,1,45.646,144.713)">
                            <path d="M0,3.743L3.919,6.357L0.06,10.021L-0.187,10.017L-3.921,10.017L-3.885,10.021L-1.729,-4.028L-1.729,-6.278L0.875,-5.123L2.024,-3.176L4.79,1.504L0,3.743Z" style="fill:rgb(237,238,239);"/>
                        </g>
                        <g transform="matrix(1,0,0,1,129.751,117.656)">
                            <path d="M0,-29.3C0.521,-31.042 4.666,-32.579 6.357,-26.384C8.049,-20.19 7.197,-18.02 8.13,-15.833C9.064,-13.647 6.862,3.279 1.652,3.223C-3.918,3.165 -5.133,-13.024 -4.025,-16.303C-2.917,-19.582 -3.885,-29.304 0,-29.3" style="fill:rgb(64,63,65);"/>
                        </g>
                        <g transform="matrix(1,0,0,1,148.083,117.656)">
                            <path d="M0,-29.3C-0.52,-31.042 -4.666,-32.579 -6.357,-26.384C-8.049,-20.19 -7.197,-18.02 -8.13,-15.833C-9.063,-13.647 -6.862,3.279 -1.651,3.223C3.918,3.165 5.133,-13.024 4.025,-16.303C2.917,-19.582 3.885,-29.304 0,-29.3" style="fill:rgb(64,63,65);"/>
                        </g>
                        <g transform="matrix(1,0,0,1,143.426,130.273)">
                            <path d="M0,-16.505C-0.086,-16.37 -8.526,-16.235 -8.62,-16.103C-11.271,-12.321 -16.998,-11.623 -21.553,-10.605C-26.085,-9.592 -26.26,-3.834 -26.267,0L17.917,0C17.91,-3.834 17.825,-9.57 13.201,-10.605C8.578,-11.639 2.515,-12.552 0,-16.505" style="fill:rgb(6,103,56);"/>
                        </g>
                        <g transform="matrix(1,0,0,1,143.683,129.899)">
                            <path d="M0,-15.756L0,-13.675L-2.156,0.374L-6.751,0.374L-8.888,-13.524L-8.888,-15.71C-8.883,-15.715 -8.881,-15.723 -8.876,-15.728C-8.782,-15.861 -0.343,-15.996 -0.256,-16.13C-0.175,-16.003 -0.091,-15.878 0,-15.756" style="fill:rgb(14,175,80);"/>
                        </g>
                        <g transform="matrix(1,0,0,1,134.824,114.378)">
                            <path d="M0,-9.646L0,1.2C2.218,5.738 6.2,5.855 8.854,1.2L8.854,-9.646C8.854,-15.501 0,-15.501 0,-9.646" style="fill:rgb(247,220,185);"/>
                        </g>
                        <g transform="matrix(1,0,0,1,150.928,105.474)">
                            <path d="M0,-5.806C-0.884,-6.204 -2.133,-5.227 -2.79,-3.624C-3.447,-2.021 -3.263,-0.398 -2.378,0C-1.494,0.398 -0.244,-0.578 0.412,-2.182C1.069,-3.785 0.884,-5.408 0,-5.806" style="fill:rgb(247,220,185);"/>
                        </g>
                        <g transform="matrix(1,0,0,1,127.582,105.474)">
                            <path d="M0,-5.806C0.884,-6.204 2.133,-5.228 2.791,-3.624C3.447,-2.021 3.263,-0.398 2.378,0C1.494,0.398 0.245,-0.578 -0.412,-2.182C-1.069,-3.785 -0.884,-5.408 0,-5.806" style="fill:rgb(247,220,185);"/>
                        </g>
                        <g opacity="0.2">
                            <g transform="matrix(1,0,0,1,134.824,113.202)">
                                <path d="M0,-3.076L0,-2.773C0,-2.773 2.778,0 4.386,0C5.993,0 8.854,-2.805 8.854,-2.805L8.854,-3.076L0,-3.076Z" style="fill:rgb(3,4,5);"/>
                            </g>
                        </g>
                        <g transform="matrix(1,0,0,1,139.26,85.2607)">
                            <path d="M0,26.973C-2.749,26.973 -8.557,22.442 -10.352,15.952C-12.165,9.4 -8.75,0 0,0C8.75,0 12.165,9.4 10.351,15.952C8.555,22.442 2.749,26.973 0,26.973" style="fill:rgb(247,220,185);"/>
                        </g>
                        <g transform="matrix(1,0,0,1,150.15,94.5357)">
                            <path d="M0,-1.344C-0.862,-4.74 -5.208,-9.907 -9.285,-9.812C-9.872,-9.873 -10.541,-9.897 -11.271,-9.854C-12,-9.897 -12.669,-9.873 -13.256,-9.812C-17.333,-9.907 -21.68,-4.74 -22.542,-1.344C-23.234,1.386 -23.546,4.077 -21.881,6.874C-21.582,7.719 -21.229,8.324 -20.89,8.563C-21.264,6.416 -21.34,4.863 -21.205,3.684C-20.893,3.219 -20.31,3.075 -19.303,3.494C-16.448,4.682 -15.577,3.353 -13.43,-1.149C-12.771,-2.53 -12.264,-4.158 -11.271,-4.158C-10.277,-4.158 -9.771,-2.53 -9.112,-1.149C-6.964,3.353 -6.093,4.682 -3.238,3.494C-2.231,3.075 -1.648,3.219 -1.337,3.684C-1.201,4.863 -1.277,6.416 -1.651,8.563C-1.313,8.324 -0.959,7.719 -0.66,6.874C1.004,4.077 0.693,1.386 0,-1.344" style="fill:rgb(64,63,65);"/>
                        </g>
                        <g transform="matrix(1,0,0,1,136.968,114.114)">
                            <path d="M0,16.155L-3.734,16.155L-3.991,16.159L-7.842,12.646L-3.921,10.032L-8.713,7.79L-5.54,2.864L-4.308,0.952L-2.173,-0.004L-2.173,2.261L-0.036,16.159L0,16.155Z" style="fill:rgb(237,238,239);"/>
                        </g>
                        <g transform="matrix(1,0,0,1,145.412,120.251)">
                            <path d="M0,3.743L3.919,6.357L0.06,10.021L-0.187,10.017L-3.921,10.017L-3.885,10.021L-1.729,-4.028L-1.729,-6.278L0.875,-5.123L2.024,-3.176L4.79,1.504L0,3.743Z" style="fill:rgb(237,238,239);"/>
                        </g>
                        <g transform="matrix(1,0,0,1,154.659,154.767)">
                            <path d="M0,-21.138C-10.295,-16.625 -13.383,-14.219 -14.604,-13.139C-16.485,-11.474 -17.525,-5.269 -18.635,0L27.948,0C26.839,-5.269 25.798,-11.474 23.917,-13.139C22.697,-14.219 19.721,-16.563 9.426,-21.077L0,-21.138Z" style="fill:rgb(253,221,204);"/>
                        </g>
                        <g transform="matrix(1,0,0,1,154.659,154.767)">
                            <path d="M0,-21.138C-10.295,-16.625 -13.383,-14.219 -14.604,-13.139C-16.485,-11.474 -17.525,-5.269 -18.635,0L27.948,0C26.839,-5.269 25.798,-11.474 23.917,-13.139C22.697,-14.219 19.721,-16.563 9.426,-21.077L0,-21.138Z" style="fill:rgb(11,77,41);"/>
                        </g>
                        <g transform="matrix(1,0,0,1,154.317,133.249)">
                            <path d="M0,-8.617L0,2.794C2.749,6.045 7.248,6.162 9.997,2.794L9.997,-8.617C9.997,-14.779 0,-14.779 0,-8.617" style="fill:rgb(218,177,138);"/>
                        </g>
                        <g transform="matrix(1,0,0,1,148.892,122.97)">
                            <path d="M0,-5.512C0.88,-5.803 2,-4.803 2.501,-3.281C3.003,-1.758 2.696,-0.288 1.815,0.001C0.935,0.291 -0.186,-0.707 -0.687,-2.231C-1.188,-3.753 -0.881,-5.223 0,-5.512" style="fill:rgb(247,209,175);"/>
                        </g>
                        <g transform="matrix(1,0,0,1,169.696,122.97)">
                            <path d="M0,-5.512C-0.881,-5.803 -2.002,-4.803 -2.503,-3.281C-3.004,-1.758 -2.696,-0.288 -1.817,0.001C-0.936,0.291 0.185,-0.707 0.686,-2.231C1.187,-3.753 0.879,-5.223 0,-5.512" style="fill:rgb(247,209,175);"/>
                        </g>
                        <g transform="matrix(1,0,0,1,157.166,140.402)">
                            <path d="M0,0.438L1.21,2.314L3.088,2.314L4.299,0.438L2.175,-1.876L0,0.438Z" style="fill:rgb(14,175,80);"/>
                        </g>
                        <g transform="matrix(-0.141617,0.989922,0.989922,0.141617,165.414,148.665)">
                            <path d="M-4.893,-7.808L7.281,-7.808L6.527,-2.536L-5.159,-5.95L-4.893,-7.808Z" style="fill:rgb(14,175,80);"/>
                        </g>
                        <g transform="matrix(-0.248965,0.968513,0.968513,0.248965,162.292,136.641)">
                            <path d="M-2.246,-8.811L-0.491,-8.811L7.779,-5.423L2.56,-2.389L-2.246,-8.811Z" style="fill:rgb(237,238,239);"/>
                        </g>
                        <g opacity="0.2">
                            <g transform="matrix(1,0,0,1,154.317,133.768)">
                                <clipPath id="_clip2">
                                    <rect x="-0" y="-3.611" width="9.998" height="3.504" clip-rule="nonzero"/>
                                </clipPath>
                                <g clip-path="url(#_clip2)">
                                    <path d="M0,-3.611L0,-3.25C0,-3.25 2.554,-0.218 4.989,-0.109C7.425,0 9.997,-3.044 9.997,-3.044L9.997,-3.598" style="fill:rgb(3,4,5);fill-rule:nonzero;"/>
                                </g>
                            </g>
                        </g>
                        <g transform="matrix(1,0,0,1,159.324,132.526)">
                            <path d="M0,-28.382C-15.378,-28.382 -9.484,-7.317 -8.48,-5.703C-7.372,-3.923 -2.484,0 0,0C2.485,0 7.372,-3.923 8.48,-5.703C9.485,-7.317 15.379,-28.382 0,-28.382" style="fill:rgb(218,177,138);"/>
                        </g>
                        <g transform="matrix(1,0,0,1,160.487,114.241)">
                            <path d="M0,-5.588C0.086,-5.615 0.173,-5.64 0.259,-5.665C0.131,-5.634 0.002,-5.601 -0.126,-5.565C-0.084,-5.573 -0.042,-5.58 0,-5.588M-7.872,-9.605C-2.678,-13.692 7.562,-13.108 9.984,-9.702C9.007,-6.278 9.722,2.884 9.004,7.747C9.005,7.739 9.004,7.733 9.005,7.725C8.997,7.774 8.987,7.824 8.974,7.877C8.963,7.916 8.877,8.028 8.86,8.058C8.835,8.104 8.646,8.055 8.584,8.024C8.562,8.015 8.551,7.984 8.55,7.96C8.521,7.53 8.547,6.68 8.548,6.671C8.605,6.002 8.75,5.357 8.849,4.703C8.362,1.638 6.924,0.993 6.17,-2.704C6.01,-2.951 5.839,-3.191 5.661,-3.424C5.455,-3.692 5.241,-3.95 4.992,-4.18C4.861,-4.26 4.735,-4.346 4.614,-4.441C1.818,-5.464 1.911,-4.703 -0.728,-3.626C-1.737,-3.215 -4.572,-2.421 -5.685,-2.507C-6.16,-2.544 -7.796,-2.697 -7.831,-3.099C-9.921,0.131 -10.135,2.438 -10.749,5.213C-10.665,5.694 -10.574,6.176 -10.532,6.671C-10.531,6.68 -10.505,7.53 -10.534,7.96C-10.535,7.984 -10.545,8.015 -10.568,8.024C-10.63,8.055 -10.819,8.104 -10.844,8.058C-10.861,8.028 -10.947,7.916 -10.958,7.877C-11.005,7.691 -11.015,7.535 -11.023,7.35C-11.056,7.107 -11.098,6.848 -11.13,6.586C-11.932,3.584 -13.405,-8.316 -7.872,-9.605" style="fill:rgb(35,31,32);fill-rule:nonzero;"/>
                        </g>
                        <g transform="matrix(0.202083,0.979368,0.979368,-0.202083,167.679,138.783)">
                            <path d="M-7.057,-1.979L-5.35,-1.979L3.202,-4.917L-1.937,-8.113L-7.057,-1.979Z" style="fill:rgb(237,238,239);"/>
                        </g>
                        <g opacity="0.05">
                            <g transform="matrix(1,0,0,1,154.317,138.378)">
                                <path d="M0,-6.106L5.024,0.148L9.997,-6.106L9.997,-6.254L5.024,-0.029L0,-6.254L0,-6.106Z" style="fill:rgb(3,4,5);fill-rule:nonzero;"/>
                            </g>
                        </g>
                        <g opacity="0.1">
                            <g transform="matrix(1,0,0,1,158.377,142.778)">
                                <rect x="-0.009" y="-0.062" width="1.895" height="0.062" style="fill:rgb(3,4,5);"/>
                            </g>
                        </g>
                        <g transform="matrix(1,0,0,1,93.7446,135.582)">
                            <path d="M0,-21.138C-10.295,-16.625 -13.383,-14.219 -14.604,-13.139C-16.486,-11.474 -17.526,-5.269 -18.636,0L27.948,0C26.838,-5.269 25.798,-11.474 23.917,-13.139C22.696,-14.219 19.721,-16.564 9.425,-21.077L0,-21.138Z" style="fill:rgb(253,221,204);"/>
                        </g>
                        <g transform="matrix(1,0,0,1,93.7441,135.582)">
                            <path d="M0,-21.138C-10.295,-16.625 -13.383,-14.219 -14.604,-13.139C-16.485,-11.474 -17.525,-5.269 -18.635,0L27.948,0C26.839,-5.269 25.798,-11.474 23.917,-13.139C22.697,-14.219 19.722,-16.564 9.426,-21.077L0,-21.138Z" style="fill:rgb(6,103,56);"/>
                        </g>
                        <g transform="matrix(1,0,0,1,93.4023,114.064)">
                            <path d="M0,-8.617L0,2.794C2.749,6.045 7.248,6.162 9.998,2.794L9.998,-8.617C9.998,-14.779 0,-14.779 0,-8.617" style="fill:rgb(247,217,199);"/>
                        </g>
                        <g transform="matrix(1,0,0,1,87.9771,103.785)">
                            <path d="M0,-5.512C0.88,-5.803 2,-4.803 2.501,-3.281C3.003,-1.758 2.696,-0.288 1.815,0.001C0.935,0.291 -0.185,-0.708 -0.686,-2.231C-1.188,-3.754 -0.881,-5.223 0,-5.512" style="fill:rgb(247,217,199);"/>
                        </g>
                        <g transform="matrix(1,0,0,1,108.781,103.785)">
                            <path d="M0,-5.512C-0.881,-5.803 -2.001,-4.803 -2.503,-3.281C-3.004,-1.758 -2.696,-0.288 -1.816,0.001C-0.936,0.291 0.185,-0.708 0.686,-2.231C1.187,-3.754 0.879,-5.223 0,-5.512" style="fill:rgb(247,217,199);"/>
                        </g>
                        <g transform="matrix(1,0,0,1,96.2515,121.217)">
                            <path d="M0,0.438L1.211,2.314L3.088,2.314L4.299,0.438L2.176,-1.876L0,0.438Z" style="fill:rgb(52,52,52);"/>
                        </g>
                        <g transform="matrix(-0.141617,0.989922,0.989922,0.141617,104.499,129.48)">
                            <path d="M-4.893,-7.808L7.281,-7.808L6.527,-2.536L-5.159,-5.95L-4.893,-7.808Z" style="fill:rgb(52,52,52);"/>
                        </g>
                        <g transform="matrix(-0.248965,0.968513,0.968513,0.248965,101.377,117.454)">
                            <path d="M-2.245,-8.811L-0.489,-8.811L7.779,-5.423L2.561,-2.388L-2.245,-8.811Z" style="fill:rgb(237,238,239);"/>
                        </g>
                        <g opacity="0.2">
                            <g transform="matrix(1,0,0,1,93.4023,114.583)">
                                <clipPath id="_clip3">
                                    <rect x="0" y="-3.611" width="9.998" height="3.504" clip-rule="nonzero"/>
                                </clipPath>
                                <g clip-path="url(#_clip3)">
                                    <path d="M0,-3.611L0,-3.25C0,-3.25 2.554,-0.218 4.99,-0.11C7.425,0 9.998,-3.044 9.998,-3.044L9.998,-3.598" style="fill:rgb(3,4,5);fill-rule:nonzero;"/>
                                </g>
                            </g>
                        </g>
                        <g transform="matrix(1,0,0,1,98.4092,113.34)">
                            <path d="M0,-28.382C-15.378,-28.382 -9.484,-7.317 -8.479,-5.703C-7.372,-3.923 -2.484,0 0,0C2.485,0 7.373,-3.923 8.48,-5.703C9.485,-7.317 15.379,-28.382 0,-28.382" style="fill:rgb(247,217,199);"/>
                        </g>
                        <g transform="matrix(1,0,0,1,97.6294,94.4691)">
                            <path d="M0,-5.002C-0.086,-5.029 -0.173,-5.054 -0.259,-5.079C-0.131,-5.048 -0.002,-5.015 0.126,-4.979C0.084,-4.987 0.042,-4.994 0,-5.002M7.872,-9.019C2.574,-13.692 -7.802,-7.725 -10.224,-4.319C-9.247,-0.896 -9.722,3.47 -9.004,8.333C-9.005,8.325 -9.004,8.319 -9.005,8.311C-8.997,8.36 -8.987,8.41 -8.974,8.463C-8.963,8.502 -8.877,8.614 -8.86,8.644C-8.834,8.69 -8.646,8.641 -8.584,8.61C-8.562,8.601 -8.551,8.57 -8.55,8.546C-8.521,8.116 -8.547,7.266 -8.548,7.256C-8.605,6.588 -8.51,5.907 -8.608,5.254C-8.122,2.187 -8.514,2.06 -6.839,-1.002C-6.698,-1.26 -5.802,-2.307 -5.68,-2.4C-2.885,-3.425 -1.911,-1.719 0.728,-0.642C1.737,-0.231 3.256,-0.202 4.373,-0.202C6.111,-0.202 7.796,-2.111 7.831,-2.513C9.921,0.717 10.135,3.024 10.749,5.799C10.665,6.28 10.574,6.762 10.533,7.256C10.531,7.266 10.505,8.116 10.534,8.546C10.535,8.57 10.545,8.601 10.568,8.61C10.63,8.641 10.819,8.69 10.844,8.644C10.861,8.614 10.948,8.502 10.958,8.463C11.005,8.277 11.015,8.121 11.024,7.936C11.056,7.693 11.098,7.434 11.131,7.172C11.932,4.17 13.405,-7.73 7.872,-9.019" style="fill:rgb(64,63,65);fill-rule:nonzero;"/>
                        </g>
                        <g transform="matrix(1,0,0,1,56.4731,92.1781)">
                            <path d="M0,-5.003C0.089,-5.029 0.177,-5.055 0.266,-5.08C0.134,-5.049 0.002,-5.016 -0.129,-4.98C-0.086,-4.987 -0.043,-4.995 0,-5.003M-8.065,-9.02C-2.637,-13.693 7.993,-7.726 10.474,-4.319C9.473,-0.896 9.96,3.47 9.225,8.332C9.226,8.325 9.225,8.318 9.226,8.31C9.217,8.36 9.207,8.41 9.193,8.462C9.183,8.502 9.094,8.613 9.077,8.644C9.051,8.69 8.858,8.641 8.794,8.61C8.771,8.6 8.761,8.569 8.76,8.545C8.73,8.116 8.757,7.266 8.758,7.256C8.816,6.587 8.719,5.907 8.819,5.253C8.321,2.187 8.723,2.059 7.007,-1.003C6.862,-1.261 5.944,-2.307 5.819,-2.401C2.956,-3.426 1.958,-1.72 -0.746,-0.643C-1.779,-0.231 -3.336,-0.203 -4.479,-0.203C-6.261,-0.203 -7.987,-2.112 -8.023,-2.514C-10.165,0.716 -10.384,3.023 -11.012,5.798C-10.926,6.279 -10.833,6.761 -10.791,7.256C-10.789,7.266 -10.763,8.116 -10.792,8.545C-10.793,8.569 -10.804,8.6 -10.827,8.61C-10.891,8.641 -11.084,8.69 -11.11,8.644C-11.127,8.613 -11.216,8.502 -11.227,8.462C-11.275,8.276 -11.284,8.121 -11.294,7.935C-11.327,7.692 -11.37,7.433 -11.403,7.171C-12.225,4.169 -13.733,-7.731 -8.065,-9.02" style="fill:rgb(64,63,65);fill-rule:nonzero;"/>
                        </g>
                        <g transform="matrix(0.202083,0.979368,0.979368,-0.202083,106.764,119.598)">
                            <path d="M-7.057,-1.979L-5.35,-1.979L3.202,-4.918L-1.937,-8.113L-7.057,-1.979Z" style="fill:rgb(237,238,239);"/>
                        </g>
                        <g opacity="0.05">
                            <g transform="matrix(1,0,0,1,93.4023,119.192)">
                                <path d="M0,-6.106L5.025,0.148L9.998,-6.106L9.998,-6.254L5.025,-0.029L0,-6.254L0,-6.106Z" style="fill:rgb(3,4,5);fill-rule:nonzero;"/>
                            </g>
                        </g>
                        <g opacity="0.1">
                            <g transform="matrix(1,0,0,1,97.4624,123.593)">
                                <rect x="-0.009" y="-0.062" width="1.895" height="0.062" style="fill:rgb(3,4,5);"/>
                            </g>
                        </g>
                        <g transform="matrix(1,0,0,1,125.599,148.592)">
                            <path d="M0,-31.844C1.09,-33.738 9.777,-35.407 13.321,-28.675C16.866,-21.943 15.081,-19.584 17.035,-17.207C18.991,-14.831 17.15,-9.378 15.792,-8.9C14.433,-8.422 14.978,-6.536 15.641,-5.726C18.469,-2.267 14.379,3.563 3.461,3.505C-8.21,3.44 -10.5,-3.341 -7.508,-5.456C-6.533,-6.147 -6.154,-7.471 -7.223,-8.638C-8.292,-9.806 -10.756,-14.154 -8.434,-17.718C-6.111,-21.281 -8.141,-31.849 0,-31.844" style="fill:rgb(64,63,65);"/>
                        </g>
                        <g transform="matrix(1,0,0,1,133.833,161.929)">
                            <path d="M0,-17.464C-0.086,-17.329 -8.527,-17.194 -8.62,-17.062C-11.271,-13.28 -16.999,-11.623 -21.553,-10.605C-26.085,-9.592 -26.26,-3.834 -26.268,0L17.917,0C17.91,-3.834 17.825,-9.57 13.201,-10.605C8.578,-11.639 2.515,-13.511 0,-17.464" style="fill:rgb(6,103,56);"/>
                        </g>
                        <g transform="matrix(1,0,0,1,125.231,146.034)">
                            <path d="M0,-9.645L0,1.2C2.218,5.738 6.2,5.856 8.854,1.2L8.854,-9.645C8.854,-15.501 0,-15.501 0,-9.645" style="fill:rgb(247,214,193);"/>
                        </g>
                        <g transform="matrix(1,0,0,1,141.335,137.131)">
                            <path d="M0,-5.807C-0.885,-6.204 -2.134,-5.228 -2.79,-3.625C-3.447,-2.021 -3.263,-0.399 -2.378,-0.001C-1.494,0.397 -0.244,-0.579 0.412,-2.183C1.069,-3.786 0.884,-5.408 0,-5.807" style="fill:rgb(247,214,193);"/>
                        </g>
                        <g transform="matrix(1,0,0,1,117.989,137.131)">
                            <path d="M0,-5.807C0.884,-6.204 2.133,-5.229 2.791,-3.625C3.447,-2.021 3.263,-0.399 2.378,-0.001C1.494,0.397 0.245,-0.579 -0.413,-2.183C-1.069,-3.786 -0.884,-5.408 0,-5.807" style="fill:rgb(247,214,193);"/>
                        </g>
                        <g opacity="0.2">
                            <g transform="matrix(1,0,0,1,125.231,144.858)">
                                <path d="M0,-3.075L0,-2.773C0,-2.773 2.778,0 4.385,0C5.993,0 8.854,-2.804 8.854,-2.804L8.854,-3.075L0,-3.075Z" style="fill:rgb(3,4,5);"/>
                            </g>
                        </g>
                        <g transform="matrix(1,0,0,1,129.667,116.917)">
                            <path d="M0,26.974C-2.749,26.974 -8.557,22.443 -10.352,15.953C-12.165,9.4 -8.75,0 0,0C8.75,0 12.165,9.4 10.351,15.953C8.555,22.443 2.749,26.974 0,26.974" style="fill:rgb(247,214,193);"/>
                        </g>
                        <g transform="matrix(1,0,0,1,127.608,125.86)">
                            <path d="M0,-0.816C-2.147,3.685 -3.019,5.014 -5.874,3.826C-8.728,2.638 -8.186,5.968 -7.667,8.345C-10.195,5.135 -9.898,2.087 -9.112,-1.011C-8.25,-4.408 -3.904,-9.575 0.173,-9.479C2.388,-9.712 5.741,-9.437 9.308,-6.867C15.535,-2.378 13.456,7.706 11.778,8.896C13.403,-0.445 9.424,1.456 6.679,-3.429C5.777,-5.578 2.333,-5.711 0,-0.816" style="fill:rgb(64,63,65);"/>
                        </g>
                        <g transform="matrix(1,0,0,1,0,112.658)">
                            <rect x="129.08" y="38.071" width="0.907" height="11.2" style="fill:white;"/>
                        </g>
                        <g transform="matrix(-0.738045,0.674751,0.674751,0.738045,129.324,152.394)">
                            <path d="M-2.064,-8.323L2.218,-8.323L3.459,-1.01L-1.321,-1.097L-2.064,-8.323Z" style="fill:white;"/>
                        </g>
                        <g transform="matrix(0.72386,0.689947,0.689947,-0.72386,137.051,146.572)">
                            <path d="M-3.344,-0.791L1.02,-0.791L2.199,-8.143L-2.581,-8.152L-3.344,-0.791Z" style="fill:white;"/>
                        </g>
                        <g transform="matrix(1,0,0,1,124.98,136.194)">
                            <path d="M0,-6.676C-1.594,-6.761 -3.705,-6.56 -4.094,-6.426C-4.596,-6.252 -4.611,-6.208 -4.646,-5.801C-4.681,-5.394 -4.628,-5.042 -4.34,-4.939C-3.944,-4.796 -3.958,-4.25 -3.74,-2.686C-3.545,-1.261 -2.997,-0.136 -0.495,0.063C-0.368,0.074 -0.244,0.078 -0.123,0.08L-0.116,-0.318C-1.265,-0.309 -2.543,-0.743 -2.974,-1.632C-3.578,-2.879 -3.662,-5.398 -2.82,-5.925C-2.458,-6.153 -1.253,-6.31 -0.006,-6.253L0,-6.676ZM4.792,-5.87C4.237,-5.857 1.967,-6.511 0.354,-6.651C0.239,-6.661 0.122,-6.67 0,-6.676L-0.006,-6.253C1.306,-6.194 2.664,-5.897 3.129,-5.196C3.893,-4.047 2.521,-1.237 1.28,-0.612C0.903,-0.421 0.406,-0.323 -0.116,-0.318L-0.123,0.08C2.049,0.083 2.852,-1.484 3.12,-2.006C3.625,-2.989 3.521,-4.346 4.764,-4.349C6.006,-4.352 5.843,-3.021 6.288,-2.037C6.527,-1.508 7.232,0.119 9.486,0.055L9.492,-0.341C8.937,-0.331 8.408,-0.428 8.021,-0.627C6.818,-1.247 5.615,-4.05 6.451,-5.202C6.953,-5.898 8.301,-6.202 9.602,-6.272L9.608,-6.694C9.508,-6.689 9.411,-6.681 9.315,-6.672C7.861,-6.539 6.098,-5.904 4.792,-5.87M9.486,0.055C9.573,0.054 9.663,0.048 9.755,0.04C12.268,-0.17 12.886,-1.299 13.168,-2.725C13.479,-4.291 13.5,-4.835 13.904,-4.98C14.2,-5.086 14.272,-5.436 14.264,-5.845C14.253,-6.251 14.24,-6.295 13.75,-6.465C13.362,-6.601 11.217,-6.795 9.608,-6.694L9.602,-6.272C10.869,-6.341 12.092,-6.189 12.446,-5.959C13.252,-5.437 13.017,-2.916 12.337,-1.667C11.866,-0.8 10.617,-0.36 9.492,-0.341L9.486,0.055Z" style="fill:rgb(64,63,65);"/>
                        </g>
                        <g opacity="0.05">
                            <g transform="matrix(1,0,0,1,125.231,150.547)">
                                <path d="M0,-5.688L4.327,0.146L8.854,-5.709L8.849,-5.834L4.327,-0.019L0,-5.834L0,-5.688Z" style="fill:rgb(3,4,5);"/>
                            </g>
                        </g>
                        <g transform="matrix(1,0,0,1,67.3877,163.038)">
                            <path d="M0,-21.139C-10.295,-16.625 -13.383,-14.219 -14.604,-13.139C-16.485,-11.475 -17.526,-5.269 -18.635,0L27.948,0C26.838,-5.269 25.798,-11.475 23.917,-13.139C22.696,-14.219 19.721,-16.563 9.426,-21.077L0,-21.139Z" style="fill:rgb(253,221,204);"/>
                        </g>
                        <g transform="matrix(1,0,0,1,67.3872,163.038)">
                            <path d="M0,-21.139C-10.294,-16.625 -13.383,-14.219 -14.604,-13.139C-16.485,-11.475 -17.525,-5.269 -18.635,0L27.948,0C26.839,-5.269 25.798,-11.475 23.917,-13.139C22.697,-14.219 19.722,-16.563 9.426,-21.077L0,-21.139Z" style="fill:rgb(51,51,51);"/>
                        </g>
                        <g transform="matrix(1,0,0,1,67.0454,141.52)">
                            <path d="M0,-8.617L0,2.794C2.749,6.045 7.248,6.162 9.997,2.794L9.997,-8.617C9.997,-14.779 0,-14.779 0,-8.617" style="fill:rgb(254,218,186);"/>
                        </g>
                        <g transform="matrix(1,0,0,1,61.6201,131.241)">
                            <path d="M0,-5.512C0.88,-5.803 2,-4.803 2.502,-3.281C3.003,-1.758 2.696,-0.288 1.815,0.002C0.935,0.291 -0.185,-0.707 -0.686,-2.231C-1.188,-3.753 -0.88,-5.223 0,-5.512" style="fill:rgb(254,218,186);"/>
                        </g>
                        <g transform="matrix(1,0,0,1,82.4243,131.241)">
                            <path d="M0,-5.512C-0.881,-5.803 -2.001,-4.803 -2.503,-3.281C-3.004,-1.758 -2.696,-0.288 -1.816,0.002C-0.936,0.291 0.185,-0.707 0.686,-2.231C1.187,-3.753 0.88,-5.223 0,-5.512" style="fill:rgb(254,218,186);"/>
                        </g>
                        <g transform="matrix(1,0,0,1,72.0703,163.037)">
                            <path d="M0,-16.241C0,-16.241 -6.976,-14.576 -6.976,-14.154C-6.976,-13.732 -4.321,0 -4.321,0L5.149,0L6.235,-14.094L0,-16.241Z" style="fill:white;"/>
                        </g>
                        <g transform="matrix(1,0,0,1,67.0454,163.037)">
                            <path d="M0,-20.988L0,-18.723L2.172,0L-1.562,0L-5.67,-8.339L-1.749,-10.953L-6.541,-13.193L-2.134,-20.031L0,-20.988Z" style="fill:rgb(97,96,92);"/>
                        </g>
                        <g transform="matrix(1,0,0,1,77.0425,163.038)">
                            <path d="M0,-20.977L0,-18.724L-2.192,0L1.542,0L5.648,-8.339L1.729,-10.954L6.52,-13.194L2.604,-19.821L0,-20.977Z" style="fill:rgb(97,96,92);"/>
                        </g>
                        <g transform="matrix(1,0,0,1,69.895,148.673)">
                            <path d="M0,0.438L1.21,2.314L3.088,2.314L4.299,0.438L2.175,-1.876L0,0.438Z" style="fill:rgb(14,175,80);"/>
                        </g>
                        <g transform="matrix(-0.141536,0.989933,0.989933,0.141536,78.1423,156.935)">
                            <path d="M-4.892,-7.808L7.281,-7.808L6.528,-2.537L-5.158,-5.949L-4.892,-7.808Z" style="fill:rgb(14,175,80);"/>
                        </g>
                        <g transform="matrix(-0.248965,0.968513,0.968513,0.248965,75.0209,144.911)">
                            <path d="M-2.245,-8.812L-0.49,-8.812L7.78,-5.423L2.561,-2.388L-2.245,-8.812Z" style="fill:rgb(237,238,239);"/>
                        </g>
                        <g opacity="0.2">
                            <g transform="matrix(1,0,0,1,67.0454,142.038)">
                                <clipPath id="_clip4">
                                    <rect x="0" y="-3.61" width="9.997" height="3.504" clip-rule="nonzero"/>
                                </clipPath>
                                <g clip-path="url(#_clip4)">
                                    <path d="M0,-3.61L0,-3.249C0,-3.249 2.554,-0.217 4.99,-0.109C7.425,0 9.997,-3.044 9.997,-3.044L9.997,-3.597" style="fill:rgb(3,4,5);fill-rule:nonzero;"/>
                                </g>
                            </g>
                        </g>
                        <g transform="matrix(1,0,0,1,79.9634,131.47)">
                            <path d="M0,-18.193C2.289,-17.828 3.554,-16.259 4.096,-14.13C5.506,-8.588 2.554,3.432 -7.667,3.575C-12.937,3.649 -16.733,2.309 -18.116,-1.958C-19.5,-6.223 -20.067,-13.097 -17.061,-16.95C-13.278,-21.797 -5.34,-21.842 0,-18.193" style="fill:rgb(64,63,65);"/>
                        </g>
                        <g transform="matrix(1,0,0,1,72.0522,140.796)">
                            <path d="M0,-28.382C-15.378,-28.382 -9.484,-7.317 -8.479,-5.703C-7.372,-3.923 -2.484,0 0,0C2.485,0 7.373,-3.923 8.48,-5.703C9.485,-7.317 15.379,-28.382 0,-28.382" style="fill:rgb(254,218,186);"/>
                        </g>
                        <g transform="matrix(1,0,0,1,64.6123,121.111)">
                            <path d="M0,-2.08C2.738,-0.415 4.857,-2.899 7.331,-1.834C9.804,-0.768 16.493,-5.893 17.953,5.364C20.293,-2.801 16.746,-8.635 7.822,-9.023C-1.709,-9.438 -5.568,-0.752 -2.934,7.358C-3.106,2.965 -2.031,0.09 0,-2.08" style="fill:rgb(64,63,65);"/>
                        </g>
                        <g transform="matrix(1,0,0,1,63.8184,119.683)">
                            <path d="M0,-1.345C-0.411,0.457 1.896,1.303 3.288,1.49C5.74,1.819 8.196,1.152 10.307,-0.12C11.507,-0.844 11.123,-3.164 9.533,-2.977C7.678,-2.758 6.008,-1.718 4.127,-1.726C2.964,-1.731 1.711,-2.162 0.573,-1.917C0.307,-1.861 0.06,-1.608 0,-1.345" style="fill:rgb(64,63,65);fill-rule:nonzero;"/>
                        </g>
                        <g transform="matrix(1,0,0,1,67.356,131.972)">
                            <path d="M0,-6.649C-1.586,-6.733 -3.688,-6.533 -4.077,-6.4C-4.576,-6.227 -4.591,-6.183 -4.626,-5.777C-4.661,-5.372 -4.608,-5.022 -4.321,-4.919C-3.927,-4.777 -3.94,-4.233 -3.725,-2.675C-3.531,-1.256 -2.984,-0.136 -0.493,0.062C-0.366,0.073 -0.243,0.077 -0.123,0.079L-0.115,-0.318C-1.26,-0.308 -2.533,-0.742 -2.961,-1.627C-3.563,-2.868 -3.646,-5.376 -2.809,-5.901C-2.447,-6.128 -1.247,-6.285 -0.006,-6.228L0,-6.649ZM4.771,-5.846C4.219,-5.833 1.959,-6.484 0.352,-6.623C0.238,-6.633 0.121,-6.642 0,-6.649L-0.006,-6.228C1.3,-6.169 2.652,-5.873 3.116,-5.174C3.876,-4.031 2.51,-1.233 1.275,-0.61C0.899,-0.42 0.404,-0.323 -0.115,-0.318L-0.123,0.079C2.041,0.081 2.84,-1.478 3.107,-1.999C3.609,-2.978 3.506,-4.329 4.744,-4.331C5.98,-4.335 5.818,-3.008 6.261,-2.03C6.499,-1.503 7.201,0.118 9.446,0.054L9.452,-0.34C8.898,-0.332 8.372,-0.427 7.986,-0.626C6.789,-1.243 5.591,-4.034 6.423,-5.181C6.923,-5.874 8.266,-6.176 9.56,-6.247L9.567,-6.667C9.468,-6.661 9.37,-6.654 9.275,-6.645C7.828,-6.513 6.072,-5.879 4.771,-5.846M9.446,0.054C9.532,0.052 9.622,0.046 9.713,0.038C12.215,-0.17 12.832,-1.295 13.112,-2.714C13.422,-4.274 13.441,-4.816 13.845,-4.96C14.139,-5.066 14.211,-5.415 14.203,-5.821C14.192,-6.225 14.179,-6.27 13.691,-6.439C13.305,-6.574 11.169,-6.767 9.567,-6.667L9.56,-6.247C10.823,-6.315 12.041,-6.164 12.393,-5.935C13.196,-5.415 12.962,-2.905 12.285,-1.661C11.815,-0.798 10.572,-0.359 9.452,-0.34L9.446,0.054Z" style="fill:rgb(64,63,65);"/>
                        </g>
                        <g transform="matrix(0.202083,0.979368,0.979368,-0.202083,80.4072,147.053)">
                            <path d="M-7.057,-1.98L-5.349,-1.98L3.202,-4.917L-1.936,-8.113L-7.057,-1.98Z" style="fill:rgb(237,238,239);"/>
                        </g>
                        <g opacity="0.05">
                            <g transform="matrix(1,0,0,1,67.0454,146.648)">
                                <path d="M0,-6.106L5.025,0.148L9.997,-6.106L9.997,-6.254L5.025,-0.029L0,-6.254L0,-6.106Z" style="fill:rgb(3,4,5);fill-rule:nonzero;"/>
                            </g>
                        </g>
                        <g opacity="0.1">
                            <g transform="matrix(1,0,0,1,71.105,151.049)">
                                <rect x="-0.009" y="-0.062" width="1.896" height="0.062" style="fill:rgb(3,4,5);"/>
                            </g>
                        </g>
                        <g transform="matrix(1,0,0,1,93.0142,169.164)">
                            <path d="M0,-21.138C-10.295,-16.625 -13.383,-14.219 -14.604,-13.139C-16.485,-11.475 -17.526,-5.269 -18.635,0L27.948,0C26.838,-5.269 25.798,-11.475 23.917,-13.139C22.696,-14.219 19.721,-16.564 9.426,-21.077L0,-21.138Z" style="fill:rgb(253,221,204);"/>
                        </g>
                        <g transform="matrix(1,0,0,1,93.0137,169.164)">
                            <path d="M0,-21.138C-10.294,-16.625 -13.383,-14.219 -14.604,-13.139C-16.485,-11.475 -17.525,-5.269 -18.635,0L27.948,0C26.839,-5.269 25.798,-11.475 23.917,-13.139C22.697,-14.219 19.722,-16.564 9.426,-21.077L0,-21.138Z" style="fill:rgb(51,51,51);"/>
                        </g>
                        <g transform="matrix(1,0,0,1,92.6719,147.646)">
                            <path d="M0,-8.618L0,2.794C2.749,6.045 7.248,6.161 9.998,2.794L9.998,-8.618C9.998,-14.779 0,-14.779 0,-8.618" style="fill:rgb(247,198,160);"/>
                        </g>
                        <g transform="matrix(1,0,0,1,87.2466,137.368)">
                            <path d="M0,-5.514C0.88,-5.804 2,-4.804 2.502,-3.282C3.003,-1.759 2.696,-0.29 1.815,0C0.935,0.29 -0.185,-0.709 -0.686,-2.232C-1.188,-3.754 -0.88,-5.224 0,-5.514" style="fill:rgb(247,198,160);"/>
                        </g>
                        <g transform="matrix(1,0,0,1,108.051,137.368)">
                            <path d="M0,-5.514C-0.881,-5.804 -2.001,-4.804 -2.503,-3.282C-3.004,-1.759 -2.696,-0.29 -1.816,0C-0.935,0.29 0.185,-0.709 0.686,-2.232C1.187,-3.754 0.88,-5.224 0,-5.514" style="fill:rgb(247,198,160);"/>
                        </g>
                        <g transform="matrix(1,0,0,1,97.6968,169.163)">
                            <path d="M0,-16.241C0,-16.241 -6.976,-14.576 -6.976,-14.154C-6.976,-13.732 -4.321,0 -4.321,0L5.149,0L6.235,-14.094L0,-16.241Z" style="fill:rgb(159,186,196);"/>
                        </g>
                        <g transform="matrix(1,0,0,1,92.6719,169.163)">
                            <path d="M0,-20.988L0,-18.723L2.172,0L-1.562,0L-5.67,-8.339L-1.749,-10.953L-6.541,-13.193L-2.134,-20.031L0,-20.988Z" style="fill:rgb(26,26,26);"/>
                        </g>
                        <g transform="matrix(1,0,0,1,102.669,169.164)">
                            <path d="M0,-20.977L0,-18.724L-2.193,0L1.541,0L5.648,-8.339L1.728,-10.954L6.519,-13.194L2.603,-19.821L0,-20.977Z" style="fill:rgb(26,27,27);"/>
                        </g>
                        <g transform="matrix(1,0,0,1,95.521,154.799)">
                            <path d="M0,0.438L1.211,2.314L3.088,2.314L4.299,0.438L2.176,-1.876L0,0.438Z" style="fill:rgb(14,175,80);"/>
                        </g>
                        <g transform="matrix(-0.141617,0.989922,0.989922,0.141617,103.769,163.062)">
                            <path d="M-4.893,-7.808L7.281,-7.808L6.527,-2.536L-5.159,-5.95L-4.893,-7.808Z" style="fill:rgb(14,175,80);"/>
                        </g>
                        <g transform="matrix(-0.248965,0.968513,0.968513,0.248965,100.647,151.036)">
                            <path d="M-2.245,-8.811L-0.489,-8.811L7.779,-5.423L2.561,-2.388L-2.245,-8.811Z" style="fill:white;"/>
                        </g>
                        <g opacity="0.2">
                            <g transform="matrix(1,0,0,1,92.6719,148.164)">
                                <clipPath id="_clip5">
                                    <rect x="0" y="-3.61" width="9.997" height="3.504" clip-rule="nonzero"/>
                                </clipPath>
                                <g clip-path="url(#_clip5)">
                                    <path d="M0,-3.61L0,-3.249C0,-3.249 2.554,-0.218 4.99,-0.109C7.426,0 9.998,-3.044 9.998,-3.044L9.998,-3.597" style="fill:rgb(3,4,5);fill-rule:nonzero;"/>
                                </g>
                            </g>
                        </g>
                        <g transform="matrix(1,0,0,1,97.6792,146.922)">
                            <path d="M0,-28.382C-15.379,-28.382 -9.484,-7.317 -8.48,-5.703C-7.373,-3.923 -2.484,0 0,0C2.485,0 7.372,-3.923 8.48,-5.703C9.485,-7.317 15.379,-28.382 0,-28.382" style="fill:rgb(247,198,160);"/>
                        </g>
                        <g transform="matrix(1,0,0,1,96.7051,128.637)">
                            <path d="M0,-5.588C-0.086,-5.615 -0.172,-5.641 -0.259,-5.665C-0.13,-5.634 -0.002,-5.601 0.127,-5.565C0.084,-5.573 0.042,-5.58 0,-5.588M7.873,-9.605C2.679,-13.692 -5.341,-11.255 -7.763,-7.85C-10.793,-3.587 -9.722,2.884 -9.004,7.747L-9.004,7.725C-8.997,7.774 -8.986,7.824 -8.973,7.877C-8.963,7.916 -8.876,8.028 -8.86,8.058C-8.834,8.104 -8.646,8.055 -8.584,8.024C-8.561,8.014 -8.551,7.984 -8.55,7.96C-8.521,7.53 -8.547,6.68 -8.548,6.67C-8.605,6.001 -8.75,5.356 -8.848,4.703C-8.362,1.638 -6.923,0.993 -6.169,-2.704C-6.01,-2.951 -5.839,-3.191 -5.66,-3.424C-5.454,-3.692 -5.241,-3.95 -4.992,-4.18C-4.861,-4.26 -4.735,-4.346 -4.613,-4.441C-1.818,-5.465 1.064,-4.236 3.703,-3.159C4.711,-2.747 5.843,-2.261 6.956,-2.347C7.431,-2.384 7.796,-2.697 7.832,-3.099C9.094,0.684 10.135,2.438 10.75,5.213C10.665,5.694 10.575,6.176 10.533,6.67C10.532,6.68 10.506,7.53 10.534,7.96C10.536,7.984 10.546,8.014 10.568,8.024C10.631,8.055 10.819,8.104 10.844,8.058C10.861,8.028 10.948,7.916 10.958,7.877C11.005,7.691 11.015,7.535 11.024,7.35C11.056,7.107 11.099,6.847 11.131,6.586C11.932,3.584 13.405,-8.316 7.873,-9.605" style="fill:rgb(35,31,32);fill-rule:nonzero;"/>
                        </g>
                        <g transform="matrix(0.202083,0.979368,0.979368,-0.202083,106.034,153.18)">
                            <path d="M-7.057,-1.979L-5.35,-1.979L3.202,-4.918L-1.937,-8.113L-7.057,-1.979Z" style="fill:white;"/>
                        </g>
                        <g opacity="0.05">
                            <g transform="matrix(1,0,0,1,92.6719,152.774)">
                                <path d="M0,-6.106L5.025,0.148L9.998,-6.106L9.998,-6.254L5.025,-0.029L0,-6.254L0,-6.106Z" style="fill:rgb(3,4,5);fill-rule:nonzero;"/>
                            </g>
                        </g>
                    </g>
                </g>
            </g>
        </g>
    </g>
</svg>
